%TF.GenerationSoftware,KiCad,Pcbnew,6.0.7*%
%TF.CreationDate,2022-09-14T22:19:12-04:00*%
%TF.ProjectId,flutter_v2_wren,666c7574-7465-4725-9f76-325f7772656e,v1.0.0*%
%TF.SameCoordinates,Original*%
%TF.FileFunction,Copper,L1,Top*%
%TF.FilePolarity,Positive*%
%FSLAX46Y46*%
G04 Gerber Fmt 4.6, Leading zero omitted, Abs format (unit mm)*
G04 Created by KiCad (PCBNEW 6.0.7) date 2022-09-14 22:19:12*
%MOMM*%
%LPD*%
G01*
G04 APERTURE LIST*
G04 Aperture macros list*
%AMRotRect*
0 Rectangle, with rotation*
0 The origin of the aperture is its center*
0 $1 length*
0 $2 width*
0 $3 Rotation angle, in degrees counterclockwise*
0 Add horizontal line*
21,1,$1,$2,0,0,$3*%
%AMFreePoly0*
4,1,6,0.600000,0.200000,0.000000,-0.400000,-0.600000,0.200000,-0.600000,0.400000,0.600000,0.400000,0.600000,0.200000,0.600000,0.200000,$1*%
%AMFreePoly1*
4,1,5,0.125000,-0.500000,-0.125000,-0.500000,-0.125000,0.500000,0.125000,0.500000,0.125000,-0.500000,0.125000,-0.500000,$1*%
%AMFreePoly2*
4,1,49,0.088388,4.152388,0.854389,3.386388,0.867708,3.368551,0.871189,3.365530,0.871982,3.362827,0.875852,3.357644,0.882333,3.327543,0.891000,3.298000,0.891000,0.766000,0.887805,0.743969,0.888131,0.739371,0.886780,0.736898,0.885852,0.730498,0.869154,0.704638,0.854389,0.677612,0.088388,-0.088388,0.064607,-0.106146,0.062500,-0.108253,0.061385,-0.108552,0.059644,-0.109852,
0.043810,-0.113261,0.000000,-0.125000,-0.004774,-0.123721,-0.009154,-0.124664,-0.028953,-0.117242,-0.062500,-0.108253,-0.068237,-0.102516,-0.075052,-0.099961,-0.087614,-0.083139,-0.108253,-0.062500,-0.111178,-0.051584,-0.117161,-0.043572,-0.118539,-0.024114,-0.125000,0.000000,-0.121239,0.014035,-0.122131,0.026629,-0.113759,0.041953,-0.108253,0.062500,-0.095642,0.075111,-0.088388,0.088388,
0.641000,0.817777,0.641000,3.246223,-0.088388,3.975612,-0.109852,4.004356,-0.124664,4.073154,-0.099961,4.139052,-0.043572,4.181161,0.026629,4.186131,0.088388,4.152388,0.088388,4.152388,$1*%
%AMFreePoly3*
4,1,6,0.600000,-0.250000,-0.600000,-0.250000,-0.600000,1.000000,0.000000,0.400000,0.600000,1.000000,0.600000,-0.250000,0.600000,-0.250000,$1*%
%AMFreePoly4*
4,1,49,0.088388,4.152388,0.850389,3.390388,0.863708,3.372551,0.867189,3.369530,0.867982,3.366827,0.871852,3.361644,0.878333,3.331543,0.887000,3.302000,0.887000,0.762000,0.883805,0.739969,0.884131,0.735371,0.882780,0.732898,0.881852,0.726498,0.865154,0.700638,0.850389,0.673612,0.088388,-0.088388,0.064607,-0.106146,0.062500,-0.108253,0.061385,-0.108552,0.059644,-0.109852,
0.043810,-0.113261,0.000000,-0.125000,-0.004774,-0.123721,-0.009154,-0.124664,-0.028953,-0.117242,-0.062500,-0.108253,-0.068237,-0.102516,-0.075052,-0.099961,-0.087614,-0.083139,-0.108253,-0.062500,-0.111178,-0.051584,-0.117161,-0.043572,-0.118539,-0.024114,-0.125000,0.000000,-0.121239,0.014035,-0.122131,0.026629,-0.113759,0.041953,-0.108253,0.062500,-0.095642,0.075111,-0.088388,0.088388,
0.637000,0.813777,0.637000,3.250223,-0.088388,3.975612,-0.109852,4.004356,-0.124664,4.073154,-0.099961,4.139052,-0.043572,4.181161,0.026629,4.186131,0.088388,4.152388,0.088388,4.152388,$1*%
G04 Aperture macros list end*
%ADD10C,0.600000*%
%TA.AperFunction,NonConductor*%
%ADD11C,0.600000*%
%TD*%
%TA.AperFunction,ComponentPad*%
%ADD12C,1.000000*%
%TD*%
%TA.AperFunction,SMDPad,CuDef*%
%ADD13R,0.900000X1.200000*%
%TD*%
%TA.AperFunction,SMDPad,CuDef*%
%ADD14R,2.600000X2.600000*%
%TD*%
%TA.AperFunction,ComponentPad*%
%ADD15C,2.032000*%
%TD*%
%TA.AperFunction,ComponentPad*%
%ADD16C,0.600000*%
%TD*%
%TA.AperFunction,SMDPad,CuDef*%
%ADD17RotRect,2.600000X2.600000X66.000000*%
%TD*%
%TA.AperFunction,SMDPad,CuDef*%
%ADD18RotRect,0.900000X1.200000X237.000000*%
%TD*%
%TA.AperFunction,SMDPad,CuDef*%
%ADD19RotRect,0.900000X1.200000X152.000000*%
%TD*%
%TA.AperFunction,SMDPad,CuDef*%
%ADD20RotRect,2.600000X2.600000X332.000000*%
%TD*%
%TA.AperFunction,SMDPad,CuDef*%
%ADD21RotRect,2.600000X2.600000X57.000000*%
%TD*%
%TA.AperFunction,SMDPad,CuDef*%
%ADD22R,0.900000X1.700000*%
%TD*%
%TA.AperFunction,SMDPad,CuDef*%
%ADD23RotRect,2.600000X2.600000X346.500000*%
%TD*%
%TA.AperFunction,SMDPad,CuDef*%
%ADD24FreePoly0,270.000000*%
%TD*%
%TA.AperFunction,ComponentPad*%
%ADD25C,1.600000*%
%TD*%
%TA.AperFunction,SMDPad,CuDef*%
%ADD26FreePoly1,270.000000*%
%TD*%
%TA.AperFunction,SMDPad,CuDef*%
%ADD27FreePoly1,90.000000*%
%TD*%
%TA.AperFunction,SMDPad,CuDef*%
%ADD28FreePoly0,90.000000*%
%TD*%
%TA.AperFunction,ComponentPad*%
%ADD29R,1.600000X1.600000*%
%TD*%
%TA.AperFunction,SMDPad,CuDef*%
%ADD30FreePoly2,270.000000*%
%TD*%
%TA.AperFunction,SMDPad,CuDef*%
%ADD31FreePoly3,270.000000*%
%TD*%
%TA.AperFunction,ComponentPad*%
%ADD32C,0.800000*%
%TD*%
%TA.AperFunction,SMDPad,CuDef*%
%ADD33FreePoly3,90.000000*%
%TD*%
%TA.AperFunction,SMDPad,CuDef*%
%ADD34FreePoly4,90.000000*%
%TD*%
%TA.AperFunction,SMDPad,CuDef*%
%ADD35RotRect,2.600000X2.600000X356.000000*%
%TD*%
%TA.AperFunction,SMDPad,CuDef*%
%ADD36RotRect,1.000000X0.800000X30.000000*%
%TD*%
%TA.AperFunction,SMDPad,CuDef*%
%ADD37RotRect,0.700000X1.500000X30.000000*%
%TD*%
%TA.AperFunction,SMDPad,CuDef*%
%ADD38RotRect,0.900000X1.200000X166.500000*%
%TD*%
%TA.AperFunction,SMDPad,CuDef*%
%ADD39RotRect,0.900000X1.200000X246.000000*%
%TD*%
%TA.AperFunction,SMDPad,CuDef*%
%ADD40RotRect,0.900000X1.200000X176.000000*%
%TD*%
G04 APERTURE END LIST*
D10*
D11*
X19608466Y-12604101D02*
X18006363Y-12144706D01*
X17284456Y-14662296D02*
X18662643Y-9855988D01*
X20951361Y-10512267D01*
X22090764Y-16040483D02*
X21698649Y-15680355D01*
X21601033Y-15156984D01*
X22782336Y-11037291D01*
X26900377Y-13951952D02*
X25981586Y-17156158D01*
X24840530Y-13361301D02*
X24118623Y-15878891D01*
X24216239Y-16402262D01*
X24608355Y-16762390D01*
X25294970Y-16959274D01*
X25818342Y-16861658D01*
X26112841Y-16698414D01*
X28502480Y-14411348D02*
X30333454Y-14936371D01*
X29648491Y-13006129D02*
X28467188Y-17125822D01*
X28564804Y-17649193D01*
X28956919Y-18009321D01*
X29414663Y-18140577D01*
X31248942Y-15198883D02*
X33079916Y-15723907D01*
X32394953Y-13793664D02*
X31213650Y-17913357D01*
X31311266Y-18436729D01*
X31703381Y-18796856D01*
X32161125Y-18928112D01*
X35659830Y-19683660D02*
X35136459Y-19781276D01*
X34220971Y-19518764D01*
X33828856Y-19158636D01*
X33731240Y-18635264D01*
X34256263Y-16804290D01*
X34616391Y-16412174D01*
X35139763Y-16314558D01*
X36055250Y-16577070D01*
X36447366Y-16937198D01*
X36544982Y-17460569D01*
X36413726Y-17918313D01*
X33993752Y-17719777D01*
X37882921Y-20568811D02*
X38801712Y-17364605D01*
X38539200Y-18280092D02*
X38899328Y-17887977D01*
X39193828Y-17724733D01*
X39717199Y-17627117D01*
X40174943Y-17758373D01*
X40989511Y-20964230D02*
X41152754Y-21258730D01*
X40858255Y-21421974D01*
X40695011Y-21127474D01*
X40989511Y-20964230D01*
X40858255Y-21421974D01*
X41711418Y-18446640D02*
X41874662Y-18741140D01*
X41580162Y-18904384D01*
X41416918Y-18609884D01*
X41711418Y-18446640D01*
X41580162Y-18904384D01*
X44067416Y-17140689D02*
X43833588Y-22275137D01*
X45733495Y-19104572D01*
X45664563Y-22800161D01*
X48187109Y-18321992D01*
X48639897Y-23653324D02*
X49558688Y-20449118D01*
X49296176Y-21364606D02*
X49656304Y-20972490D01*
X49950804Y-20809246D01*
X50474175Y-20711630D01*
X50931919Y-20842886D01*
X53511833Y-24802639D02*
X52988462Y-24900255D01*
X52072974Y-24637743D01*
X51680859Y-24277615D01*
X51583243Y-23754244D01*
X52108266Y-21923269D01*
X52468394Y-21531154D01*
X52991766Y-21433538D01*
X53907253Y-21696049D01*
X54299369Y-22056177D01*
X54396985Y-22579549D01*
X54265729Y-23037292D01*
X51845755Y-22838757D01*
X56653715Y-22483585D02*
X55734924Y-25687790D01*
X56522459Y-22941328D02*
X56816959Y-22778084D01*
X57340330Y-22680468D01*
X58026946Y-22877352D01*
X58419062Y-23237480D01*
X58516678Y-23760852D01*
X57794770Y-26278442D01*
D12*
%TO.P,,1*%
%TO.N,pos*%
X122000000Y11750000D03*
%TO.P,,2*%
%TO.N,GND*%
X122000000Y10250000D03*
%TD*%
D13*
%TO.P,D10,1*%
%TO.N,P6*%
X61650000Y-3000000D03*
%TO.P,D10,2*%
%TO.N,D12*%
X58350000Y-3000000D03*
%TD*%
D14*
%TO.P,S24,1*%
%TO.N,P2*%
X57275000Y43950000D03*
%TO.P,S24,2*%
%TO.N,D10*%
X45725000Y41750000D03*
%TD*%
D15*
%TO.P,S51,1*%
%TO.N,P1*%
X121000000Y-2800000D03*
X131000000Y-2800000D03*
%TO.P,S51,2*%
%TO.N,D27*%
X126000000Y-4900000D03*
X126000000Y-4900000D03*
%TD*%
%TO.P,S9,1*%
%TO.N,P0*%
X13000000Y13200000D03*
X23000000Y13200000D03*
%TO.P,S9,2*%
%TO.N,D3*%
X18000000Y11100000D03*
X18000000Y11100000D03*
%TD*%
D16*
%TO.P,REF\u002A\u002A,1*%
%TO.N,P5*%
X44000000Y30500000D03*
%TD*%
D15*
%TO.P,S27,1*%
%TO.N,P0*%
X67000000Y18200000D03*
X77000000Y18200000D03*
%TO.P,S27,2*%
%TO.N,D15*%
X72000000Y16100000D03*
X72000000Y16100000D03*
%TD*%
D16*
%TO.P,REF\u002A\u002A,1*%
%TO.N,P9*%
X122278393Y-20928688D03*
%TD*%
%TO.P,REF\u002A\u002A,1*%
%TO.N,P10*%
X134000000Y-4500000D03*
%TD*%
%TO.P,REF\u002A\u002A,1*%
%TO.N,P5*%
X44000000Y-3500000D03*
%TD*%
D13*
%TO.P,D13,1*%
%TO.N,P7*%
X79650000Y-2000000D03*
%TO.P,D13,2*%
%TO.N,D16*%
X76350000Y-2000000D03*
%TD*%
D16*
%TO.P,REF\u002A\u002A,1*%
%TO.N,P4*%
X8000000Y28500000D03*
%TD*%
D17*
%TO.P,S44,1*%
%TO.N,P3*%
X109896467Y-20588056D03*
%TO.P,S44,2*%
%TO.N,D24*%
X107208459Y-32034326D03*
%TD*%
D15*
%TO.P,S15,1*%
%TO.N,P0*%
X31000000Y15200000D03*
X41000000Y15200000D03*
%TO.P,S15,2*%
%TO.N,D7*%
X36000000Y13100000D03*
X36000000Y13100000D03*
%TD*%
D18*
%TO.P,D25,1*%
%TO.N,P10*%
X160171373Y-42374190D03*
%TO.P,D25,2*%
%TO.N,D27*%
X158374065Y-45141802D03*
%TD*%
D13*
%TO.P,D26,1*%
%TO.N,P10*%
X133650000Y-6000000D03*
%TO.P,D26,2*%
%TO.N,D27*%
X130350000Y-6000000D03*
%TD*%
D14*
%TO.P,S42,1*%
%TO.N,P0*%
X111275000Y41950000D03*
%TO.P,S42,2*%
%TO.N,D22*%
X99725000Y39750000D03*
%TD*%
D16*
%TO.P,REF\u002A\u002A,1*%
%TO.N,P7*%
X80000000Y-500000D03*
%TD*%
D15*
%TO.P,S47,1*%
%TO.N,P0*%
X142176056Y-26928776D03*
X133346580Y-22234060D03*
%TO.P,S47,2*%
%TO.N,D25*%
X136775428Y-26435608D03*
X136775428Y-26435608D03*
%TD*%
D16*
%TO.P,REF\u002A\u002A,1*%
%TO.N,P10*%
X134637366Y-47497153D03*
%TD*%
D13*
%TO.P,D2,1*%
%TO.N,P4*%
X7650000Y10000000D03*
%TO.P,D2,2*%
%TO.N,D3*%
X4350000Y10000000D03*
%TD*%
D14*
%TO.P,S26,1*%
%TO.N,P1*%
X75275000Y10950000D03*
%TO.P,S26,2*%
%TO.N,D16*%
X63725000Y8750000D03*
%TD*%
D16*
%TO.P,REF\u002A\u002A,1*%
%TO.N,P10*%
X77596852Y-26044654D03*
%TD*%
%TO.P,REF\u002A\u002A,1*%
%TO.N,P4*%
X8000000Y-5500000D03*
%TD*%
D14*
%TO.P,S8,1*%
%TO.N,P1*%
X21275000Y5950000D03*
%TO.P,S8,2*%
%TO.N,D4*%
X9725000Y3750000D03*
%TD*%
D13*
%TO.P,D21,1*%
%TO.N,P9*%
X115650000Y29000000D03*
%TO.P,D21,2*%
%TO.N,D22*%
X112350000Y29000000D03*
%TD*%
D16*
%TO.P,REF\u002A\u002A,1*%
%TO.N,P8*%
X98000000Y14500000D03*
%TD*%
D13*
%TO.P,D14,1*%
%TO.N,P7*%
X79650000Y15000000D03*
%TO.P,D14,2*%
%TO.N,D15*%
X76350000Y15000000D03*
%TD*%
D14*
%TO.P,S18,1*%
%TO.N,P2*%
X39275000Y41950000D03*
%TO.P,S18,2*%
%TO.N,D6*%
X27725000Y39750000D03*
%TD*%
D15*
%TO.P,S39,1*%
%TO.N,P1*%
X103000000Y15200000D03*
X113000000Y15200000D03*
%TO.P,S39,2*%
%TO.N,D23*%
X108000000Y13100000D03*
X108000000Y13100000D03*
%TD*%
D16*
%TO.P,REF\u002A\u002A,1*%
%TO.N,P9*%
X116000000Y-3500000D03*
%TD*%
D15*
%TO.P,S3,1*%
%TO.N,P0*%
X5000000Y13200000D03*
X-5000000Y13200000D03*
%TO.P,S3,2*%
%TO.N,D3*%
X0Y11100000D03*
X0Y11100000D03*
%TD*%
D16*
%TO.P,REF\u002A\u002A,1*%
%TO.N,P8*%
X98000000Y-2500000D03*
%TD*%
%TO.P,REF\u002A\u002A,1*%
%TO.N,P4*%
X26000000Y11500000D03*
%TD*%
D15*
%TO.P,S53,1*%
%TO.N,P1*%
X64747105Y-23441961D03*
X74722746Y-24139526D03*
%TO.P,S53,2*%
%TO.N,D27*%
X69588437Y-25885628D03*
X69588437Y-25885628D03*
%TD*%
%TO.P,S23,1*%
%TO.N,P2*%
X49000000Y34200000D03*
X59000000Y34200000D03*
%TO.P,S23,2*%
%TO.N,D10*%
X54000000Y32100000D03*
X54000000Y32100000D03*
%TD*%
D13*
%TO.P,D3,1*%
%TO.N,P4*%
X7650000Y27000000D03*
%TO.P,D3,2*%
%TO.N,D2*%
X4350000Y27000000D03*
%TD*%
D19*
%TO.P,D23,1*%
%TO.N,P10*%
X133624127Y-48657260D03*
%TO.P,D23,2*%
%TO.N,D26*%
X130710399Y-47108004D03*
%TD*%
D15*
%TO.P,S35,1*%
%TO.N,P2*%
X85000000Y33200000D03*
X95000000Y33200000D03*
%TO.P,S35,2*%
%TO.N,D18*%
X90000000Y31100000D03*
X90000000Y31100000D03*
%TD*%
%TO.P,S33,1*%
%TO.N,P0*%
X95000000Y16200000D03*
X85000000Y16200000D03*
%TO.P,S33,2*%
%TO.N,D19*%
X90000000Y14100000D03*
X90000000Y14100000D03*
%TD*%
D16*
%TO.P,REF\u002A\u002A,1*%
%TO.N,P10*%
X144026797Y-29838202D03*
%TD*%
%TO.P,REF\u002A\u002A,1*%
%TO.N,P4*%
X26000000Y-5500000D03*
%TD*%
D20*
%TO.P,S48,1*%
%TO.N,P0*%
X145230319Y-17510198D03*
%TO.P,S48,2*%
%TO.N,D25*%
X133999437Y-14030286D03*
%TD*%
D13*
%TO.P,D8,1*%
%TO.N,P5*%
X43650000Y12000000D03*
%TO.P,D8,2*%
%TO.N,D7*%
X40350000Y12000000D03*
%TD*%
D15*
%TO.P,S19,1*%
%TO.N,P1*%
X59000000Y200000D03*
X49000000Y200000D03*
%TO.P,S19,2*%
%TO.N,D12*%
X54000000Y-1900000D03*
X54000000Y-1900000D03*
%TD*%
D13*
%TO.P,D9,1*%
%TO.N,P5*%
X43650000Y29000000D03*
%TO.P,D9,2*%
%TO.N,D6*%
X40350000Y29000000D03*
%TD*%
D19*
%TO.P,D24,1*%
%TO.N,P10*%
X143013559Y-30998308D03*
%TO.P,D24,2*%
%TO.N,D25*%
X140099831Y-29449052D03*
%TD*%
D15*
%TO.P,S55,1*%
%TO.N,P1*%
X85751058Y-25927779D03*
X95474757Y-28262233D03*
%TO.P,S55,2*%
%TO.N,D27*%
X90122672Y-29136983D03*
X90122672Y-29136983D03*
%TD*%
%TO.P,S45,1*%
%TO.N,P2*%
X123957149Y-39893012D03*
X132786625Y-44587728D03*
%TO.P,S45,2*%
%TO.N,D26*%
X127385997Y-44094560D03*
X127385997Y-44094560D03*
%TD*%
D14*
%TO.P,S20,1*%
%TO.N,P1*%
X57275000Y9950000D03*
%TO.P,S20,2*%
%TO.N,D12*%
X45725000Y7750000D03*
%TD*%
%TO.P,S4,1*%
%TO.N,P0*%
X3275000Y22950000D03*
%TO.P,S4,2*%
%TO.N,D3*%
X-8275000Y20750000D03*
%TD*%
D13*
%TO.P,D5,1*%
%TO.N,P4*%
X25650000Y10000000D03*
%TO.P,D5,2*%
%TO.N,D3*%
X22350000Y10000000D03*
%TD*%
D14*
%TO.P,S12,1*%
%TO.N,P2*%
X21275000Y39950000D03*
%TO.P,S12,2*%
%TO.N,D2*%
X9725000Y37750000D03*
%TD*%
D21*
%TO.P,S50,1*%
%TO.N,P3*%
X146927794Y-38990298D03*
%TO.P,S50,2*%
%TO.N,D27*%
X142482288Y-49875149D03*
%TD*%
D22*
%TO.P,,1*%
%TO.N,RST*%
X117700000Y46000000D03*
%TO.P,,2*%
%TO.N,GND*%
X114300000Y46000000D03*
%TD*%
D13*
%TO.P,D7,1*%
%TO.N,P5*%
X43650000Y-5000000D03*
%TO.P,D7,2*%
%TO.N,D8*%
X40350000Y-5000000D03*
%TD*%
D16*
%TO.P,REF\u002A\u002A,1*%
%TO.N,P9*%
X116000000Y30500000D03*
%TD*%
D15*
%TO.P,S5,1*%
%TO.N,P2*%
X5000000Y30200000D03*
X-5000000Y30200000D03*
%TO.P,S5,2*%
%TO.N,D2*%
X0Y28100000D03*
X0Y28100000D03*
%TD*%
%TO.P,S21,1*%
%TO.N,P0*%
X59000000Y17200000D03*
X49000000Y17200000D03*
%TO.P,S21,2*%
%TO.N,D11*%
X54000000Y15100000D03*
X54000000Y15100000D03*
%TD*%
D13*
%TO.P,D16,1*%
%TO.N,P8*%
X97650000Y-4000000D03*
%TO.P,D16,2*%
%TO.N,D20*%
X94350000Y-4000000D03*
%TD*%
D15*
%TO.P,S13,1*%
%TO.N,P1*%
X31000000Y-1800000D03*
X41000000Y-1800000D03*
%TO.P,S13,2*%
%TO.N,D8*%
X36000000Y-3900000D03*
X36000000Y-3900000D03*
%TD*%
D14*
%TO.P,S14,1*%
%TO.N,P1*%
X39275000Y7950000D03*
%TO.P,S14,2*%
%TO.N,D8*%
X27725000Y5750000D03*
%TD*%
%TO.P,S10,1*%
%TO.N,P0*%
X21275000Y22950000D03*
%TO.P,S10,2*%
%TO.N,D3*%
X9725000Y20750000D03*
%TD*%
D16*
%TO.P,REF\u002A\u002A,1*%
%TO.N,P4*%
X26000000Y28500000D03*
%TD*%
D14*
%TO.P,S2,1*%
%TO.N,P1*%
X3275000Y5950000D03*
%TO.P,S2,2*%
%TO.N,D4*%
X-8275000Y3750000D03*
%TD*%
D16*
%TO.P,REF\u002A\u002A,1*%
%TO.N,P7*%
X80000000Y16500000D03*
%TD*%
D14*
%TO.P,S34,1*%
%TO.N,P0*%
X93275000Y25950000D03*
%TO.P,S34,2*%
%TO.N,D19*%
X81725000Y23750000D03*
%TD*%
D23*
%TO.P,S56,1*%
%TO.N,P1*%
X96073511Y-18378933D03*
%TO.P,S56,2*%
%TO.N,D27*%
X84329059Y-17821852D03*
%TD*%
D15*
%TO.P,S49,1*%
%TO.N,P3*%
X150597944Y-51240527D03*
X156044334Y-42853821D03*
%TO.P,S49,2*%
%TO.N,D27*%
X155082347Y-48190916D03*
X155082347Y-48190916D03*
%TD*%
D16*
%TO.P,REF\u002A\u002A,1*%
%TO.N,P6*%
X62000000Y15500000D03*
%TD*%
D14*
%TO.P,S38,1*%
%TO.N,P1*%
X111275000Y7950000D03*
%TO.P,S38,2*%
%TO.N,D23*%
X99725000Y5750000D03*
%TD*%
D13*
%TO.P,D6,1*%
%TO.N,P4*%
X25650000Y27000000D03*
%TO.P,D6,2*%
%TO.N,D2*%
X22350000Y27000000D03*
%TD*%
D14*
%TO.P,S28,1*%
%TO.N,P0*%
X75275000Y27950000D03*
%TO.P,S28,2*%
%TO.N,D15*%
X63725000Y25750000D03*
%TD*%
D15*
%TO.P,S7,1*%
%TO.N,P1*%
X13000000Y-3800000D03*
X23000000Y-3800000D03*
%TO.P,S7,2*%
%TO.N,D4*%
X18000000Y-5900000D03*
X18000000Y-5900000D03*
%TD*%
D13*
%TO.P,D19,1*%
%TO.N,P9*%
X115650000Y-5000000D03*
%TO.P,D19,2*%
%TO.N,D23*%
X112350000Y-5000000D03*
%TD*%
D24*
%TO.P,MCU1,*%
%TO.N,*%
X134842000Y42180000D03*
D25*
X136620000Y44720000D03*
D26*
X135350000Y26940000D03*
D27*
X122650000Y42180000D03*
D25*
X121380000Y34560000D03*
D27*
X122650000Y37100000D03*
D25*
X136620000Y16780000D03*
D27*
X122650000Y32020000D03*
X122650000Y44720000D03*
D26*
X135350000Y29480000D03*
D27*
X122650000Y29480000D03*
D25*
X136620000Y19320000D03*
D26*
X135350000Y34560000D03*
X135350000Y37100000D03*
D28*
X123158000Y19320000D03*
X123158000Y44720000D03*
X123158000Y37100000D03*
X123158000Y21860000D03*
D26*
X135350000Y19320000D03*
D28*
X123158000Y29480000D03*
D25*
X136620000Y24400000D03*
D24*
X134842000Y32020000D03*
D26*
X135350000Y44720000D03*
D25*
X136620000Y26940000D03*
D26*
X135350000Y32020000D03*
D25*
X136620000Y42180000D03*
D27*
X122650000Y24400000D03*
D25*
X136620000Y34560000D03*
X136620000Y39640000D03*
X121380000Y29480000D03*
D28*
X123158000Y32020000D03*
D25*
X121380000Y39640000D03*
D24*
X134842000Y37100000D03*
X134842000Y44720000D03*
X134842000Y34560000D03*
D25*
X121380000Y19320000D03*
D24*
X134842000Y24400000D03*
X134842000Y39640000D03*
D27*
X122650000Y39640000D03*
D24*
X134842000Y29480000D03*
D25*
X121380000Y32020000D03*
D26*
X135350000Y21860000D03*
D25*
X121380000Y42180000D03*
X121380000Y16780000D03*
D24*
X134842000Y21860000D03*
D27*
X122650000Y34560000D03*
D25*
X121380000Y44720000D03*
X121380000Y21860000D03*
D26*
X135350000Y39640000D03*
D27*
X122650000Y16780000D03*
D24*
X134842000Y19320000D03*
D26*
X135350000Y24400000D03*
X135350000Y16780000D03*
D29*
X121380000Y44720000D03*
D25*
X136620000Y21860000D03*
X121380000Y24400000D03*
X136620000Y32020000D03*
D27*
X122650000Y19320000D03*
D24*
X134842000Y16780000D03*
D25*
X121380000Y37100000D03*
D26*
X135350000Y42180000D03*
D27*
X122650000Y26940000D03*
D25*
X121380000Y26940000D03*
D28*
X123158000Y42180000D03*
X123158000Y26940000D03*
X123158000Y24400000D03*
D24*
X134842000Y26940000D03*
D25*
X136620000Y29480000D03*
D28*
X123158000Y39640000D03*
D27*
X122650000Y21860000D03*
D25*
X136620000Y37100000D03*
D28*
X123158000Y16780000D03*
X123158000Y34560000D03*
D30*
%TO.P,MCU1,1*%
%TO.N,RAW*%
X129762000Y44720000D03*
D31*
X133826000Y44720000D03*
D32*
X129762000Y44720000D03*
D31*
%TO.P,MCU1,2*%
%TO.N,GND*%
X133826000Y42180000D03*
D30*
X129762000Y42180000D03*
D32*
X129762000Y42180000D03*
D30*
%TO.P,MCU1,3*%
%TO.N,RST*%
X129762000Y39640000D03*
D31*
X133826000Y39640000D03*
D32*
X129762000Y39640000D03*
D30*
%TO.P,MCU1,4*%
%TO.N,VCC*%
X129762000Y37100000D03*
D31*
X133826000Y37100000D03*
D32*
X129762000Y37100000D03*
D31*
%TO.P,MCU1,5*%
%TO.N,P21*%
X133826000Y34560000D03*
D32*
X129762000Y34560000D03*
D30*
X129762000Y34560000D03*
%TO.P,MCU1,6*%
%TO.N,P20*%
X129762000Y32020000D03*
D31*
X133826000Y32020000D03*
D32*
X129762000Y32020000D03*
D31*
%TO.P,MCU1,7*%
%TO.N,P19*%
X133826000Y29480000D03*
D32*
X129762000Y29480000D03*
D30*
X129762000Y29480000D03*
D32*
%TO.P,MCU1,8*%
%TO.N,P18*%
X129762000Y26940000D03*
D31*
X133826000Y26940000D03*
D30*
X129762000Y26940000D03*
D31*
%TO.P,MCU1,9*%
%TO.N,P15*%
X133826000Y24400000D03*
D32*
X129762000Y24400000D03*
D30*
X129762000Y24400000D03*
D32*
%TO.P,MCU1,10*%
%TO.N,P14*%
X129762000Y21860000D03*
D31*
X133826000Y21860000D03*
D30*
X129762000Y21860000D03*
%TO.P,MCU1,11*%
%TO.N,P16*%
X129762000Y19320000D03*
D31*
X133826000Y19320000D03*
D32*
X129762000Y19320000D03*
D30*
%TO.P,MCU1,12*%
%TO.N,P10*%
X129762000Y16780000D03*
D31*
X133826000Y16780000D03*
D32*
X129762000Y16780000D03*
%TO.P,MCU1,13*%
%TO.N,P9*%
X128238000Y16780000D03*
D33*
X124174000Y16780000D03*
D34*
X128238000Y16780000D03*
D33*
%TO.P,MCU1,14*%
%TO.N,P8*%
X124174000Y19320000D03*
D32*
X128238000Y19320000D03*
D34*
X128238000Y19320000D03*
D33*
%TO.P,MCU1,15*%
%TO.N,P7*%
X124174000Y21860000D03*
D34*
X128238000Y21860000D03*
D32*
X128238000Y21860000D03*
D33*
%TO.P,MCU1,16*%
%TO.N,P6*%
X124174000Y24400000D03*
D34*
X128238000Y24400000D03*
D32*
X128238000Y24400000D03*
D34*
%TO.P,MCU1,17*%
%TO.N,P5*%
X128238000Y26940000D03*
D32*
X128238000Y26940000D03*
D33*
X124174000Y26940000D03*
%TO.P,MCU1,18*%
%TO.N,P4*%
X124174000Y29480000D03*
D32*
X128238000Y29480000D03*
D34*
X128238000Y29480000D03*
%TO.P,MCU1,19*%
%TO.N,P3*%
X128238000Y32020000D03*
D32*
X128238000Y32020000D03*
D33*
X124174000Y32020000D03*
%TO.P,MCU1,20*%
%TO.N,P2*%
X124174000Y34560000D03*
D32*
X128238000Y34560000D03*
D34*
X128238000Y34560000D03*
%TO.P,MCU1,21*%
%TO.N,GND*%
X128238000Y37100000D03*
D33*
X124174000Y37100000D03*
D32*
X128238000Y37100000D03*
%TO.P,MCU1,22*%
X128238000Y39640000D03*
D34*
X128238000Y39640000D03*
D33*
X124174000Y39640000D03*
%TO.P,MCU1,23*%
%TO.N,P0*%
X124174000Y42180000D03*
D32*
X128238000Y42180000D03*
D34*
X128238000Y42180000D03*
D32*
%TO.P,MCU1,24*%
%TO.N,P1*%
X128238000Y44720000D03*
D34*
X128238000Y44720000D03*
D33*
X124174000Y44720000D03*
%TD*%
D16*
%TO.P,REF\u002A\u002A,1*%
%TO.N,P10*%
X159103991Y-41263696D03*
%TD*%
%TO.P,REF\u002A\u002A,1*%
%TO.N,P8*%
X98000000Y31500000D03*
%TD*%
D15*
%TO.P,S11,1*%
%TO.N,P2*%
X13000000Y30200000D03*
X23000000Y30200000D03*
%TO.P,S11,2*%
%TO.N,D2*%
X18000000Y28100000D03*
X18000000Y28100000D03*
%TD*%
D16*
%TO.P,REF\u002A\u002A,1*%
%TO.N,P6*%
X62000000Y32500000D03*
%TD*%
D14*
%TO.P,S36,1*%
%TO.N,P2*%
X93275000Y42950000D03*
%TO.P,S36,2*%
%TO.N,D18*%
X81725000Y40750000D03*
%TD*%
D13*
%TO.P,D1,1*%
%TO.N,P4*%
X7650000Y-7000000D03*
%TO.P,D1,2*%
%TO.N,D4*%
X4350000Y-7000000D03*
%TD*%
%TO.P,D17,1*%
%TO.N,P8*%
X97650000Y13000000D03*
%TO.P,D17,2*%
%TO.N,D19*%
X94350000Y13000000D03*
%TD*%
%TO.P,D15,1*%
%TO.N,P7*%
X79650000Y32000000D03*
%TO.P,D15,2*%
%TO.N,D14*%
X76350000Y32000000D03*
%TD*%
D35*
%TO.P,S54,1*%
%TO.N,P1*%
X73682073Y-14292946D03*
%TO.P,S54,2*%
%TO.N,D27*%
X62006744Y-15681900D03*
%TD*%
D16*
%TO.P,REF\u002A\u002A,1*%
%TO.N,P10*%
X97995010Y-30615598D03*
%TD*%
D36*
%TO.P,,*%
%TO.N,*%
X141149500Y-9050993D03*
X137499500Y-2729007D03*
X139413416Y-1624007D03*
X143063416Y-7945993D03*
D37*
%TO.P,,1*%
%TO.N,pos*%
X139886584Y-8163557D03*
%TO.P,,2*%
%TO.N,RAW*%
X138386584Y-5565481D03*
%TO.P,,3*%
%TO.N,N/C*%
X137636584Y-4266443D03*
%TD*%
D14*
%TO.P,S6,1*%
%TO.N,P2*%
X3275000Y39950000D03*
%TO.P,S6,2*%
%TO.N,D2*%
X-8275000Y37750000D03*
%TD*%
D38*
%TO.P,D28,1*%
%TO.N,P10*%
X97304512Y-31992447D03*
%TO.P,D28,2*%
%TO.N,D27*%
X94095692Y-31222077D03*
%TD*%
D13*
%TO.P,D4,1*%
%TO.N,P4*%
X25650000Y-7000000D03*
%TO.P,D4,2*%
%TO.N,D4*%
X22350000Y-7000000D03*
%TD*%
D15*
%TO.P,S1,1*%
%TO.N,P1*%
X5000000Y-3800000D03*
X-5000000Y-3800000D03*
%TO.P,S1,2*%
%TO.N,D4*%
X0Y-5900000D03*
X0Y-5900000D03*
%TD*%
D16*
%TO.P,REF\u002A\u002A,1*%
%TO.N,P7*%
X80000000Y33500000D03*
%TD*%
D15*
%TO.P,S31,1*%
%TO.N,P1*%
X85000000Y-800000D03*
X95000000Y-800000D03*
%TO.P,S31,2*%
%TO.N,D20*%
X90000000Y-2900000D03*
X90000000Y-2900000D03*
%TD*%
%TO.P,S37,1*%
%TO.N,P1*%
X103000000Y-1800000D03*
X113000000Y-1800000D03*
%TO.P,S37,2*%
%TO.N,D23*%
X108000000Y-3900000D03*
X108000000Y-3900000D03*
%TD*%
D14*
%TO.P,S22,1*%
%TO.N,P0*%
X57275000Y26950000D03*
%TO.P,S22,2*%
%TO.N,D11*%
X45725000Y24750000D03*
%TD*%
%TO.P,S40,1*%
%TO.N,P1*%
X111275000Y24950000D03*
%TO.P,S40,2*%
%TO.N,D23*%
X99725000Y22750000D03*
%TD*%
D20*
%TO.P,S46,1*%
%TO.N,P2*%
X135840888Y-35169150D03*
%TO.P,S46,2*%
%TO.N,D26*%
X124610006Y-31689238D03*
%TD*%
D16*
%TO.P,REF\u002A\u002A,1*%
%TO.N,P9*%
X116000000Y13500000D03*
%TD*%
D39*
%TO.P,D22,1*%
%TO.N,P9*%
X123506353Y-21858534D03*
%TO.P,D22,2*%
%TO.N,D24*%
X122164123Y-24873234D03*
%TD*%
D15*
%TO.P,S41,1*%
%TO.N,P0*%
X113000000Y32200000D03*
X103000000Y32200000D03*
%TO.P,S41,2*%
%TO.N,D22*%
X108000000Y30100000D03*
X108000000Y30100000D03*
%TD*%
%TO.P,S43,1*%
%TO.N,P3*%
X119505156Y-22977872D03*
X115437790Y-32113327D03*
%TO.P,S43,2*%
%TO.N,D24*%
X119389918Y-28399746D03*
X119389918Y-28399746D03*
%TD*%
D40*
%TO.P,D27,1*%
%TO.N,P10*%
X77143070Y-27516585D03*
%TO.P,D27,2*%
%TO.N,D27*%
X73851108Y-27286389D03*
%TD*%
D15*
%TO.P,S29,1*%
%TO.N,P2*%
X67000000Y35200000D03*
X77000000Y35200000D03*
%TO.P,S29,2*%
%TO.N,D14*%
X72000000Y33100000D03*
X72000000Y33100000D03*
%TD*%
D13*
%TO.P,D12,1*%
%TO.N,P6*%
X61650000Y31000000D03*
%TO.P,D12,2*%
%TO.N,D10*%
X58350000Y31000000D03*
%TD*%
D15*
%TO.P,S25,1*%
%TO.N,P1*%
X77000000Y1200000D03*
X67000000Y1200000D03*
%TO.P,S25,2*%
%TO.N,D16*%
X72000000Y-900000D03*
X72000000Y-900000D03*
%TD*%
%TO.P,S17,1*%
%TO.N,P2*%
X31000000Y32200000D03*
X41000000Y32200000D03*
%TO.P,S17,2*%
%TO.N,D6*%
X36000000Y30100000D03*
X36000000Y30100000D03*
%TD*%
D13*
%TO.P,D20,1*%
%TO.N,P9*%
X115650000Y12000000D03*
%TO.P,D20,2*%
%TO.N,D23*%
X112350000Y12000000D03*
%TD*%
D16*
%TO.P,REF\u002A\u002A,1*%
%TO.N,P6*%
X62000000Y-1500000D03*
%TD*%
D14*
%TO.P,S32,1*%
%TO.N,P1*%
X93275000Y8950000D03*
%TO.P,S32,2*%
%TO.N,D20*%
X81725000Y6750000D03*
%TD*%
D13*
%TO.P,D18,1*%
%TO.N,P8*%
X97650000Y30000000D03*
%TO.P,D18,2*%
%TO.N,D18*%
X94350000Y30000000D03*
%TD*%
D14*
%TO.P,S52,1*%
%TO.N,P1*%
X129275000Y6950000D03*
%TO.P,S52,2*%
%TO.N,D27*%
X117725000Y4750000D03*
%TD*%
%TO.P,S16,1*%
%TO.N,P0*%
X39275000Y24950000D03*
%TO.P,S16,2*%
%TO.N,D7*%
X27725000Y22750000D03*
%TD*%
D16*
%TO.P,REF\u002A\u002A,1*%
%TO.N,P5*%
X44000000Y13500000D03*
%TD*%
D13*
%TO.P,D11,1*%
%TO.N,P6*%
X61650000Y14000000D03*
%TO.P,D11,2*%
%TO.N,D11*%
X58350000Y14000000D03*
%TD*%
D16*
%TO.P,REF\u002A\u002A,1*%
%TO.N,P4*%
X8000000Y11500000D03*
%TD*%
D14*
%TO.P,S30,1*%
%TO.N,P2*%
X75275000Y44950000D03*
%TO.P,S30,2*%
%TO.N,D14*%
X63725000Y42750000D03*
%TD*%
M02*
