%TF.GenerationSoftware,KiCad,Pcbnew,6.0.7*%
%TF.CreationDate,2022-09-14T22:19:12-04:00*%
%TF.ProjectId,flutter_v2_wren,666c7574-7465-4725-9f76-325f7772656e,v1.0.0*%
%TF.SameCoordinates,Original*%
%TF.FileFunction,Paste,Top*%
%TF.FilePolarity,Positive*%
%FSLAX46Y46*%
G04 Gerber Fmt 4.6, Leading zero omitted, Abs format (unit mm)*
G04 Created by KiCad (PCBNEW 6.0.7) date 2022-09-14 22:19:12*
%MOMM*%
%LPD*%
G01*
G04 APERTURE LIST*
G04 Aperture macros list*
%AMRotRect*
0 Rectangle, with rotation*
0 The origin of the aperture is its center*
0 $1 length*
0 $2 width*
0 $3 Rotation angle, in degrees counterclockwise*
0 Add horizontal line*
21,1,$1,$2,0,0,$3*%
G04 Aperture macros list end*
%ADD10R,0.900000X1.200000*%
%ADD11R,2.600000X2.600000*%
%ADD12RotRect,2.600000X2.600000X66.000000*%
%ADD13RotRect,0.900000X1.200000X237.000000*%
%ADD14RotRect,0.900000X1.200000X152.000000*%
%ADD15RotRect,2.600000X2.600000X332.000000*%
%ADD16RotRect,2.600000X2.600000X57.000000*%
%ADD17R,0.900000X1.700000*%
%ADD18RotRect,2.600000X2.600000X346.500000*%
%ADD19RotRect,2.600000X2.600000X356.000000*%
%ADD20RotRect,1.000000X0.800000X30.000000*%
%ADD21RotRect,0.700000X1.500000X30.000000*%
%ADD22RotRect,0.900000X1.200000X166.500000*%
%ADD23RotRect,0.900000X1.200000X246.000000*%
%ADD24RotRect,0.900000X1.200000X176.000000*%
G04 APERTURE END LIST*
D10*
%TO.C,D10*%
X61650000Y-3000000D03*
X58350000Y-3000000D03*
%TD*%
D11*
%TO.C,S24*%
X57275000Y43950000D03*
X45725000Y41750000D03*
%TD*%
D10*
%TO.C,D13*%
X79650000Y-2000000D03*
X76350000Y-2000000D03*
%TD*%
D12*
%TO.C,S44*%
X109896467Y-20588056D03*
X107208459Y-32034326D03*
%TD*%
D13*
%TO.C,D25*%
X160171373Y-42374190D03*
X158374065Y-45141802D03*
%TD*%
D10*
%TO.C,D26*%
X133650000Y-6000000D03*
X130350000Y-6000000D03*
%TD*%
D11*
%TO.C,S42*%
X111275000Y41950000D03*
X99725000Y39750000D03*
%TD*%
D10*
%TO.C,D2*%
X7650000Y10000000D03*
X4350000Y10000000D03*
%TD*%
D11*
%TO.C,S26*%
X75275000Y10950000D03*
X63725000Y8750000D03*
%TD*%
%TO.C,S8*%
X21275000Y5950000D03*
X9725000Y3750000D03*
%TD*%
D10*
%TO.C,D21*%
X115650000Y29000000D03*
X112350000Y29000000D03*
%TD*%
%TO.C,D14*%
X79650000Y15000000D03*
X76350000Y15000000D03*
%TD*%
D11*
%TO.C,S18*%
X39275000Y41950000D03*
X27725000Y39750000D03*
%TD*%
D10*
%TO.C,D3*%
X7650000Y27000000D03*
X4350000Y27000000D03*
%TD*%
D14*
%TO.C,D23*%
X133624127Y-48657260D03*
X130710399Y-47108004D03*
%TD*%
D15*
%TO.C,S48*%
X145230319Y-17510198D03*
X133999437Y-14030286D03*
%TD*%
D10*
%TO.C,D8*%
X43650000Y12000000D03*
X40350000Y12000000D03*
%TD*%
%TO.C,D9*%
X43650000Y29000000D03*
X40350000Y29000000D03*
%TD*%
D14*
%TO.C,D24*%
X143013559Y-30998308D03*
X140099831Y-29449052D03*
%TD*%
D11*
%TO.C,S20*%
X57275000Y9950000D03*
X45725000Y7750000D03*
%TD*%
%TO.C,S4*%
X3275000Y22950000D03*
X-8275000Y20750000D03*
%TD*%
D10*
%TO.C,D5*%
X25650000Y10000000D03*
X22350000Y10000000D03*
%TD*%
D11*
%TO.C,S12*%
X21275000Y39950000D03*
X9725000Y37750000D03*
%TD*%
D16*
%TO.C,S50*%
X146927794Y-38990298D03*
X142482288Y-49875149D03*
%TD*%
D17*
%TO.C,*%
X117700000Y46000000D03*
X114300000Y46000000D03*
%TD*%
D10*
%TO.C,D7*%
X43650000Y-5000000D03*
X40350000Y-5000000D03*
%TD*%
%TO.C,D16*%
X97650000Y-4000000D03*
X94350000Y-4000000D03*
%TD*%
D11*
%TO.C,S14*%
X39275000Y7950000D03*
X27725000Y5750000D03*
%TD*%
%TO.C,S10*%
X21275000Y22950000D03*
X9725000Y20750000D03*
%TD*%
%TO.C,S2*%
X3275000Y5950000D03*
X-8275000Y3750000D03*
%TD*%
%TO.C,S34*%
X93275000Y25950000D03*
X81725000Y23750000D03*
%TD*%
D18*
%TO.C,S56*%
X96073511Y-18378933D03*
X84329059Y-17821852D03*
%TD*%
D11*
%TO.C,S38*%
X111275000Y7950000D03*
X99725000Y5750000D03*
%TD*%
D10*
%TO.C,D6*%
X25650000Y27000000D03*
X22350000Y27000000D03*
%TD*%
D11*
%TO.C,S28*%
X75275000Y27950000D03*
X63725000Y25750000D03*
%TD*%
D10*
%TO.C,D19*%
X115650000Y-5000000D03*
X112350000Y-5000000D03*
%TD*%
D11*
%TO.C,S36*%
X93275000Y42950000D03*
X81725000Y40750000D03*
%TD*%
D10*
%TO.C,D1*%
X7650000Y-7000000D03*
X4350000Y-7000000D03*
%TD*%
%TO.C,D17*%
X97650000Y13000000D03*
X94350000Y13000000D03*
%TD*%
%TO.C,D15*%
X79650000Y32000000D03*
X76350000Y32000000D03*
%TD*%
D19*
%TO.C,S54*%
X73682073Y-14292946D03*
X62006744Y-15681900D03*
%TD*%
D20*
%TO.C,*%
X141149500Y-9050993D03*
X137499500Y-2729007D03*
X139413416Y-1624007D03*
X143063416Y-7945993D03*
D21*
X139886584Y-8163557D03*
X138386584Y-5565481D03*
X137636584Y-4266443D03*
%TD*%
D11*
%TO.C,S6*%
X3275000Y39950000D03*
X-8275000Y37750000D03*
%TD*%
D22*
%TO.C,D28*%
X97304512Y-31992447D03*
X94095692Y-31222077D03*
%TD*%
D10*
%TO.C,D4*%
X25650000Y-7000000D03*
X22350000Y-7000000D03*
%TD*%
D11*
%TO.C,S22*%
X57275000Y26950000D03*
X45725000Y24750000D03*
%TD*%
%TO.C,S40*%
X111275000Y24950000D03*
X99725000Y22750000D03*
%TD*%
D15*
%TO.C,S46*%
X135840888Y-35169150D03*
X124610006Y-31689238D03*
%TD*%
D23*
%TO.C,D22*%
X123506353Y-21858534D03*
X122164123Y-24873234D03*
%TD*%
D24*
%TO.C,D27*%
X77143070Y-27516585D03*
X73851108Y-27286389D03*
%TD*%
D10*
%TO.C,D12*%
X61650000Y31000000D03*
X58350000Y31000000D03*
%TD*%
%TO.C,D20*%
X115650000Y12000000D03*
X112350000Y12000000D03*
%TD*%
D11*
%TO.C,S32*%
X93275000Y8950000D03*
X81725000Y6750000D03*
%TD*%
D10*
%TO.C,D18*%
X97650000Y30000000D03*
X94350000Y30000000D03*
%TD*%
D11*
%TO.C,S52*%
X129275000Y6950000D03*
X117725000Y4750000D03*
%TD*%
%TO.C,S16*%
X39275000Y24950000D03*
X27725000Y22750000D03*
%TD*%
D10*
%TO.C,D11*%
X61650000Y14000000D03*
X58350000Y14000000D03*
%TD*%
D11*
%TO.C,S30*%
X75275000Y44950000D03*
X63725000Y42750000D03*
%TD*%
M02*
