%TF.GenerationSoftware,KiCad,Pcbnew,6.0.7*%
%TF.CreationDate,2022-09-14T22:19:13-04:00*%
%TF.ProjectId,flutter_v2_wren,666c7574-7465-4725-9f76-325f7772656e,v1.0.0*%
%TF.SameCoordinates,Original*%
%TF.FileFunction,Soldermask,Top*%
%TF.FilePolarity,Negative*%
%FSLAX46Y46*%
G04 Gerber Fmt 4.6, Leading zero omitted, Abs format (unit mm)*
G04 Created by KiCad (PCBNEW 6.0.7) date 2022-09-14 22:19:13*
%MOMM*%
%LPD*%
G01*
G04 APERTURE LIST*
G04 Aperture macros list*
%AMRoundRect*
0 Rectangle with rounded corners*
0 $1 Rounding radius*
0 $2 $3 $4 $5 $6 $7 $8 $9 X,Y pos of 4 corners*
0 Add a 4 corners polygon primitive as box body*
4,1,4,$2,$3,$4,$5,$6,$7,$8,$9,$2,$3,0*
0 Add four circle primitives for the rounded corners*
1,1,$1+$1,$2,$3*
1,1,$1+$1,$4,$5*
1,1,$1+$1,$6,$7*
1,1,$1+$1,$8,$9*
0 Add four rect primitives between the rounded corners*
20,1,$1+$1,$2,$3,$4,$5,0*
20,1,$1+$1,$4,$5,$6,$7,0*
20,1,$1+$1,$6,$7,$8,$9,0*
20,1,$1+$1,$8,$9,$2,$3,0*%
%AMFreePoly0*
4,1,14,0.635355,0.435355,0.650000,0.400000,0.650000,0.200000,0.635355,0.164645,0.035355,-0.435355,0.000000,-0.450000,-0.035355,-0.435355,-0.635355,0.164645,-0.650000,0.200000,-0.650000,0.400000,-0.635355,0.435355,-0.600000,0.450000,0.600000,0.450000,0.635355,0.435355,0.635355,0.435355,$1*%
%AMFreePoly1*
4,1,16,0.635355,1.035355,0.650000,1.000000,0.650000,-0.250000,0.635355,-0.285355,0.600000,-0.300000,-0.600000,-0.300000,-0.635355,-0.285355,-0.650000,-0.250000,-0.650000,1.000000,-0.635355,1.035355,-0.600000,1.050000,-0.564645,1.035355,0.000000,0.470710,0.564645,1.035355,0.600000,1.050000,0.635355,1.035355,0.635355,1.035355,$1*%
G04 Aperture macros list end*
%ADD10C,0.600000*%
%ADD11C,0.250000*%
%ADD12C,0.100000*%
%ADD13C,1.100000*%
%ADD14RoundRect,0.050000X0.450000X0.600000X-0.450000X0.600000X-0.450000X-0.600000X0.450000X-0.600000X0*%
%ADD15C,1.801800*%
%ADD16C,3.100000*%
%ADD17C,3.529000*%
%ADD18RoundRect,0.050000X-1.300000X-1.300000X1.300000X-1.300000X1.300000X1.300000X-1.300000X1.300000X0*%
%ADD19C,2.132000*%
%ADD20RoundRect,0.050000X0.658851X-1.716367X1.716367X0.658851X-0.658851X1.716367X-1.716367X-0.658851X0*%
%ADD21RoundRect,0.050000X-0.258115X0.704185X-0.748290X-0.050618X0.258115X-0.704185X0.748290X0.050618X0*%
%ADD22RoundRect,0.050000X0.679009X0.318506X-0.115643X0.741031X-0.679009X-0.318506X0.115643X-0.741031X0*%
%ADD23RoundRect,0.050000X-1.758145X-0.537519X0.537519X-1.758145X1.758145X0.537519X-0.537519X1.758145X0*%
%ADD24RoundRect,0.050000X0.382241X-1.798302X1.798302X0.382241X-0.382241X1.798302X-1.798302X-0.382241X0*%
%ADD25RoundRect,0.050000X-0.450000X-0.850000X0.450000X-0.850000X0.450000X0.850000X-0.450000X0.850000X0*%
%ADD26RoundRect,0.050000X-1.567560X-0.960602X0.960602X-1.567560X1.567560X0.960602X-0.960602X1.567560X0*%
%ADD27FreePoly0,270.000000*%
%ADD28C,1.700000*%
%ADD29FreePoly0,90.000000*%
%ADD30RoundRect,0.050000X-0.800000X0.800000X-0.800000X-0.800000X0.800000X-0.800000X0.800000X0.800000X0*%
%ADD31FreePoly1,270.000000*%
%ADD32FreePoly1,90.000000*%
%ADD33RoundRect,0.050000X-1.387517X-1.206150X1.206150X-1.387517X1.387517X1.206150X-1.206150X1.387517X0*%
%ADD34C,1.000000*%
%ADD35RoundRect,0.050000X-0.233013X-0.596410X0.633013X-0.096410X0.233013X0.596410X-0.633013X0.096410X0*%
%ADD36RoundRect,0.050000X0.071891X-0.824519X0.678109X-0.474519X-0.071891X0.824519X-0.678109X0.474519X0*%
%ADD37RoundRect,0.050000X0.577634X0.478372X-0.297499X0.688472X-0.577634X-0.478372X0.297499X-0.688472X0*%
%ADD38RoundRect,0.050000X-0.365096X0.655137X-0.731159X-0.167053X0.365096X-0.655137X0.731159X0.167053X0*%
%ADD39RoundRect,0.050000X0.490758X0.567148X-0.407050X0.629929X-0.490758X-0.567148X0.407050X-0.629929X0*%
G04 APERTURE END LIST*
D10*
X44023117Y-17125986D02*
X43789289Y-22260435D01*
X45689195Y-19089869D01*
X45620264Y-22785458D01*
X48142810Y-18307289D01*
X48595597Y-23638621D02*
X49514389Y-20434416D01*
X49251877Y-21349903D02*
X49612005Y-20957787D01*
X49906504Y-20794543D01*
X50429876Y-20696927D01*
X50887620Y-20828183D01*
X53467534Y-24787936D02*
X52944162Y-24885552D01*
X52028675Y-24623041D01*
X51636559Y-24262913D01*
X51538943Y-23739541D01*
X52063967Y-21908567D01*
X52424094Y-21516451D01*
X52947466Y-21418835D01*
X53862953Y-21681347D01*
X54255069Y-22041474D01*
X54352685Y-22564846D01*
X54221429Y-23022590D01*
X51801455Y-22824054D01*
X56609415Y-22468882D02*
X55690624Y-25673088D01*
X56478159Y-22926626D02*
X56772659Y-22763382D01*
X57296031Y-22665766D01*
X57982646Y-22862650D01*
X58374762Y-23222777D01*
X58472378Y-23746149D01*
X57750471Y-26263739D01*
D11*
%TO.C,MCU1*%
X128363000Y29480000D02*
G75*
G03*
X128363000Y29480000I-125000J0D01*
G01*
X128363000Y34560000D02*
G75*
G03*
X128363000Y34560000I-125000J0D01*
G01*
X129887000Y42180000D02*
G75*
G03*
X129887000Y42180000I-125000J0D01*
G01*
X128363000Y21860000D02*
G75*
G03*
X128363000Y21860000I-125000J0D01*
G01*
X128363000Y44720000D02*
G75*
G03*
X128363000Y44720000I-125000J0D01*
G01*
X128363000Y19320000D02*
G75*
G03*
X128363000Y19320000I-125000J0D01*
G01*
X129887000Y24400000D02*
G75*
G03*
X129887000Y24400000I-125000J0D01*
G01*
X128363000Y26940000D02*
G75*
G03*
X128363000Y26940000I-125000J0D01*
G01*
X129887000Y39640000D02*
G75*
G03*
X129887000Y39640000I-125000J0D01*
G01*
X129887000Y29480000D02*
G75*
G03*
X129887000Y29480000I-125000J0D01*
G01*
X128363000Y16780000D02*
G75*
G03*
X128363000Y16780000I-125000J0D01*
G01*
X129887000Y19320000D02*
G75*
G03*
X129887000Y19320000I-125000J0D01*
G01*
X128363000Y39640000D02*
G75*
G03*
X128363000Y39640000I-125000J0D01*
G01*
X128363000Y32020000D02*
G75*
G03*
X128363000Y32020000I-125000J0D01*
G01*
X128363000Y37100000D02*
G75*
G03*
X128363000Y37100000I-125000J0D01*
G01*
X128363000Y24400000D02*
G75*
G03*
X128363000Y24400000I-125000J0D01*
G01*
X129887000Y32020000D02*
G75*
G03*
X129887000Y32020000I-125000J0D01*
G01*
X129887000Y37100000D02*
G75*
G03*
X129887000Y37100000I-125000J0D01*
G01*
X128363000Y42180000D02*
G75*
G03*
X128363000Y42180000I-125000J0D01*
G01*
X129887000Y26940000D02*
G75*
G03*
X129887000Y26940000I-125000J0D01*
G01*
X129887000Y44720000D02*
G75*
G03*
X129887000Y44720000I-125000J0D01*
G01*
X129887000Y34560000D02*
G75*
G03*
X129887000Y34560000I-125000J0D01*
G01*
X129887000Y16780000D02*
G75*
G03*
X129887000Y16780000I-125000J0D01*
G01*
X129887000Y21860000D02*
G75*
G03*
X129887000Y21860000I-125000J0D01*
G01*
G36*
X135096000Y34052000D02*
G01*
X134080000Y34052000D01*
X134080000Y35068000D01*
X135096000Y35068000D01*
X135096000Y34052000D01*
G37*
D12*
X135096000Y34052000D02*
X134080000Y34052000D01*
X134080000Y35068000D01*
X135096000Y35068000D01*
X135096000Y34052000D01*
G36*
X135096000Y16272000D02*
G01*
X134080000Y16272000D01*
X134080000Y17288000D01*
X135096000Y17288000D01*
X135096000Y16272000D01*
G37*
X135096000Y16272000D02*
X134080000Y16272000D01*
X134080000Y17288000D01*
X135096000Y17288000D01*
X135096000Y16272000D01*
G36*
X123920000Y21352000D02*
G01*
X122904000Y21352000D01*
X122904000Y22368000D01*
X123920000Y22368000D01*
X123920000Y21352000D01*
G37*
X123920000Y21352000D02*
X122904000Y21352000D01*
X122904000Y22368000D01*
X123920000Y22368000D01*
X123920000Y21352000D01*
G36*
X123920000Y44212000D02*
G01*
X122904000Y44212000D01*
X122904000Y45228000D01*
X123920000Y45228000D01*
X123920000Y44212000D01*
G37*
X123920000Y44212000D02*
X122904000Y44212000D01*
X122904000Y45228000D01*
X123920000Y45228000D01*
X123920000Y44212000D01*
G36*
X123920000Y16272000D02*
G01*
X122904000Y16272000D01*
X122904000Y17288000D01*
X123920000Y17288000D01*
X123920000Y16272000D01*
G37*
X123920000Y16272000D02*
X122904000Y16272000D01*
X122904000Y17288000D01*
X123920000Y17288000D01*
X123920000Y16272000D01*
G36*
X123920000Y41672000D02*
G01*
X122904000Y41672000D01*
X122904000Y42688000D01*
X123920000Y42688000D01*
X123920000Y41672000D01*
G37*
X123920000Y41672000D02*
X122904000Y41672000D01*
X122904000Y42688000D01*
X123920000Y42688000D01*
X123920000Y41672000D01*
G36*
X123920000Y31512000D02*
G01*
X122904000Y31512000D01*
X122904000Y32528000D01*
X123920000Y32528000D01*
X123920000Y31512000D01*
G37*
X123920000Y31512000D02*
X122904000Y31512000D01*
X122904000Y32528000D01*
X123920000Y32528000D01*
X123920000Y31512000D01*
G36*
X123920000Y36592000D02*
G01*
X122904000Y36592000D01*
X122904000Y37608000D01*
X123920000Y37608000D01*
X123920000Y36592000D01*
G37*
X123920000Y36592000D02*
X122904000Y36592000D01*
X122904000Y37608000D01*
X123920000Y37608000D01*
X123920000Y36592000D01*
G36*
X135096000Y23892000D02*
G01*
X134080000Y23892000D01*
X134080000Y24908000D01*
X135096000Y24908000D01*
X135096000Y23892000D01*
G37*
X135096000Y23892000D02*
X134080000Y23892000D01*
X134080000Y24908000D01*
X135096000Y24908000D01*
X135096000Y23892000D01*
G36*
X135096000Y36592000D02*
G01*
X134080000Y36592000D01*
X134080000Y37608000D01*
X135096000Y37608000D01*
X135096000Y36592000D01*
G37*
X135096000Y36592000D02*
X134080000Y36592000D01*
X134080000Y37608000D01*
X135096000Y37608000D01*
X135096000Y36592000D01*
G36*
X123920000Y26432000D02*
G01*
X122904000Y26432000D01*
X122904000Y27448000D01*
X123920000Y27448000D01*
X123920000Y26432000D01*
G37*
X123920000Y26432000D02*
X122904000Y26432000D01*
X122904000Y27448000D01*
X123920000Y27448000D01*
X123920000Y26432000D01*
G36*
X135096000Y18812000D02*
G01*
X134080000Y18812000D01*
X134080000Y19828000D01*
X135096000Y19828000D01*
X135096000Y18812000D01*
G37*
X135096000Y18812000D02*
X134080000Y18812000D01*
X134080000Y19828000D01*
X135096000Y19828000D01*
X135096000Y18812000D01*
G36*
X135096000Y41672000D02*
G01*
X134080000Y41672000D01*
X134080000Y42688000D01*
X135096000Y42688000D01*
X135096000Y41672000D01*
G37*
X135096000Y41672000D02*
X134080000Y41672000D01*
X134080000Y42688000D01*
X135096000Y42688000D01*
X135096000Y41672000D01*
G36*
X123920000Y39132000D02*
G01*
X122904000Y39132000D01*
X122904000Y40148000D01*
X123920000Y40148000D01*
X123920000Y39132000D01*
G37*
X123920000Y39132000D02*
X122904000Y39132000D01*
X122904000Y40148000D01*
X123920000Y40148000D01*
X123920000Y39132000D01*
G36*
X123920000Y18812000D02*
G01*
X122904000Y18812000D01*
X122904000Y19828000D01*
X123920000Y19828000D01*
X123920000Y18812000D01*
G37*
X123920000Y18812000D02*
X122904000Y18812000D01*
X122904000Y19828000D01*
X123920000Y19828000D01*
X123920000Y18812000D01*
G36*
X123920000Y23892000D02*
G01*
X122904000Y23892000D01*
X122904000Y24908000D01*
X123920000Y24908000D01*
X123920000Y23892000D01*
G37*
X123920000Y23892000D02*
X122904000Y23892000D01*
X122904000Y24908000D01*
X123920000Y24908000D01*
X123920000Y23892000D01*
G36*
X135096000Y26432000D02*
G01*
X134080000Y26432000D01*
X134080000Y27448000D01*
X135096000Y27448000D01*
X135096000Y26432000D01*
G37*
X135096000Y26432000D02*
X134080000Y26432000D01*
X134080000Y27448000D01*
X135096000Y27448000D01*
X135096000Y26432000D01*
G36*
X123920000Y28972000D02*
G01*
X122904000Y28972000D01*
X122904000Y29988000D01*
X123920000Y29988000D01*
X123920000Y28972000D01*
G37*
X123920000Y28972000D02*
X122904000Y28972000D01*
X122904000Y29988000D01*
X123920000Y29988000D01*
X123920000Y28972000D01*
G36*
X135096000Y44212000D02*
G01*
X134080000Y44212000D01*
X134080000Y45228000D01*
X135096000Y45228000D01*
X135096000Y44212000D01*
G37*
X135096000Y44212000D02*
X134080000Y44212000D01*
X134080000Y45228000D01*
X135096000Y45228000D01*
X135096000Y44212000D01*
G36*
X135096000Y28972000D02*
G01*
X134080000Y28972000D01*
X134080000Y29988000D01*
X135096000Y29988000D01*
X135096000Y28972000D01*
G37*
X135096000Y28972000D02*
X134080000Y28972000D01*
X134080000Y29988000D01*
X135096000Y29988000D01*
X135096000Y28972000D01*
G36*
X135096000Y31512000D02*
G01*
X134080000Y31512000D01*
X134080000Y32528000D01*
X135096000Y32528000D01*
X135096000Y31512000D01*
G37*
X135096000Y31512000D02*
X134080000Y31512000D01*
X134080000Y32528000D01*
X135096000Y32528000D01*
X135096000Y31512000D01*
G36*
X123920000Y34052000D02*
G01*
X122904000Y34052000D01*
X122904000Y35068000D01*
X123920000Y35068000D01*
X123920000Y34052000D01*
G37*
X123920000Y34052000D02*
X122904000Y34052000D01*
X122904000Y35068000D01*
X123920000Y35068000D01*
X123920000Y34052000D01*
G36*
X135096000Y39132000D02*
G01*
X134080000Y39132000D01*
X134080000Y40148000D01*
X135096000Y40148000D01*
X135096000Y39132000D01*
G37*
X135096000Y39132000D02*
X134080000Y39132000D01*
X134080000Y40148000D01*
X135096000Y40148000D01*
X135096000Y39132000D01*
G36*
X135096000Y21352000D02*
G01*
X134080000Y21352000D01*
X134080000Y22368000D01*
X135096000Y22368000D01*
X135096000Y21352000D01*
G37*
X135096000Y21352000D02*
X134080000Y21352000D01*
X134080000Y22368000D01*
X135096000Y22368000D01*
X135096000Y21352000D01*
%TD*%
D13*
%TO.C,*%
X122000000Y11750000D03*
X122000000Y10250000D03*
%TD*%
D14*
%TO.C,D10*%
X61650000Y-3000000D03*
X58350000Y-3000000D03*
%TD*%
D15*
%TO.C,S24*%
X48500000Y38000000D03*
X59500000Y38000000D03*
D16*
X54000000Y43950000D03*
X49000000Y41750000D03*
D17*
X54000000Y38000000D03*
D16*
X59000000Y41750000D03*
X54000000Y43950000D03*
D18*
X57275000Y43950000D03*
X45725000Y41750000D03*
%TD*%
D17*
%TO.C,S51*%
X126000000Y1000000D03*
D15*
X131500000Y1000000D03*
X120500000Y1000000D03*
D19*
X121000000Y-2800000D03*
X131000000Y-2800000D03*
X126000000Y-4900000D03*
X126000000Y-4900000D03*
%TD*%
D15*
%TO.C,S9*%
X23500000Y17000000D03*
X12500000Y17000000D03*
D17*
X18000000Y17000000D03*
D19*
X13000000Y13200000D03*
X23000000Y13200000D03*
X18000000Y11100000D03*
X18000000Y11100000D03*
%TD*%
D17*
%TO.C,S27*%
X72000000Y22000000D03*
D15*
X66500000Y22000000D03*
X77500000Y22000000D03*
D19*
X67000000Y18200000D03*
X77000000Y18200000D03*
X72000000Y16100000D03*
X72000000Y16100000D03*
%TD*%
D14*
%TO.C,D13*%
X79650000Y-2000000D03*
X76350000Y-2000000D03*
%TD*%
D16*
%TO.C,S44*%
X108540521Y-29042465D03*
D17*
X114000000Y-26000000D03*
D15*
X111762948Y-31024500D03*
D16*
X108564405Y-23579917D03*
X112607888Y-19907010D03*
D15*
X116237052Y-20975500D03*
D16*
X108564405Y-23579917D03*
D20*
X109896467Y-20588056D03*
X107208459Y-32034326D03*
%TD*%
D15*
%TO.C,S15*%
X41500000Y19000000D03*
X30500000Y19000000D03*
D17*
X36000000Y19000000D03*
D19*
X31000000Y15200000D03*
X41000000Y15200000D03*
X36000000Y13100000D03*
X36000000Y13100000D03*
%TD*%
D21*
%TO.C,D25*%
X160171373Y-42374190D03*
X158374065Y-45141802D03*
%TD*%
D14*
%TO.C,D26*%
X133650000Y-6000000D03*
X130350000Y-6000000D03*
%TD*%
D17*
%TO.C,S42*%
X108000000Y36000000D03*
D16*
X103000000Y39750000D03*
X108000000Y41950000D03*
X108000000Y41950000D03*
X113000000Y39750000D03*
D15*
X102500000Y36000000D03*
X113500000Y36000000D03*
D18*
X111275000Y41950000D03*
X99725000Y39750000D03*
%TD*%
D17*
%TO.C,S47*%
X139545310Y-21226217D03*
D15*
X134689098Y-18644123D03*
X144401522Y-23808311D03*
D19*
X142176056Y-26928776D03*
X133346580Y-22234060D03*
X136775428Y-26435608D03*
X136775428Y-26435608D03*
%TD*%
D14*
%TO.C,D2*%
X7650000Y10000000D03*
X4350000Y10000000D03*
%TD*%
D16*
%TO.C,S26*%
X72000000Y10950000D03*
D15*
X77500000Y5000000D03*
D16*
X67000000Y8750000D03*
D15*
X66500000Y5000000D03*
D16*
X72000000Y10950000D03*
D17*
X72000000Y5000000D03*
D16*
X77000000Y8750000D03*
D18*
X75275000Y10950000D03*
X63725000Y8750000D03*
%TD*%
D15*
%TO.C,S8*%
X23500000Y0D03*
D16*
X23000000Y3750000D03*
D15*
X12500000Y0D03*
D16*
X18000000Y5950000D03*
X13000000Y3750000D03*
X18000000Y5950000D03*
D17*
X18000000Y0D03*
D18*
X21275000Y5950000D03*
X9725000Y3750000D03*
%TD*%
D14*
%TO.C,D21*%
X115650000Y29000000D03*
X112350000Y29000000D03*
%TD*%
%TO.C,D14*%
X79650000Y15000000D03*
X76350000Y15000000D03*
%TD*%
D16*
%TO.C,S18*%
X31000000Y39750000D03*
D15*
X41500000Y36000000D03*
D17*
X36000000Y36000000D03*
D15*
X30500000Y36000000D03*
D16*
X41000000Y39750000D03*
X36000000Y41950000D03*
X36000000Y41950000D03*
D18*
X39275000Y41950000D03*
X27725000Y39750000D03*
%TD*%
D15*
%TO.C,S39*%
X113500000Y19000000D03*
D17*
X108000000Y19000000D03*
D15*
X102500000Y19000000D03*
D19*
X103000000Y15200000D03*
X113000000Y15200000D03*
X108000000Y13100000D03*
X108000000Y13100000D03*
%TD*%
D17*
%TO.C,S3*%
X0Y17000000D03*
D15*
X-5500000Y17000000D03*
X5500000Y17000000D03*
D19*
X5000000Y13200000D03*
X-5000000Y13200000D03*
X0Y11100000D03*
X0Y11100000D03*
%TD*%
D17*
%TO.C,S53*%
X70000000Y-20000000D03*
D15*
X64513398Y-19616339D03*
X75486602Y-20383661D03*
D19*
X64747105Y-23441961D03*
X74722746Y-24139526D03*
X69588437Y-25885628D03*
X69588437Y-25885628D03*
%TD*%
D15*
%TO.C,S23*%
X48500000Y38000000D03*
D17*
X54000000Y38000000D03*
D15*
X59500000Y38000000D03*
D19*
X49000000Y34200000D03*
X59000000Y34200000D03*
X54000000Y32100000D03*
X54000000Y32100000D03*
%TD*%
D14*
%TO.C,D3*%
X7650000Y27000000D03*
X4350000Y27000000D03*
%TD*%
D22*
%TO.C,D23*%
X133624127Y-48657260D03*
X130710399Y-47108004D03*
%TD*%
D15*
%TO.C,S35*%
X84500000Y37000000D03*
D17*
X90000000Y37000000D03*
D15*
X95500000Y37000000D03*
D19*
X85000000Y33200000D03*
X95000000Y33200000D03*
X90000000Y31100000D03*
X90000000Y31100000D03*
%TD*%
D15*
%TO.C,S33*%
X84500000Y20000000D03*
D17*
X90000000Y20000000D03*
D15*
X95500000Y20000000D03*
D19*
X95000000Y16200000D03*
X85000000Y16200000D03*
X90000000Y14100000D03*
X90000000Y14100000D03*
%TD*%
D16*
%TO.C,S48*%
X145720566Y-20262521D03*
X136891090Y-15567806D03*
D17*
X139545310Y-21226217D03*
D15*
X144401522Y-23808311D03*
D16*
X142338666Y-15972679D03*
D15*
X134689098Y-18644123D03*
D16*
X142338666Y-15972679D03*
D23*
X145230319Y-17510198D03*
X133999437Y-14030286D03*
%TD*%
D14*
%TO.C,D8*%
X43650000Y12000000D03*
X40350000Y12000000D03*
%TD*%
D17*
%TO.C,S19*%
X54000000Y4000000D03*
D15*
X48500000Y4000000D03*
X59500000Y4000000D03*
D19*
X59000000Y200000D03*
X49000000Y200000D03*
X54000000Y-1900000D03*
X54000000Y-1900000D03*
%TD*%
D14*
%TO.C,D9*%
X43650000Y29000000D03*
X40350000Y29000000D03*
%TD*%
D22*
%TO.C,D24*%
X143013559Y-30998308D03*
X140099831Y-29449052D03*
%TD*%
D15*
%TO.C,S55*%
X86151965Y-22116050D03*
X96848035Y-24683950D03*
D17*
X91500000Y-23400000D03*
D19*
X85751058Y-25927779D03*
X95474757Y-28262233D03*
X90122672Y-29136983D03*
X90122672Y-29136983D03*
%TD*%
D15*
%TO.C,S45*%
X125299667Y-36303075D03*
D17*
X130155879Y-38885169D03*
D15*
X135012091Y-41467263D03*
D19*
X123957149Y-39893012D03*
X132786625Y-44587728D03*
X127385997Y-44094560D03*
X127385997Y-44094560D03*
%TD*%
D16*
%TO.C,S20*%
X49000000Y7750000D03*
D15*
X59500000Y4000000D03*
D17*
X54000000Y4000000D03*
D16*
X54000000Y9950000D03*
X54000000Y9950000D03*
D15*
X48500000Y4000000D03*
D16*
X59000000Y7750000D03*
D18*
X57275000Y9950000D03*
X45725000Y7750000D03*
%TD*%
D16*
%TO.C,S4*%
X-5000000Y20750000D03*
D17*
X0Y17000000D03*
D16*
X0Y22950000D03*
X0Y22950000D03*
D15*
X5500000Y17000000D03*
X-5500000Y17000000D03*
D16*
X5000000Y20750000D03*
D18*
X3275000Y22950000D03*
X-8275000Y20750000D03*
%TD*%
D14*
%TO.C,D5*%
X25650000Y10000000D03*
X22350000Y10000000D03*
%TD*%
D16*
%TO.C,S12*%
X23000000Y37750000D03*
X18000000Y39950000D03*
D15*
X23500000Y34000000D03*
X12500000Y34000000D03*
D16*
X13000000Y37750000D03*
D17*
X18000000Y34000000D03*
D16*
X18000000Y39950000D03*
D18*
X21275000Y39950000D03*
X9725000Y37750000D03*
%TD*%
D16*
%TO.C,S50*%
X144265981Y-47128502D03*
D17*
X150134191Y-44977546D03*
D16*
X145144101Y-41736944D03*
D15*
X153129706Y-40364858D03*
D16*
X145144101Y-41736944D03*
D15*
X147138676Y-49590234D03*
D16*
X149712372Y-38741797D03*
D24*
X146927794Y-38990298D03*
X142482288Y-49875149D03*
%TD*%
D25*
%TO.C,*%
X117700000Y46000000D03*
X114300000Y46000000D03*
%TD*%
D14*
%TO.C,D7*%
X43650000Y-5000000D03*
X40350000Y-5000000D03*
%TD*%
D15*
%TO.C,S5*%
X5500000Y34000000D03*
D17*
X0Y34000000D03*
D15*
X-5500000Y34000000D03*
D19*
X5000000Y30200000D03*
X-5000000Y30200000D03*
X0Y28100000D03*
X0Y28100000D03*
%TD*%
D15*
%TO.C,S21*%
X59500000Y21000000D03*
D17*
X54000000Y21000000D03*
D15*
X48500000Y21000000D03*
D19*
X59000000Y17200000D03*
X49000000Y17200000D03*
X54000000Y15100000D03*
X54000000Y15100000D03*
%TD*%
D14*
%TO.C,D16*%
X97650000Y-4000000D03*
X94350000Y-4000000D03*
%TD*%
D15*
%TO.C,S13*%
X30500000Y2000000D03*
X41500000Y2000000D03*
D17*
X36000000Y2000000D03*
D19*
X31000000Y-1800000D03*
X41000000Y-1800000D03*
X36000000Y-3900000D03*
X36000000Y-3900000D03*
%TD*%
D16*
%TO.C,S14*%
X41000000Y5750000D03*
D15*
X30500000Y2000000D03*
D17*
X36000000Y2000000D03*
D16*
X31000000Y5750000D03*
X36000000Y7950000D03*
D15*
X41500000Y2000000D03*
D16*
X36000000Y7950000D03*
D18*
X39275000Y7950000D03*
X27725000Y5750000D03*
%TD*%
D16*
%TO.C,S10*%
X23000000Y20750000D03*
X13000000Y20750000D03*
D15*
X23500000Y17000000D03*
D17*
X18000000Y17000000D03*
D15*
X12500000Y17000000D03*
D16*
X18000000Y22950000D03*
X18000000Y22950000D03*
D18*
X21275000Y22950000D03*
X9725000Y20750000D03*
%TD*%
D15*
%TO.C,S2*%
X5500000Y0D03*
D16*
X0Y5950000D03*
X-5000000Y3750000D03*
X5000000Y3750000D03*
X0Y5950000D03*
D15*
X-5500000Y0D03*
D17*
X0Y0D03*
D18*
X3275000Y5950000D03*
X-8275000Y3750000D03*
%TD*%
D15*
%TO.C,S34*%
X95500000Y20000000D03*
D16*
X95000000Y23750000D03*
D15*
X84500000Y20000000D03*
D16*
X90000000Y25950000D03*
X85000000Y23750000D03*
X90000000Y25950000D03*
D17*
X90000000Y20000000D03*
D18*
X93275000Y25950000D03*
X81725000Y23750000D03*
%TD*%
D16*
%TO.C,S56*%
X92889000Y-17614399D03*
D15*
X86151965Y-22116050D03*
D16*
X92889000Y-17614399D03*
X97237270Y-20920840D03*
D15*
X96848035Y-24683950D03*
D17*
X91500000Y-23400000D03*
D16*
X87513571Y-18586386D03*
D26*
X96073511Y-18378933D03*
X84329059Y-17821852D03*
%TD*%
D15*
%TO.C,S49*%
X153129706Y-40364858D03*
X147138676Y-49590234D03*
D17*
X150134191Y-44977546D03*
D19*
X150597944Y-51240527D03*
X156044334Y-42853821D03*
X155082347Y-48190916D03*
X155082347Y-48190916D03*
%TD*%
D17*
%TO.C,S38*%
X108000000Y2000000D03*
D16*
X103000000Y5750000D03*
X113000000Y5750000D03*
X108000000Y7950000D03*
X108000000Y7950000D03*
D15*
X113500000Y2000000D03*
X102500000Y2000000D03*
D18*
X111275000Y7950000D03*
X99725000Y5750000D03*
%TD*%
D14*
%TO.C,D6*%
X25650000Y27000000D03*
X22350000Y27000000D03*
%TD*%
D17*
%TO.C,S28*%
X72000000Y22000000D03*
D15*
X77500000Y22000000D03*
D16*
X72000000Y27950000D03*
X67000000Y25750000D03*
X77000000Y25750000D03*
X72000000Y27950000D03*
D15*
X66500000Y22000000D03*
D18*
X75275000Y27950000D03*
X63725000Y25750000D03*
%TD*%
D15*
%TO.C,S7*%
X12500000Y0D03*
D17*
X18000000Y0D03*
D15*
X23500000Y0D03*
D19*
X13000000Y-3800000D03*
X23000000Y-3800000D03*
X18000000Y-5900000D03*
X18000000Y-5900000D03*
%TD*%
D14*
%TO.C,D19*%
X115650000Y-5000000D03*
X112350000Y-5000000D03*
%TD*%
D27*
%TO.C,MCU1*%
X134842000Y42180000D03*
D28*
X136620000Y44720000D03*
X121380000Y34560000D03*
X136620000Y16780000D03*
X136620000Y19320000D03*
D29*
X123158000Y19320000D03*
X123158000Y44720000D03*
X123158000Y37100000D03*
X123158000Y21860000D03*
X123158000Y29480000D03*
D28*
X136620000Y24400000D03*
D27*
X134842000Y32020000D03*
D28*
X136620000Y26940000D03*
X136620000Y42180000D03*
X136620000Y34560000D03*
X136620000Y39640000D03*
X121380000Y29480000D03*
D29*
X123158000Y32020000D03*
D28*
X121380000Y39640000D03*
D27*
X134842000Y37100000D03*
X134842000Y44720000D03*
X134842000Y34560000D03*
D28*
X121380000Y19320000D03*
D27*
X134842000Y24400000D03*
X134842000Y39640000D03*
X134842000Y29480000D03*
D28*
X121380000Y32020000D03*
X121380000Y42180000D03*
X121380000Y16780000D03*
D27*
X134842000Y21860000D03*
D28*
X121380000Y44720000D03*
X121380000Y21860000D03*
D27*
X134842000Y19320000D03*
D30*
X121380000Y44720000D03*
D28*
X136620000Y21860000D03*
X121380000Y24400000D03*
X136620000Y32020000D03*
D27*
X134842000Y16780000D03*
D28*
X121380000Y37100000D03*
X121380000Y26940000D03*
D29*
X123158000Y42180000D03*
X123158000Y26940000D03*
X123158000Y24400000D03*
D27*
X134842000Y26940000D03*
D28*
X136620000Y29480000D03*
D29*
X123158000Y39640000D03*
D28*
X136620000Y37100000D03*
D29*
X123158000Y16780000D03*
X123158000Y34560000D03*
D31*
X133826000Y44720000D03*
X133826000Y42180000D03*
X133826000Y39640000D03*
X133826000Y37100000D03*
X133826000Y34560000D03*
X133826000Y32020000D03*
X133826000Y29480000D03*
X133826000Y26940000D03*
X133826000Y24400000D03*
X133826000Y21860000D03*
X133826000Y19320000D03*
X133826000Y16780000D03*
D32*
X124174000Y16780000D03*
X124174000Y19320000D03*
X124174000Y21860000D03*
X124174000Y24400000D03*
X124174000Y26940000D03*
X124174000Y29480000D03*
X124174000Y32020000D03*
X124174000Y34560000D03*
X124174000Y37100000D03*
X124174000Y39640000D03*
X124174000Y42180000D03*
X124174000Y44720000D03*
%TD*%
D17*
%TO.C,S11*%
X18000000Y34000000D03*
D15*
X12500000Y34000000D03*
X23500000Y34000000D03*
D19*
X13000000Y30200000D03*
X23000000Y30200000D03*
X18000000Y28100000D03*
X18000000Y28100000D03*
%TD*%
D16*
%TO.C,S36*%
X95000000Y40750000D03*
X85000000Y40750000D03*
D15*
X95500000Y37000000D03*
D16*
X90000000Y42950000D03*
X90000000Y42950000D03*
D17*
X90000000Y37000000D03*
D15*
X84500000Y37000000D03*
D18*
X93275000Y42950000D03*
X81725000Y40750000D03*
%TD*%
D14*
%TO.C,D1*%
X7650000Y-7000000D03*
X4350000Y-7000000D03*
%TD*%
%TO.C,D17*%
X97650000Y13000000D03*
X94350000Y13000000D03*
%TD*%
%TO.C,D15*%
X79650000Y32000000D03*
X76350000Y32000000D03*
%TD*%
D16*
%TO.C,S54*%
X75249407Y-16607917D03*
D17*
X70000000Y-20000000D03*
D16*
X70415051Y-14064494D03*
X70415051Y-14064494D03*
D15*
X64513398Y-19616339D03*
X75486602Y-20383661D03*
D16*
X65273767Y-15910352D03*
D33*
X73682073Y-14292946D03*
X62006744Y-15681900D03*
%TD*%
D34*
%TO.C,*%
X141035788Y-6634038D03*
X139535788Y-4035962D03*
D35*
X141149500Y-9050993D03*
D34*
X141035788Y-6634038D03*
D35*
X137499500Y-2729007D03*
X139413416Y-1624007D03*
X143063416Y-7945993D03*
D34*
X139535788Y-4035962D03*
D36*
X139886584Y-8163557D03*
X138386584Y-5565481D03*
X137636584Y-4266443D03*
%TD*%
D15*
%TO.C,S6*%
X5500000Y34000000D03*
D16*
X0Y39950000D03*
D17*
X0Y34000000D03*
D16*
X0Y39950000D03*
X5000000Y37750000D03*
D15*
X-5500000Y34000000D03*
D16*
X-5000000Y37750000D03*
D18*
X3275000Y39950000D03*
X-8275000Y37750000D03*
%TD*%
D37*
%TO.C,D28*%
X97304512Y-31992447D03*
X94095692Y-31222077D03*
%TD*%
D14*
%TO.C,D4*%
X25650000Y-7000000D03*
X22350000Y-7000000D03*
%TD*%
D15*
%TO.C,S1*%
X-5500000Y0D03*
D17*
X0Y0D03*
D15*
X5500000Y0D03*
D19*
X5000000Y-3800000D03*
X-5000000Y-3800000D03*
X0Y-5900000D03*
X0Y-5900000D03*
%TD*%
D15*
%TO.C,S31*%
X95500000Y3000000D03*
X84500000Y3000000D03*
D17*
X90000000Y3000000D03*
D19*
X85000000Y-800000D03*
X95000000Y-800000D03*
X90000000Y-2900000D03*
X90000000Y-2900000D03*
%TD*%
D17*
%TO.C,S37*%
X108000000Y2000000D03*
D15*
X102500000Y2000000D03*
X113500000Y2000000D03*
D19*
X103000000Y-1800000D03*
X113000000Y-1800000D03*
X108000000Y-3900000D03*
X108000000Y-3900000D03*
%TD*%
D17*
%TO.C,S22*%
X54000000Y21000000D03*
D16*
X54000000Y26950000D03*
X59000000Y24750000D03*
X49000000Y24750000D03*
X54000000Y26950000D03*
D15*
X59500000Y21000000D03*
X48500000Y21000000D03*
D18*
X57275000Y26950000D03*
X45725000Y24750000D03*
%TD*%
D16*
%TO.C,S40*%
X113000000Y22750000D03*
D15*
X113500000Y19000000D03*
X102500000Y19000000D03*
D16*
X103000000Y22750000D03*
X108000000Y24950000D03*
D17*
X108000000Y19000000D03*
D16*
X108000000Y24950000D03*
D18*
X111275000Y24950000D03*
X99725000Y22750000D03*
%TD*%
D16*
%TO.C,S46*%
X136331135Y-37921473D03*
D15*
X135012091Y-41467263D03*
D17*
X130155879Y-38885169D03*
D15*
X125299667Y-36303075D03*
D16*
X132949235Y-33631631D03*
X127501659Y-33226758D03*
X132949235Y-33631631D03*
D23*
X135840888Y-35169150D03*
X124610006Y-31689238D03*
%TD*%
D38*
%TO.C,D22*%
X123506353Y-21858534D03*
X122164123Y-24873234D03*
%TD*%
D15*
%TO.C,S41*%
X102500000Y36000000D03*
X113500000Y36000000D03*
D17*
X108000000Y36000000D03*
D19*
X113000000Y32200000D03*
X103000000Y32200000D03*
X108000000Y30100000D03*
X108000000Y30100000D03*
%TD*%
D17*
%TO.C,S43*%
X114000000Y-26000000D03*
D15*
X116237052Y-20975500D03*
X111762948Y-31024500D03*
D19*
X119505156Y-22977872D03*
X115437790Y-32113327D03*
X119389918Y-28399746D03*
X119389918Y-28399746D03*
%TD*%
D39*
%TO.C,D27*%
X77143070Y-27516585D03*
X73851108Y-27286389D03*
%TD*%
D15*
%TO.C,S29*%
X66500000Y39000000D03*
D17*
X72000000Y39000000D03*
D15*
X77500000Y39000000D03*
D19*
X67000000Y35200000D03*
X77000000Y35200000D03*
X72000000Y33100000D03*
X72000000Y33100000D03*
%TD*%
D14*
%TO.C,D12*%
X61650000Y31000000D03*
X58350000Y31000000D03*
%TD*%
D15*
%TO.C,S25*%
X66500000Y5000000D03*
D17*
X72000000Y5000000D03*
D15*
X77500000Y5000000D03*
D19*
X77000000Y1200000D03*
X67000000Y1200000D03*
X72000000Y-900000D03*
X72000000Y-900000D03*
%TD*%
D17*
%TO.C,S17*%
X36000000Y36000000D03*
D15*
X30500000Y36000000D03*
X41500000Y36000000D03*
D19*
X31000000Y32200000D03*
X41000000Y32200000D03*
X36000000Y30100000D03*
X36000000Y30100000D03*
%TD*%
D14*
%TO.C,D20*%
X115650000Y12000000D03*
X112350000Y12000000D03*
%TD*%
D16*
%TO.C,S32*%
X95000000Y6750000D03*
D17*
X90000000Y3000000D03*
D15*
X84500000Y3000000D03*
D16*
X90000000Y8950000D03*
X85000000Y6750000D03*
D15*
X95500000Y3000000D03*
D16*
X90000000Y8950000D03*
D18*
X93275000Y8950000D03*
X81725000Y6750000D03*
%TD*%
D14*
%TO.C,D18*%
X97650000Y30000000D03*
X94350000Y30000000D03*
%TD*%
D16*
%TO.C,S52*%
X126000000Y6950000D03*
X126000000Y6950000D03*
D17*
X126000000Y1000000D03*
D15*
X120500000Y1000000D03*
D16*
X131000000Y4750000D03*
X121000000Y4750000D03*
D15*
X131500000Y1000000D03*
D18*
X129275000Y6950000D03*
X117725000Y4750000D03*
%TD*%
D15*
%TO.C,S16*%
X41500000Y19000000D03*
D16*
X41000000Y22750000D03*
X31000000Y22750000D03*
D17*
X36000000Y19000000D03*
D15*
X30500000Y19000000D03*
D16*
X36000000Y24950000D03*
X36000000Y24950000D03*
D18*
X39275000Y24950000D03*
X27725000Y22750000D03*
%TD*%
D14*
%TO.C,D11*%
X61650000Y14000000D03*
X58350000Y14000000D03*
%TD*%
D16*
%TO.C,S30*%
X67000000Y42750000D03*
X77000000Y42750000D03*
X72000000Y44950000D03*
D15*
X77500000Y39000000D03*
D16*
X72000000Y44950000D03*
D15*
X66500000Y39000000D03*
D17*
X72000000Y39000000D03*
D18*
X75275000Y44950000D03*
X63725000Y42750000D03*
%TD*%
M02*
