M48
; DRILL file {KiCad 6.0.7} date Wed 14 Sep 2022 10:19:10 PM EDT
; FORMAT={-:-/ absolute / inch / decimal}
; #@! TF.CreationDate,2022-09-14T22:19:10-04:00
; #@! TF.GenerationSoftware,Kicad,Pcbnew,6.0.7
; #@! TF.FileFunction,NonPlated,1,2,NPTH
FMAT,2
INCH
; #@! TA.AperFunction,NonPlated,NPTH,ComponentDrill
T1C0.0354
; #@! TA.AperFunction,NonPlated,NPTH,ComponentDrill
T2C0.0670
; #@! TA.AperFunction,NonPlated,NPTH,ComponentDrill
T3C0.1181
; #@! TA.AperFunction,NonPlated,NPTH,ComponentDrill
T4C0.1350
%
G90
G05
T1
X5.4935Y-0.1589
X5.4935Y-0.1589
X5.5526Y-0.2612
X5.5526Y-0.2612
T2
X-0.2165Y1.3386
X-0.2165Y1.3386
X-0.2165Y0.6693
X-0.2165Y0.6693
X-0.2165Y0.0
X-0.2165Y0.0
X0.2165Y1.3386
X0.2165Y1.3386
X0.2165Y0.6693
X0.2165Y0.6693
X0.2165Y0.0
X0.2165Y0.0
X0.4921Y1.3386
X0.4921Y1.3386
X0.4921Y0.6693
X0.4921Y0.6693
X0.4921Y0.0
X0.4921Y0.0
X0.9252Y1.3386
X0.9252Y1.3386
X0.9252Y0.6693
X0.9252Y0.6693
X0.9252Y0.0
X0.9252Y0.0
X1.2008Y1.4173
X1.2008Y1.4173
X1.2008Y0.748
X1.2008Y0.748
X1.2008Y0.0787
X1.2008Y0.0787
X1.6339Y1.4173
X1.6339Y1.4173
X1.6339Y0.748
X1.6339Y0.748
X1.6339Y0.0787
X1.6339Y0.0787
X1.9094Y1.4961
X1.9094Y1.4961
X1.9094Y0.8268
X1.9094Y0.8268
X1.9094Y0.1575
X1.9094Y0.1575
X2.3425Y1.4961
X2.3425Y1.4961
X2.3425Y0.8268
X2.3425Y0.8268
X2.3425Y0.1575
X2.3425Y0.1575
X2.5399Y-0.7723
X2.5399Y-0.7723
X2.6181Y1.5354
X2.6181Y1.5354
X2.6181Y0.8661
X2.6181Y0.8661
X2.6181Y0.1969
X2.6181Y0.1969
X2.9719Y-0.8025
X2.9719Y-0.8025
X3.0512Y1.5354
X3.0512Y1.5354
X3.0512Y0.8661
X3.0512Y0.8661
X3.0512Y0.1969
X3.0512Y0.1969
X3.3268Y1.4567
X3.3268Y1.4567
X3.3268Y0.7874
X3.3268Y0.7874
X3.3268Y0.1181
X3.3268Y0.1181
X3.3918Y-0.8707
X3.3918Y-0.8707
X3.7598Y1.4567
X3.7598Y1.4567
X3.7598Y0.7874
X3.7598Y0.7874
X3.7598Y0.1181
X3.7598Y0.1181
X3.8129Y-0.9718
X3.8129Y-0.9718
X4.0354Y1.4173
X4.0354Y1.4173
X4.0354Y0.748
X4.0354Y0.748
X4.0354Y0.0787
X4.0354Y0.0787
X4.4001Y-1.2214
X4.4001Y-1.2214
X4.4685Y1.4173
X4.4685Y1.4173
X4.4685Y0.748
X4.4685Y0.748
X4.4685Y0.0787
X4.4685Y0.0787
X4.5763Y-0.8258
X4.5763Y-0.8258
X4.7441Y0.0394
X4.7441Y0.0394
X4.9331Y-1.4293
X4.9331Y-1.4293
X5.1772Y0.0394
X5.1772Y0.0394
X5.3027Y-0.734
X5.3027Y-0.734
X5.3154Y-1.6326
X5.3154Y-1.6326
X5.6851Y-0.9373
X5.6851Y-0.9373
X5.7929Y-1.9524
X5.7929Y-1.9524
X6.0287Y-1.5892
X6.0287Y-1.5892
T3
X-0.1969Y1.4862
X-0.1969Y0.8169
X-0.1969Y0.1476
X0.0Y1.5728
X0.0Y1.5728
X0.0Y0.9035
X0.0Y0.9035
X0.0Y0.2343
X0.0Y0.2343
X0.1969Y1.4862
X0.1969Y0.8169
X0.1969Y0.1476
X0.5118Y1.4862
X0.5118Y0.8169
X0.5118Y0.1476
X0.7087Y1.5728
X0.7087Y1.5728
X0.7087Y0.9035
X0.7087Y0.9035
X0.7087Y0.2343
X0.7087Y0.2343
X0.9055Y1.4862
X0.9055Y0.8169
X0.9055Y0.1476
X1.2205Y1.565
X1.2205Y0.8957
X1.2205Y0.2264
X1.4173Y1.6516
X1.4173Y1.6516
X1.4173Y0.9823
X1.4173Y0.9823
X1.4173Y0.313
X1.4173Y0.313
X1.6142Y1.565
X1.6142Y0.8957
X1.6142Y0.2264
X1.9291Y1.6437
X1.9291Y0.9744
X1.9291Y0.3051
X2.126Y1.7303
X2.126Y1.7303
X2.126Y1.061
X2.126Y1.061
X2.126Y0.3917
X2.126Y0.3917
X2.3228Y1.6437
X2.3228Y0.9744
X2.3228Y0.3051
X2.5698Y-0.6264
X2.6378Y1.6831
X2.6378Y1.0138
X2.6378Y0.3445
X2.7722Y-0.5537
X2.7722Y-0.5537
X2.8346Y1.7697
X2.8346Y1.7697
X2.8346Y1.1004
X2.8346Y1.1004
X2.8346Y0.4311
X2.8346Y0.4311
X2.9626Y-0.6539
X3.0315Y1.6831
X3.0315Y1.0138
X3.0315Y0.3445
X3.3465Y1.6043
X3.3465Y0.935
X3.3465Y0.2657
X3.4454Y-0.7317
X3.5433Y1.6909
X3.5433Y1.6909
X3.5433Y1.0217
X3.5433Y1.0217
X3.5433Y0.3524
X3.5433Y0.3524
X3.657Y-0.6935
X3.657Y-0.6935
X3.7402Y1.6043
X3.7402Y0.935
X3.7402Y0.2657
X3.8282Y-0.8237
X4.0551Y1.565
X4.0551Y0.8957
X4.0551Y0.2264
X4.252Y1.6516
X4.252Y1.6516
X4.252Y0.9823
X4.252Y0.9823
X4.252Y0.313
X4.252Y0.313
X4.2732Y-1.1434
X4.2742Y-0.9283
X4.2742Y-0.9283
X4.4334Y-0.7837
X4.4488Y1.565
X4.4488Y0.8957
X4.4488Y0.2264
X4.7638Y0.187
X4.9606Y0.2736
X4.9606Y0.2736
X5.0198Y-1.3081
X5.1575Y0.187
X5.2342Y-1.3241
X5.2342Y-1.3241
X5.3674Y-1.493
X5.3894Y-0.6129
X5.6039Y-0.6288
X5.6039Y-0.6288
X5.6798Y-1.8555
X5.7143Y-1.6432
X5.7143Y-1.6432
X5.737Y-0.7977
X5.8942Y-1.5253
T4
X0.0Y1.3386
X0.0Y1.3386
X0.0Y0.6693
X0.0Y0.6693
X0.0Y0.0
X0.0Y0.0
X0.7087Y1.3386
X0.7087Y1.3386
X0.7087Y0.6693
X0.7087Y0.6693
X0.7087Y0.0
X0.7087Y0.0
X1.4173Y1.4173
X1.4173Y1.4173
X1.4173Y0.748
X1.4173Y0.748
X1.4173Y0.0787
X1.4173Y0.0787
X2.126Y1.4961
X2.126Y1.4961
X2.126Y0.8268
X2.126Y0.8268
X2.126Y0.1575
X2.126Y0.1575
X2.7559Y-0.7874
X2.7559Y-0.7874
X2.8346Y1.5354
X2.8346Y1.5354
X2.8346Y0.8661
X2.8346Y0.8661
X2.8346Y0.1969
X2.8346Y0.1969
X3.5433Y1.4567
X3.5433Y1.4567
X3.5433Y0.7874
X3.5433Y0.7874
X3.5433Y0.1181
X3.5433Y0.1181
X3.6024Y-0.9213
X3.6024Y-0.9213
X4.252Y1.4173
X4.252Y1.4173
X4.252Y0.748
X4.252Y0.748
X4.252Y0.0787
X4.252Y0.0787
X4.4882Y-1.0236
X4.4882Y-1.0236
X4.9606Y0.0394
X4.9606Y0.0394
X5.1242Y-1.5309
X5.1242Y-1.5309
X5.4939Y-0.8357
X5.4939Y-0.8357
X5.9108Y-1.7708
X5.9108Y-1.7708
T0
M30
