M48
; DRILL file {KiCad 6.0.7} date Wed 14 Sep 2022 10:19:10 PM EDT
; FORMAT={-:-/ absolute / inch / decimal}
; #@! TF.CreationDate,2022-09-14T22:19:10-04:00
; #@! TF.GenerationSoftware,Kicad,Pcbnew,6.0.7
; #@! TF.FileFunction,Plated,1,2,PTH
FMAT,2
INCH
; #@! TA.AperFunction,Plated,PTH,ComponentDrill
T1C0.0118
; #@! TA.AperFunction,Plated,PTH,ComponentDrill
T2C0.0157
; #@! TA.AperFunction,Plated,PTH,ComponentDrill
T3C0.0276
; #@! TA.AperFunction,Plated,PTH,ComponentDrill
T4C0.0433
; #@! TA.AperFunction,Plated,PTH,ComponentDrill
T5C0.0500
%
G90
G05
T1
X0.315Y1.122
X0.315Y0.4528
X0.315Y-0.2165
X1.0236Y1.122
X1.0236Y0.4528
X1.0236Y-0.2165
X1.7323Y1.2008
X1.7323Y0.5315
X1.7323Y-0.1378
X2.4409Y1.2795
X2.4409Y0.6102
X2.4409Y-0.0591
X3.055Y-1.0254
X3.1496Y1.3189
X3.1496Y0.6496
X3.1496Y-0.0197
X3.8581Y-1.2053
X3.8583Y1.2402
X3.8583Y0.5709
X3.8583Y-0.0984
X4.5669Y1.2008
X4.5669Y0.5315
X4.5669Y-0.1378
X4.8141Y-0.824
X5.2756Y-0.1772
X5.3007Y-1.87
X5.6703Y-1.1747
X6.2639Y-1.6246
T2
X5.0487Y1.7606
X5.0487Y1.6606
X5.0487Y1.5606
X5.0487Y1.4606
X5.0487Y1.3606
X5.0487Y1.2606
X5.0487Y1.1606
X5.0487Y1.0606
X5.0487Y0.9606
X5.0487Y0.8606
X5.0487Y0.7606
X5.0487Y0.6606
X5.1087Y1.7606
X5.1087Y1.6606
X5.1087Y1.5606
X5.1087Y1.4606
X5.1087Y1.3606
X5.1087Y1.2606
X5.1087Y1.1606
X5.1087Y1.0606
X5.1087Y0.9606
X5.1087Y0.8606
X5.1087Y0.7606
X5.1087Y0.6606
T3
X4.8031Y0.4626
X4.8031Y0.4035
T4
X4.7787Y1.7606
X4.7787Y1.7606
X4.7787Y1.6606
X4.7787Y1.5606
X4.7787Y1.4606
X4.7787Y1.3606
X4.7787Y1.2606
X4.7787Y1.1606
X4.7787Y1.0606
X4.7787Y0.9606
X4.7787Y0.8606
X4.7787Y0.7606
X4.7787Y0.6606
X5.3787Y1.7606
X5.3787Y1.7606
X5.3787Y1.6606
X5.3787Y1.5606
X5.3787Y1.4606
X5.3787Y1.3606
X5.3787Y1.2606
X5.3787Y1.1606
X5.3787Y1.0606
X5.3787Y0.9606
X5.3787Y0.8606
X5.3787Y0.7606
X5.3787Y0.6606
T5
X-0.1969Y1.189
X-0.1969Y0.5197
X-0.1969Y-0.1496
X0.0Y1.1063
X0.0Y1.1063
X0.0Y0.437
X0.0Y0.437
X0.0Y-0.2323
X0.0Y-0.2323
X0.1969Y1.189
X0.1969Y0.5197
X0.1969Y-0.1496
X0.5118Y1.189
X0.5118Y0.5197
X0.5118Y-0.1496
X0.7087Y1.1063
X0.7087Y1.1063
X0.7087Y0.437
X0.7087Y0.437
X0.7087Y-0.2323
X0.7087Y-0.2323
X0.9055Y1.189
X0.9055Y0.5197
X0.9055Y-0.1496
X1.2205Y1.2677
X1.2205Y0.5984
X1.2205Y-0.0709
X1.4173Y1.185
X1.4173Y1.185
X1.4173Y0.5157
X1.4173Y0.5157
X1.4173Y-0.1535
X1.4173Y-0.1535
X1.6142Y1.2677
X1.6142Y0.5984
X1.6142Y-0.0709
X1.9291Y1.3465
X1.9291Y0.6772
X1.9291Y0.0079
X2.126Y1.2638
X2.126Y1.2638
X2.126Y0.5945
X2.126Y0.5945
X2.126Y-0.0748
X2.126Y-0.0748
X2.3228Y1.3465
X2.3228Y0.6772
X2.3228Y0.0079
X2.5491Y-0.9229
X2.6378Y1.3858
X2.6378Y0.7165
X2.6378Y0.0472
X2.7397Y-1.0191
X2.7397Y-1.0191
X2.8346Y1.3031
X2.8346Y1.3031
X2.8346Y0.6339
X2.8346Y0.6339
X2.8346Y-0.0354
X2.8346Y-0.0354
X2.9418Y-0.9504
X3.0315Y1.3858
X3.0315Y0.7165
X3.0315Y0.0472
X3.3465Y1.3071
X3.3465Y0.6378
X3.3465Y-0.0315
X3.376Y-1.0208
X3.5433Y1.2244
X3.5433Y1.2244
X3.5433Y0.5551
X3.5433Y0.5551
X3.5433Y-0.1142
X3.5433Y-0.1142
X3.5481Y-1.1471
X3.5481Y-1.1471
X3.7402Y1.3071
X3.7402Y0.6378
X3.7402Y-0.0315
X3.7588Y-1.1127
X4.0551Y1.2677
X4.0551Y0.5984
X4.0551Y-0.0709
X4.252Y1.185
X4.252Y1.185
X4.252Y0.5157
X4.252Y0.5157
X4.252Y-0.1535
X4.252Y-0.1535
X4.4488Y1.2677
X4.4488Y0.5984
X4.4488Y-0.0709
X4.5448Y-1.2643
X4.7004Y-1.1181
X4.7004Y-1.1181
X4.7049Y-0.9046
X4.7638Y-0.1102
X4.8802Y-1.5706
X4.9606Y-0.1929
X4.9606Y-0.1929
X5.0152Y-1.736
X5.0152Y-1.736
X5.1575Y-0.1102
X5.2278Y-1.7554
X5.2499Y-0.8754
X5.3849Y-1.0408
X5.3849Y-1.0408
X5.5975Y-1.0602
X5.9291Y-2.0173
X6.1056Y-1.8973
X6.1056Y-1.8973
X6.1435Y-1.6872
T0
M30
