%TF.GenerationSoftware,KiCad,Pcbnew,6.0.7*%
%TF.CreationDate,2022-09-18T19:07:01-04:00*%
%TF.ProjectId,flutter_v2_wren,666c7574-7465-4725-9f76-325f7772656e,v1.0.0*%
%TF.SameCoordinates,Original*%
%TF.FileFunction,Legend,Top*%
%TF.FilePolarity,Positive*%
%FSLAX46Y46*%
G04 Gerber Fmt 4.6, Leading zero omitted, Abs format (unit mm)*
G04 Created by KiCad (PCBNEW 6.0.7) date 2022-09-18 19:07:01*
%MOMM*%
%LPD*%
G01*
G04 APERTURE LIST*
%ADD10C,0.150000*%
%ADD11C,0.200000*%
%ADD12C,0.300000*%
%ADD13C,0.400000*%
%ADD14C,0.100000*%
%ADD15C,1.000000*%
G04 APERTURE END LIST*
D10*
X121296708Y13854107D02*
X122058613Y13854107D01*
X121677661Y13473155D02*
X121677661Y14235059D01*
D11*
X107534803Y46246964D02*
X108106232Y46246964D01*
X107749089Y45246964D02*
X107749089Y46532678D01*
X107820518Y46675536D01*
X107963375Y46746964D01*
X108106232Y46746964D01*
X108820518Y45246964D02*
X108677661Y45318393D01*
X108606232Y45461250D01*
X108606232Y46746964D01*
X110034803Y45246964D02*
X110034803Y46032678D01*
X109963375Y46175536D01*
X109820518Y46246964D01*
X109534803Y46246964D01*
X109391946Y46175536D01*
X110034803Y45318393D02*
X109891946Y45246964D01*
X109534803Y45246964D01*
X109391946Y45318393D01*
X109320518Y45461250D01*
X109320518Y45604107D01*
X109391946Y45746964D01*
X109534803Y45818393D01*
X109891946Y45818393D01*
X110034803Y45889821D01*
X110677661Y45318393D02*
X110820518Y45246964D01*
X111106232Y45246964D01*
X111249089Y45318393D01*
X111320518Y45461250D01*
X111320518Y45532678D01*
X111249089Y45675536D01*
X111106232Y45746964D01*
X110891946Y45746964D01*
X110749089Y45818393D01*
X110677661Y45961250D01*
X110677661Y46032678D01*
X110749089Y46175536D01*
X110891946Y46246964D01*
X111106232Y46246964D01*
X111249089Y46175536D01*
X111963375Y45246964D02*
X111963375Y46746964D01*
X112606232Y45246964D02*
X112606232Y46032678D01*
X112534803Y46175536D01*
X112391946Y46246964D01*
X112177661Y46246964D01*
X112034803Y46175536D01*
X111963375Y46104107D01*
D12*
X138187184Y4301726D02*
X138491946Y4301726D01*
X138644327Y4225536D01*
X138796708Y4073155D01*
X138872899Y3768393D01*
X138872899Y3235059D01*
X138796708Y2930297D01*
X138644327Y2777916D01*
X138491946Y2701726D01*
X138187184Y2701726D01*
X138034803Y2777916D01*
X137882422Y2930297D01*
X137806232Y3235059D01*
X137806232Y3768393D01*
X137882422Y4073155D01*
X138034803Y4225536D01*
X138187184Y4301726D01*
X139558613Y2701726D02*
X139558613Y4301726D01*
X140472899Y2701726D01*
X140472899Y4301726D01*
D13*
X73534803Y-8895892D02*
X72701470Y-8895892D01*
X72701470Y-10205416D02*
X72701470Y-7705416D01*
X73891946Y-7705416D01*
X75201470Y-10205416D02*
X74963375Y-10086368D01*
X74844327Y-9848273D01*
X74844327Y-7705416D01*
X77225280Y-8538749D02*
X77225280Y-10205416D01*
X76153851Y-8538749D02*
X76153851Y-9848273D01*
X76272899Y-10086368D01*
X76510994Y-10205416D01*
X76868137Y-10205416D01*
X77106232Y-10086368D01*
X77225280Y-9967321D01*
X78058613Y-8538749D02*
X79010994Y-8538749D01*
X78415756Y-7705416D02*
X78415756Y-9848273D01*
X78534803Y-10086368D01*
X78772899Y-10205416D01*
X79010994Y-10205416D01*
X79487184Y-8538749D02*
X80439565Y-8538749D01*
X79844327Y-7705416D02*
X79844327Y-9848273D01*
X79963375Y-10086368D01*
X80201470Y-10205416D01*
X80439565Y-10205416D01*
X82225280Y-10086368D02*
X81987184Y-10205416D01*
X81510994Y-10205416D01*
X81272899Y-10086368D01*
X81153851Y-9848273D01*
X81153851Y-8895892D01*
X81272899Y-8657797D01*
X81510994Y-8538749D01*
X81987184Y-8538749D01*
X82225280Y-8657797D01*
X82344327Y-8895892D01*
X82344327Y-9133987D01*
X81153851Y-9372083D01*
X83415756Y-10205416D02*
X83415756Y-8538749D01*
X83415756Y-9014940D02*
X83534803Y-8776844D01*
X83653851Y-8657797D01*
X83891946Y-8538749D01*
X84130041Y-8538749D01*
X86510994Y-7705416D02*
X87344327Y-10205416D01*
X88177660Y-7705416D01*
X88891946Y-7943511D02*
X89010994Y-7824464D01*
X89249089Y-7705416D01*
X89844327Y-7705416D01*
X90082422Y-7824464D01*
X90201470Y-7943511D01*
X90320518Y-8181606D01*
X90320518Y-8419702D01*
X90201470Y-8776844D01*
X88772899Y-10205416D01*
X90320518Y-10205416D01*
X99844327Y-8895892D02*
X100201470Y-9014940D01*
X100320518Y-9133987D01*
X100439565Y-9372083D01*
X100439565Y-9729225D01*
X100320518Y-9967321D01*
X100201470Y-10086368D01*
X99963375Y-10205416D01*
X99010994Y-10205416D01*
X99010994Y-7705416D01*
X99844327Y-7705416D01*
X100082422Y-7824464D01*
X100201470Y-7943511D01*
X100320518Y-8181606D01*
X100320518Y-8419702D01*
X100201470Y-8657797D01*
X100082422Y-8776844D01*
X99844327Y-8895892D01*
X99010994Y-8895892D01*
X101272899Y-8538749D02*
X101868137Y-10205416D01*
X102463375Y-8538749D02*
X101868137Y-10205416D01*
X101630041Y-10800654D01*
X101510994Y-10919702D01*
X101272899Y-11038749D01*
X104963375Y-7705416D02*
X106391946Y-7705416D01*
X105677660Y-10205416D02*
X105677660Y-7705416D01*
X107225280Y-10205416D02*
X107225280Y-8538749D01*
X107225280Y-9014940D02*
X107344327Y-8776844D01*
X107463375Y-8657797D01*
X107701470Y-8538749D01*
X107939565Y-8538749D01*
X109725280Y-10086368D02*
X109487184Y-10205416D01*
X109010994Y-10205416D01*
X108772899Y-10086368D01*
X108653851Y-9848273D01*
X108653851Y-8895892D01*
X108772899Y-8657797D01*
X109010994Y-8538749D01*
X109487184Y-8538749D01*
X109725280Y-8657797D01*
X109844327Y-8895892D01*
X109844327Y-9133987D01*
X108653851Y-9372083D01*
X110915756Y-8538749D02*
X110915756Y-10205416D01*
X110915756Y-8776844D02*
X111034803Y-8657797D01*
X111272899Y-8538749D01*
X111630041Y-8538749D01*
X111868137Y-8657797D01*
X111987184Y-8895892D01*
X111987184Y-10205416D01*
X112820518Y-8538749D02*
X113772899Y-8538749D01*
X113177660Y-7705416D02*
X113177660Y-9848273D01*
X113296708Y-10086368D01*
X113534803Y-10205416D01*
X113772899Y-10205416D01*
X116391946Y-10086368D02*
X116749089Y-10205416D01*
X117344327Y-10205416D01*
X117582422Y-10086368D01*
X117701470Y-9967321D01*
X117820518Y-9729225D01*
X117820518Y-9491130D01*
X117701470Y-9253035D01*
X117582422Y-9133987D01*
X117344327Y-9014940D01*
X116868137Y-8895892D01*
X116630041Y-8776844D01*
X116510994Y-8657797D01*
X116391946Y-8419702D01*
X116391946Y-8181606D01*
X116510994Y-7943511D01*
X116630041Y-7824464D01*
X116868137Y-7705416D01*
X117463375Y-7705416D01*
X117820518Y-7824464D01*
X119249089Y-10205416D02*
X119010994Y-10086368D01*
X118891946Y-9848273D01*
X118891946Y-7705416D01*
X121272899Y-8538749D02*
X121272899Y-10205416D01*
X120201470Y-8538749D02*
X120201470Y-9848273D01*
X120320518Y-10086368D01*
X120558613Y-10205416D01*
X120915756Y-10205416D01*
X121153851Y-10086368D01*
X121272899Y-9967321D01*
X122106232Y-8538749D02*
X123058613Y-8538749D01*
X122463375Y-7705416D02*
X122463375Y-9848273D01*
X122582422Y-10086368D01*
X122820518Y-10205416D01*
X123058613Y-10205416D01*
X123653851Y-8538749D02*
X124963375Y-8538749D01*
X123653851Y-10205416D01*
X124963375Y-10205416D01*
X125915756Y-10205416D02*
X125915756Y-7705416D01*
X126153851Y-9253035D02*
X126868137Y-10205416D01*
X126868137Y-8538749D02*
X125915756Y-9491130D01*
X127701470Y-8538749D02*
X128296708Y-10205416D01*
X128891946Y-8538749D02*
X128296708Y-10205416D01*
X128058613Y-10800654D01*
X127939565Y-10919702D01*
X127701470Y-11038749D01*
D10*
%TO.C,*%
%TO.C,MCU1*%
%TO.C,*%
D14*
%TO.C,D1*%
X6350000Y-7000000D02*
X5750000Y-7400000D01*
X6750000Y-7000000D02*
X6350000Y-7000000D01*
X5750000Y-7400000D02*
X5750000Y-6600000D01*
X6350000Y-7000000D02*
X6350000Y-6450000D01*
X6350000Y-7000000D02*
X6350000Y-7550000D01*
X5750000Y-6600000D02*
X6350000Y-7000000D01*
X5750000Y-7000000D02*
X5250000Y-7000000D01*
%TO.C,D2*%
X6750000Y10000000D02*
X6350000Y10000000D01*
X5750000Y9600000D02*
X5750000Y10400000D01*
X6350000Y10000000D02*
X5750000Y9600000D01*
X6350000Y10000000D02*
X6350000Y10550000D01*
X5750000Y10000000D02*
X5250000Y10000000D01*
X5750000Y10400000D02*
X6350000Y10000000D01*
X6350000Y10000000D02*
X6350000Y9450000D01*
%TO.C,D3*%
X6350000Y27000000D02*
X6350000Y26450000D01*
X6350000Y27000000D02*
X5750000Y26600000D01*
X6750000Y27000000D02*
X6350000Y27000000D01*
X5750000Y27000000D02*
X5250000Y27000000D01*
X5750000Y26600000D02*
X5750000Y27400000D01*
X5750000Y27400000D02*
X6350000Y27000000D01*
X6350000Y27000000D02*
X6350000Y27550000D01*
%TO.C,D24*%
X141865727Y-30387995D02*
X141607517Y-30873616D01*
X141523747Y-29753133D02*
X141865727Y-30387995D01*
X142218906Y-30575784D02*
X141865727Y-30387995D01*
X141148169Y-30459491D02*
X141523747Y-29753133D01*
X141335958Y-30106312D02*
X140894484Y-29871576D01*
X141865727Y-30387995D02*
X142123936Y-29902374D01*
X141865727Y-30387995D02*
X141148169Y-30459491D01*
%TO.C,D23*%
X132829474Y-48234736D02*
X132476295Y-48046947D01*
X131758737Y-48118443D02*
X132134315Y-47412085D01*
X132134315Y-47412085D02*
X132476295Y-48046947D01*
X132476295Y-48046947D02*
X132734504Y-47561326D01*
X132476295Y-48046947D02*
X131758737Y-48118443D01*
X132476295Y-48046947D02*
X132218085Y-48532568D01*
X131946526Y-47765264D02*
X131505052Y-47530528D01*
%TO.C,D17*%
X95750000Y13400000D02*
X96350000Y13000000D01*
X96350000Y13000000D02*
X96350000Y12450000D01*
X96350000Y13000000D02*
X96350000Y13550000D01*
X96350000Y13000000D02*
X95750000Y12600000D01*
X95750000Y13000000D02*
X95250000Y13000000D01*
X95750000Y12600000D02*
X95750000Y13400000D01*
X96750000Y13000000D02*
X96350000Y13000000D01*
%TO.C,D11*%
X60350000Y14000000D02*
X59750000Y13600000D01*
X59750000Y13600000D02*
X59750000Y14400000D01*
X59750000Y14400000D02*
X60350000Y14000000D01*
X59750000Y14000000D02*
X59250000Y14000000D01*
X60350000Y14000000D02*
X60350000Y14550000D01*
X60750000Y14000000D02*
X60350000Y14000000D01*
X60350000Y14000000D02*
X60350000Y13450000D01*
%TO.C,D19*%
X114750000Y-5000000D02*
X114350000Y-5000000D01*
X114350000Y-5000000D02*
X113750000Y-5400000D01*
X114350000Y-5000000D02*
X114350000Y-4450000D01*
X114350000Y-5000000D02*
X114350000Y-5550000D01*
X113750000Y-5000000D02*
X113250000Y-5000000D01*
X113750000Y-4600000D02*
X114350000Y-5000000D01*
X113750000Y-5400000D02*
X113750000Y-4600000D01*
%TO.C,D20*%
X114350000Y12000000D02*
X114350000Y12550000D01*
X114350000Y12000000D02*
X114350000Y11450000D01*
X113750000Y12400000D02*
X114350000Y12000000D01*
X113750000Y11600000D02*
X113750000Y12400000D01*
X114350000Y12000000D02*
X113750000Y11600000D01*
X114750000Y12000000D02*
X114350000Y12000000D01*
X113750000Y12000000D02*
X113250000Y12000000D01*
%TO.C,D18*%
X96350000Y30000000D02*
X96350000Y30550000D01*
X95750000Y29600000D02*
X95750000Y30400000D01*
X96750000Y30000000D02*
X96350000Y30000000D01*
X96350000Y30000000D02*
X95750000Y29600000D01*
X95750000Y30400000D02*
X96350000Y30000000D01*
X96350000Y30000000D02*
X96350000Y29450000D01*
X95750000Y30000000D02*
X95250000Y30000000D01*
%TO.C,D10*%
X59750000Y-2600000D02*
X60350000Y-3000000D01*
X60350000Y-3000000D02*
X59750000Y-3400000D01*
X60350000Y-3000000D02*
X60350000Y-2450000D01*
X60750000Y-3000000D02*
X60350000Y-3000000D01*
X59750000Y-3000000D02*
X59250000Y-3000000D01*
X59750000Y-3400000D02*
X59750000Y-2600000D01*
X60350000Y-3000000D02*
X60350000Y-3550000D01*
%TO.C,D13*%
X77750000Y-1600000D02*
X78350000Y-2000000D01*
X77750000Y-2400000D02*
X77750000Y-1600000D01*
X78350000Y-2000000D02*
X77750000Y-2400000D01*
X78350000Y-2000000D02*
X78350000Y-2550000D01*
X78350000Y-2000000D02*
X78350000Y-1450000D01*
X77750000Y-2000000D02*
X77250000Y-2000000D01*
X78750000Y-2000000D02*
X78350000Y-2000000D01*
%TO.C,D15*%
X77750000Y32000000D02*
X77250000Y32000000D01*
X78350000Y32000000D02*
X78350000Y32550000D01*
X77750000Y32400000D02*
X78350000Y32000000D01*
X77750000Y31600000D02*
X77750000Y32400000D01*
X78750000Y32000000D02*
X78350000Y32000000D01*
X78350000Y32000000D02*
X78350000Y31450000D01*
X78350000Y32000000D02*
X77750000Y31600000D01*
%TO.C,D26*%
X132750000Y-6000000D02*
X132350000Y-6000000D01*
X132350000Y-6000000D02*
X131750000Y-6400000D01*
X132350000Y-6000000D02*
X132350000Y-6550000D01*
X131750000Y-5600000D02*
X132350000Y-6000000D01*
X132350000Y-6000000D02*
X132350000Y-5450000D01*
X131750000Y-6000000D02*
X131250000Y-6000000D01*
X131750000Y-6400000D02*
X131750000Y-5600000D01*
%TO.C,D4*%
X23750000Y-6600000D02*
X24350000Y-7000000D01*
X23750000Y-7400000D02*
X23750000Y-6600000D01*
X24350000Y-7000000D02*
X24350000Y-7550000D01*
X23750000Y-7000000D02*
X23250000Y-7000000D01*
X24350000Y-7000000D02*
X23750000Y-7400000D01*
X24350000Y-7000000D02*
X24350000Y-6450000D01*
X24750000Y-7000000D02*
X24350000Y-7000000D01*
%TO.C,D7*%
X42350000Y-5000000D02*
X42350000Y-4450000D01*
X41750000Y-4600000D02*
X42350000Y-5000000D01*
X42750000Y-5000000D02*
X42350000Y-5000000D01*
X42350000Y-5000000D02*
X42350000Y-5550000D01*
X41750000Y-5000000D02*
X41250000Y-5000000D01*
X42350000Y-5000000D02*
X41750000Y-5400000D01*
X41750000Y-5400000D02*
X41750000Y-4600000D01*
%TO.C,D16*%
X96350000Y-4000000D02*
X96350000Y-4550000D01*
X96350000Y-4000000D02*
X95750000Y-4400000D01*
X96750000Y-4000000D02*
X96350000Y-4000000D01*
X95750000Y-4000000D02*
X95250000Y-4000000D01*
X96350000Y-4000000D02*
X96350000Y-3450000D01*
X95750000Y-3600000D02*
X96350000Y-4000000D01*
X95750000Y-4400000D02*
X95750000Y-3600000D01*
%TO.C,D8*%
X42350000Y12000000D02*
X42350000Y11450000D01*
X42750000Y12000000D02*
X42350000Y12000000D01*
X42350000Y12000000D02*
X42350000Y12550000D01*
X41750000Y12400000D02*
X42350000Y12000000D01*
X41750000Y12000000D02*
X41250000Y12000000D01*
X42350000Y12000000D02*
X41750000Y11600000D01*
X41750000Y11600000D02*
X41750000Y12400000D01*
%TO.C,D22*%
X122977596Y-23046143D02*
X122475146Y-22822438D01*
X123140290Y-22680725D02*
X122977596Y-23046143D01*
X123098972Y-23756965D02*
X122368136Y-23431576D01*
X122368136Y-23431576D02*
X122977596Y-23046143D01*
X122977596Y-23046143D02*
X123480046Y-23269848D01*
X122733554Y-23594270D02*
X122530186Y-24051043D01*
X122977596Y-23046143D02*
X123098972Y-23756965D01*
%TO.C,D27*%
X75247698Y-27384048D02*
X74748916Y-27349170D01*
X75275601Y-26985022D02*
X75846236Y-27425902D01*
X75846236Y-27425902D02*
X75219795Y-27783074D01*
X76245262Y-27453804D02*
X75846236Y-27425902D01*
X75219795Y-27783074D02*
X75275601Y-26985022D01*
X75846236Y-27425902D02*
X75807870Y-27974562D01*
X75846236Y-27425902D02*
X75884602Y-26877242D01*
%TO.C,D25*%
X159681198Y-43128993D02*
X159463343Y-43464461D01*
X159463343Y-43464461D02*
X159924611Y-43764013D01*
X159463343Y-43464461D02*
X159472027Y-44185519D01*
X159463343Y-43464461D02*
X159002074Y-43164910D01*
X159136559Y-43967664D02*
X158864240Y-44386999D01*
X158801091Y-43749808D02*
X159463343Y-43464461D01*
X159472027Y-44185519D02*
X158801091Y-43749808D01*
%TO.C,D28*%
X96429379Y-31782346D02*
X96040431Y-31688968D01*
X95457010Y-31548901D02*
X94970825Y-31432178D01*
X96040431Y-31688968D02*
X95912037Y-32223771D01*
X96040431Y-31688968D02*
X96168826Y-31154164D01*
X96040431Y-31688968D02*
X95363631Y-31937849D01*
X95363631Y-31937849D02*
X95550388Y-31159953D01*
X95550388Y-31159953D02*
X96040431Y-31688968D01*
%TO.C,D21*%
X113750000Y29400000D02*
X114350000Y29000000D01*
X113750000Y28600000D02*
X113750000Y29400000D01*
X113750000Y29000000D02*
X113250000Y29000000D01*
X114350000Y29000000D02*
X114350000Y28450000D01*
X114350000Y29000000D02*
X113750000Y28600000D01*
X114350000Y29000000D02*
X114350000Y29550000D01*
X114750000Y29000000D02*
X114350000Y29000000D01*
%TO.C,D9*%
X41750000Y29400000D02*
X42350000Y29000000D01*
X41750000Y29000000D02*
X41250000Y29000000D01*
X42350000Y29000000D02*
X42350000Y28450000D01*
X42750000Y29000000D02*
X42350000Y29000000D01*
X42350000Y29000000D02*
X42350000Y29550000D01*
X42350000Y29000000D02*
X41750000Y28600000D01*
X41750000Y28600000D02*
X41750000Y29400000D01*
%TO.C,D12*%
X59750000Y31400000D02*
X60350000Y31000000D01*
X59750000Y30600000D02*
X59750000Y31400000D01*
X60350000Y31000000D02*
X60350000Y30450000D01*
X60350000Y31000000D02*
X59750000Y30600000D01*
X60750000Y31000000D02*
X60350000Y31000000D01*
X60350000Y31000000D02*
X60350000Y31550000D01*
X59750000Y31000000D02*
X59250000Y31000000D01*
%TO.C,D5*%
X24350000Y10000000D02*
X24350000Y9450000D01*
X23750000Y10000000D02*
X23250000Y10000000D01*
X23750000Y9600000D02*
X23750000Y10400000D01*
X24350000Y10000000D02*
X23750000Y9600000D01*
X24750000Y10000000D02*
X24350000Y10000000D01*
X23750000Y10400000D02*
X24350000Y10000000D01*
X24350000Y10000000D02*
X24350000Y10550000D01*
D10*
%TO.C,MCU1*%
X122650000Y45990000D02*
X120110000Y45990000D01*
X120110000Y43450000D02*
X120110000Y45990000D01*
X122650000Y45990000D02*
X122650000Y43450000D01*
X122650000Y43450000D02*
X120110000Y43450000D01*
D14*
%TO.C,D14*%
X78350000Y15000000D02*
X78350000Y15550000D01*
X78350000Y15000000D02*
X77750000Y14600000D01*
X77750000Y14600000D02*
X77750000Y15400000D01*
X77750000Y15400000D02*
X78350000Y15000000D01*
X77750000Y15000000D02*
X77250000Y15000000D01*
X78750000Y15000000D02*
X78350000Y15000000D01*
X78350000Y15000000D02*
X78350000Y14450000D01*
%TO.C,D6*%
X23750000Y27000000D02*
X23250000Y27000000D01*
X23750000Y26600000D02*
X23750000Y27400000D01*
X24350000Y27000000D02*
X23750000Y26600000D01*
X23750000Y27400000D02*
X24350000Y27000000D01*
X24350000Y27000000D02*
X24350000Y26450000D01*
X24750000Y27000000D02*
X24350000Y27000000D01*
X24350000Y27000000D02*
X24350000Y27550000D01*
%TD*%
D15*
%TO.C,*%
X120677661Y13175536D03*
X120677661Y11675536D03*
%TD*%
M02*
