%TF.GenerationSoftware,KiCad,Pcbnew,6.0.7*%
%TF.CreationDate,2022-09-15T23:21:12-04:00*%
%TF.ProjectId,flutter_v2_wren,666c7574-7465-4725-9f76-325f7772656e,v1.0.0*%
%TF.SameCoordinates,Original*%
%TF.FileFunction,Soldermask,Bot*%
%TF.FilePolarity,Negative*%
%FSLAX46Y46*%
G04 Gerber Fmt 4.6, Leading zero omitted, Abs format (unit mm)*
G04 Created by KiCad (PCBNEW 6.0.7) date 2022-09-15 23:21:12*
%MOMM*%
%LPD*%
G01*
G04 APERTURE LIST*
G04 Aperture macros list*
%AMRoundRect*
0 Rectangle with rounded corners*
0 $1 Rounding radius*
0 $2 $3 $4 $5 $6 $7 $8 $9 X,Y pos of 4 corners*
0 Add a 4 corners polygon primitive as box body*
4,1,4,$2,$3,$4,$5,$6,$7,$8,$9,$2,$3,0*
0 Add four circle primitives for the rounded corners*
1,1,$1+$1,$2,$3*
1,1,$1+$1,$4,$5*
1,1,$1+$1,$6,$7*
1,1,$1+$1,$8,$9*
0 Add four rect primitives between the rounded corners*
20,1,$1+$1,$2,$3,$4,$5,0*
20,1,$1+$1,$4,$5,$6,$7,0*
20,1,$1+$1,$6,$7,$8,$9,0*
20,1,$1+$1,$8,$9,$2,$3,0*%
%AMFreePoly0*
4,1,16,0.635355,1.035355,0.650000,1.000000,0.650000,-0.250000,0.635355,-0.285355,0.600000,-0.300000,-0.600000,-0.300000,-0.635355,-0.285355,-0.650000,-0.250000,-0.650000,1.000000,-0.635355,1.035355,-0.600000,1.050000,-0.564645,1.035355,0.000000,0.470710,0.564645,1.035355,0.600000,1.050000,0.635355,1.035355,0.635355,1.035355,$1*%
%AMFreePoly1*
4,1,14,0.635355,0.435355,0.650000,0.400000,0.650000,0.200000,0.635355,0.164645,0.035355,-0.435355,0.000000,-0.450000,-0.035355,-0.435355,-0.635355,0.164645,-0.650000,0.200000,-0.650000,0.400000,-0.635355,0.435355,-0.600000,0.450000,0.600000,0.450000,0.635355,0.435355,0.635355,0.435355,$1*%
G04 Aperture macros list end*
%ADD10C,0.250000*%
%ADD11C,0.100000*%
%ADD12C,3.529000*%
%ADD13C,1.801800*%
%ADD14C,3.100000*%
%ADD15RoundRect,0.050000X-1.300000X-1.300000X1.300000X-1.300000X1.300000X1.300000X-1.300000X1.300000X0*%
%ADD16RoundRect,0.050000X0.450000X0.600000X-0.450000X0.600000X-0.450000X-0.600000X0.450000X-0.600000X0*%
%ADD17RoundRect,0.050000X0.658851X-1.716367X1.716367X0.658851X-0.658851X1.716367X-1.716367X-0.658851X0*%
%ADD18RoundRect,0.050000X-0.365096X0.655137X-0.731159X-0.167053X0.365096X-0.655137X0.731159X0.167053X0*%
%ADD19RoundRect,0.050000X-1.758145X-0.537519X0.537519X-1.758145X1.758145X0.537519X-0.537519X1.758145X0*%
%ADD20RoundRect,0.050000X0.679009X0.318506X-0.115643X0.741031X-0.679009X-0.318506X0.115643X-0.741031X0*%
%ADD21RoundRect,0.050000X0.382241X-1.798302X1.798302X0.382241X-0.382241X1.798302X-1.798302X-0.382241X0*%
%ADD22RoundRect,0.050000X-0.258115X0.704185X-0.748290X-0.050618X0.258115X-0.704185X0.748290X0.050618X0*%
%ADD23RoundRect,0.050000X-1.387517X-1.206150X1.206150X-1.387517X1.387517X1.206150X-1.206150X1.387517X0*%
%ADD24RoundRect,0.050000X0.490758X0.567148X-0.407050X0.629929X-0.490758X-0.567148X0.407050X-0.629929X0*%
%ADD25RoundRect,0.050000X-1.567560X-0.960602X0.960602X-1.567560X1.567560X0.960602X-0.960602X1.567560X0*%
%ADD26RoundRect,0.050000X0.577634X0.478372X-0.297499X0.688472X-0.577634X-0.478372X0.297499X-0.688472X0*%
%ADD27C,1.700000*%
%ADD28RoundRect,0.050000X-0.800000X0.800000X-0.800000X-0.800000X0.800000X-0.800000X0.800000X0.800000X0*%
%ADD29FreePoly0,90.000000*%
%ADD30FreePoly1,90.000000*%
%ADD31FreePoly1,270.000000*%
%ADD32FreePoly0,270.000000*%
%ADD33RoundRect,0.050000X-0.450000X-0.850000X0.450000X-0.850000X0.450000X0.850000X-0.450000X0.850000X0*%
%ADD34C,1.000000*%
%ADD35RoundRect,0.050000X-0.350000X-0.750000X0.350000X-0.750000X0.350000X0.750000X-0.350000X0.750000X0*%
%ADD36RoundRect,0.050000X-0.500000X-0.400000X0.500000X-0.400000X0.500000X0.400000X-0.500000X0.400000X0*%
%ADD37C,1.100000*%
G04 APERTURE END LIST*
D10*
%TO.C,MCU1*%
X128363000Y16780000D02*
G75*
G03*
X128363000Y16780000I-125000J0D01*
G01*
X129887000Y16780000D02*
G75*
G03*
X129887000Y16780000I-125000J0D01*
G01*
X128363000Y19320000D02*
G75*
G03*
X128363000Y19320000I-125000J0D01*
G01*
X129887000Y19320000D02*
G75*
G03*
X129887000Y19320000I-125000J0D01*
G01*
X128363000Y21860000D02*
G75*
G03*
X128363000Y21860000I-125000J0D01*
G01*
X129887000Y21860000D02*
G75*
G03*
X129887000Y21860000I-125000J0D01*
G01*
X128363000Y24400000D02*
G75*
G03*
X128363000Y24400000I-125000J0D01*
G01*
X129887000Y24400000D02*
G75*
G03*
X129887000Y24400000I-125000J0D01*
G01*
X128363000Y26940000D02*
G75*
G03*
X128363000Y26940000I-125000J0D01*
G01*
X129887000Y26940000D02*
G75*
G03*
X129887000Y26940000I-125000J0D01*
G01*
X128363000Y29480000D02*
G75*
G03*
X128363000Y29480000I-125000J0D01*
G01*
X129887000Y29480000D02*
G75*
G03*
X129887000Y29480000I-125000J0D01*
G01*
X128363000Y32020000D02*
G75*
G03*
X128363000Y32020000I-125000J0D01*
G01*
X129887000Y32020000D02*
G75*
G03*
X129887000Y32020000I-125000J0D01*
G01*
X128363000Y34560000D02*
G75*
G03*
X128363000Y34560000I-125000J0D01*
G01*
X129887000Y34560000D02*
G75*
G03*
X129887000Y34560000I-125000J0D01*
G01*
X128363000Y37100000D02*
G75*
G03*
X128363000Y37100000I-125000J0D01*
G01*
X129887000Y37100000D02*
G75*
G03*
X129887000Y37100000I-125000J0D01*
G01*
X128363000Y39640000D02*
G75*
G03*
X128363000Y39640000I-125000J0D01*
G01*
X129887000Y39640000D02*
G75*
G03*
X129887000Y39640000I-125000J0D01*
G01*
X129887000Y42180000D02*
G75*
G03*
X129887000Y42180000I-125000J0D01*
G01*
X128363000Y42180000D02*
G75*
G03*
X128363000Y42180000I-125000J0D01*
G01*
X128363000Y44720000D02*
G75*
G03*
X128363000Y44720000I-125000J0D01*
G01*
X129887000Y44720000D02*
G75*
G03*
X129887000Y44720000I-125000J0D01*
G01*
G36*
X135096000Y16272000D02*
G01*
X134080000Y16272000D01*
X134080000Y17288000D01*
X135096000Y17288000D01*
X135096000Y16272000D01*
G37*
D11*
X135096000Y16272000D02*
X134080000Y16272000D01*
X134080000Y17288000D01*
X135096000Y17288000D01*
X135096000Y16272000D01*
G36*
X135096000Y18812000D02*
G01*
X134080000Y18812000D01*
X134080000Y19828000D01*
X135096000Y19828000D01*
X135096000Y18812000D01*
G37*
X135096000Y18812000D02*
X134080000Y18812000D01*
X134080000Y19828000D01*
X135096000Y19828000D01*
X135096000Y18812000D01*
G36*
X135096000Y21352000D02*
G01*
X134080000Y21352000D01*
X134080000Y22368000D01*
X135096000Y22368000D01*
X135096000Y21352000D01*
G37*
X135096000Y21352000D02*
X134080000Y21352000D01*
X134080000Y22368000D01*
X135096000Y22368000D01*
X135096000Y21352000D01*
G36*
X135096000Y23892000D02*
G01*
X134080000Y23892000D01*
X134080000Y24908000D01*
X135096000Y24908000D01*
X135096000Y23892000D01*
G37*
X135096000Y23892000D02*
X134080000Y23892000D01*
X134080000Y24908000D01*
X135096000Y24908000D01*
X135096000Y23892000D01*
G36*
X135096000Y26432000D02*
G01*
X134080000Y26432000D01*
X134080000Y27448000D01*
X135096000Y27448000D01*
X135096000Y26432000D01*
G37*
X135096000Y26432000D02*
X134080000Y26432000D01*
X134080000Y27448000D01*
X135096000Y27448000D01*
X135096000Y26432000D01*
G36*
X135096000Y28972000D02*
G01*
X134080000Y28972000D01*
X134080000Y29988000D01*
X135096000Y29988000D01*
X135096000Y28972000D01*
G37*
X135096000Y28972000D02*
X134080000Y28972000D01*
X134080000Y29988000D01*
X135096000Y29988000D01*
X135096000Y28972000D01*
G36*
X135096000Y31512000D02*
G01*
X134080000Y31512000D01*
X134080000Y32528000D01*
X135096000Y32528000D01*
X135096000Y31512000D01*
G37*
X135096000Y31512000D02*
X134080000Y31512000D01*
X134080000Y32528000D01*
X135096000Y32528000D01*
X135096000Y31512000D01*
G36*
X135096000Y34052000D02*
G01*
X134080000Y34052000D01*
X134080000Y35068000D01*
X135096000Y35068000D01*
X135096000Y34052000D01*
G37*
X135096000Y34052000D02*
X134080000Y34052000D01*
X134080000Y35068000D01*
X135096000Y35068000D01*
X135096000Y34052000D01*
G36*
X135096000Y36592000D02*
G01*
X134080000Y36592000D01*
X134080000Y37608000D01*
X135096000Y37608000D01*
X135096000Y36592000D01*
G37*
X135096000Y36592000D02*
X134080000Y36592000D01*
X134080000Y37608000D01*
X135096000Y37608000D01*
X135096000Y36592000D01*
G36*
X135096000Y39132000D02*
G01*
X134080000Y39132000D01*
X134080000Y40148000D01*
X135096000Y40148000D01*
X135096000Y39132000D01*
G37*
X135096000Y39132000D02*
X134080000Y39132000D01*
X134080000Y40148000D01*
X135096000Y40148000D01*
X135096000Y39132000D01*
G36*
X135096000Y41672000D02*
G01*
X134080000Y41672000D01*
X134080000Y42688000D01*
X135096000Y42688000D01*
X135096000Y41672000D01*
G37*
X135096000Y41672000D02*
X134080000Y41672000D01*
X134080000Y42688000D01*
X135096000Y42688000D01*
X135096000Y41672000D01*
G36*
X135096000Y44212000D02*
G01*
X134080000Y44212000D01*
X134080000Y45228000D01*
X135096000Y45228000D01*
X135096000Y44212000D01*
G37*
X135096000Y44212000D02*
X134080000Y44212000D01*
X134080000Y45228000D01*
X135096000Y45228000D01*
X135096000Y44212000D01*
G36*
X123920000Y16272000D02*
G01*
X122904000Y16272000D01*
X122904000Y17288000D01*
X123920000Y17288000D01*
X123920000Y16272000D01*
G37*
X123920000Y16272000D02*
X122904000Y16272000D01*
X122904000Y17288000D01*
X123920000Y17288000D01*
X123920000Y16272000D01*
G36*
X123920000Y18812000D02*
G01*
X122904000Y18812000D01*
X122904000Y19828000D01*
X123920000Y19828000D01*
X123920000Y18812000D01*
G37*
X123920000Y18812000D02*
X122904000Y18812000D01*
X122904000Y19828000D01*
X123920000Y19828000D01*
X123920000Y18812000D01*
G36*
X123920000Y21352000D02*
G01*
X122904000Y21352000D01*
X122904000Y22368000D01*
X123920000Y22368000D01*
X123920000Y21352000D01*
G37*
X123920000Y21352000D02*
X122904000Y21352000D01*
X122904000Y22368000D01*
X123920000Y22368000D01*
X123920000Y21352000D01*
G36*
X123920000Y23892000D02*
G01*
X122904000Y23892000D01*
X122904000Y24908000D01*
X123920000Y24908000D01*
X123920000Y23892000D01*
G37*
X123920000Y23892000D02*
X122904000Y23892000D01*
X122904000Y24908000D01*
X123920000Y24908000D01*
X123920000Y23892000D01*
G36*
X123920000Y26432000D02*
G01*
X122904000Y26432000D01*
X122904000Y27448000D01*
X123920000Y27448000D01*
X123920000Y26432000D01*
G37*
X123920000Y26432000D02*
X122904000Y26432000D01*
X122904000Y27448000D01*
X123920000Y27448000D01*
X123920000Y26432000D01*
G36*
X123920000Y28972000D02*
G01*
X122904000Y28972000D01*
X122904000Y29988000D01*
X123920000Y29988000D01*
X123920000Y28972000D01*
G37*
X123920000Y28972000D02*
X122904000Y28972000D01*
X122904000Y29988000D01*
X123920000Y29988000D01*
X123920000Y28972000D01*
G36*
X123920000Y31512000D02*
G01*
X122904000Y31512000D01*
X122904000Y32528000D01*
X123920000Y32528000D01*
X123920000Y31512000D01*
G37*
X123920000Y31512000D02*
X122904000Y31512000D01*
X122904000Y32528000D01*
X123920000Y32528000D01*
X123920000Y31512000D01*
G36*
X123920000Y34052000D02*
G01*
X122904000Y34052000D01*
X122904000Y35068000D01*
X123920000Y35068000D01*
X123920000Y34052000D01*
G37*
X123920000Y34052000D02*
X122904000Y34052000D01*
X122904000Y35068000D01*
X123920000Y35068000D01*
X123920000Y34052000D01*
G36*
X123920000Y36592000D02*
G01*
X122904000Y36592000D01*
X122904000Y37608000D01*
X123920000Y37608000D01*
X123920000Y36592000D01*
G37*
X123920000Y36592000D02*
X122904000Y36592000D01*
X122904000Y37608000D01*
X123920000Y37608000D01*
X123920000Y36592000D01*
G36*
X123920000Y39132000D02*
G01*
X122904000Y39132000D01*
X122904000Y40148000D01*
X123920000Y40148000D01*
X123920000Y39132000D01*
G37*
X123920000Y39132000D02*
X122904000Y39132000D01*
X122904000Y40148000D01*
X123920000Y40148000D01*
X123920000Y39132000D01*
G36*
X123920000Y41672000D02*
G01*
X122904000Y41672000D01*
X122904000Y42688000D01*
X123920000Y42688000D01*
X123920000Y41672000D01*
G37*
X123920000Y41672000D02*
X122904000Y41672000D01*
X122904000Y42688000D01*
X123920000Y42688000D01*
X123920000Y41672000D01*
G36*
X123920000Y44212000D02*
G01*
X122904000Y44212000D01*
X122904000Y45228000D01*
X123920000Y45228000D01*
X123920000Y44212000D01*
G37*
X123920000Y44212000D02*
X122904000Y44212000D01*
X122904000Y45228000D01*
X123920000Y45228000D01*
X123920000Y44212000D01*
%TD*%
D12*
%TO.C,S1*%
X0Y0D03*
D13*
X5500000Y0D03*
X-5500000Y0D03*
D14*
X5000000Y3750000D03*
X0Y5950000D03*
D15*
X-3275000Y5950000D03*
X8275000Y3750000D03*
D14*
X-5000000Y3750000D03*
X0Y5950000D03*
%TD*%
D16*
%TO.C,D1*%
X4350000Y-7000000D03*
X7650000Y-7000000D03*
%TD*%
D12*
%TO.C,S2*%
X0Y17000000D03*
D13*
X5500000Y17000000D03*
X-5500000Y17000000D03*
D14*
X5000000Y20750000D03*
X0Y22950000D03*
D15*
X-3275000Y22950000D03*
X8275000Y20750000D03*
D14*
X-5000000Y20750000D03*
X0Y22950000D03*
%TD*%
D16*
%TO.C,D2*%
X4350000Y10000000D03*
X7650000Y10000000D03*
%TD*%
D12*
%TO.C,S3*%
X0Y34000000D03*
D13*
X5500000Y34000000D03*
X-5500000Y34000000D03*
D14*
X5000000Y37750000D03*
X0Y39950000D03*
D15*
X-3275000Y39950000D03*
X8275000Y37750000D03*
D14*
X-5000000Y37750000D03*
X0Y39950000D03*
%TD*%
D16*
%TO.C,D3*%
X4350000Y27000000D03*
X7650000Y27000000D03*
%TD*%
D12*
%TO.C,S4*%
X18000000Y0D03*
D13*
X23500000Y0D03*
X12500000Y0D03*
D14*
X23000000Y3750000D03*
X18000000Y5950000D03*
D15*
X14725000Y5950000D03*
X26275000Y3750000D03*
D14*
X13000000Y3750000D03*
X18000000Y5950000D03*
%TD*%
D16*
%TO.C,D4*%
X22350000Y-7000000D03*
X25650000Y-7000000D03*
%TD*%
D12*
%TO.C,S5*%
X18000000Y17000000D03*
D13*
X23500000Y17000000D03*
X12500000Y17000000D03*
D14*
X23000000Y20750000D03*
X18000000Y22950000D03*
D15*
X14725000Y22950000D03*
X26275000Y20750000D03*
D14*
X13000000Y20750000D03*
X18000000Y22950000D03*
%TD*%
D16*
%TO.C,D5*%
X22350000Y10000000D03*
X25650000Y10000000D03*
%TD*%
D12*
%TO.C,S6*%
X18000000Y34000000D03*
D13*
X23500000Y34000000D03*
X12500000Y34000000D03*
D14*
X23000000Y37750000D03*
X18000000Y39950000D03*
D15*
X14725000Y39950000D03*
X26275000Y37750000D03*
D14*
X13000000Y37750000D03*
X18000000Y39950000D03*
%TD*%
D16*
%TO.C,D6*%
X22350000Y27000000D03*
X25650000Y27000000D03*
%TD*%
D12*
%TO.C,S7*%
X36000000Y2000000D03*
D13*
X41500000Y2000000D03*
X30500000Y2000000D03*
D14*
X41000000Y5750000D03*
X36000000Y7950000D03*
D15*
X32725000Y7950000D03*
X44275000Y5750000D03*
D14*
X31000000Y5750000D03*
X36000000Y7950000D03*
%TD*%
D16*
%TO.C,D7*%
X40350000Y-5000000D03*
X43650000Y-5000000D03*
%TD*%
D12*
%TO.C,S8*%
X36000000Y19000000D03*
D13*
X41500000Y19000000D03*
X30500000Y19000000D03*
D14*
X41000000Y22750000D03*
X36000000Y24950000D03*
D15*
X32725000Y24950000D03*
X44275000Y22750000D03*
D14*
X31000000Y22750000D03*
X36000000Y24950000D03*
%TD*%
D16*
%TO.C,D8*%
X40350000Y12000000D03*
X43650000Y12000000D03*
%TD*%
D12*
%TO.C,S9*%
X36000000Y36000000D03*
D13*
X41500000Y36000000D03*
X30500000Y36000000D03*
D14*
X41000000Y39750000D03*
X36000000Y41950000D03*
D15*
X32725000Y41950000D03*
X44275000Y39750000D03*
D14*
X31000000Y39750000D03*
X36000000Y41950000D03*
%TD*%
D16*
%TO.C,D9*%
X40350000Y29000000D03*
X43650000Y29000000D03*
%TD*%
D12*
%TO.C,S10*%
X54000000Y4000000D03*
D13*
X59500000Y4000000D03*
X48500000Y4000000D03*
D14*
X59000000Y7750000D03*
X54000000Y9950000D03*
D15*
X50725000Y9950000D03*
X62275000Y7750000D03*
D14*
X49000000Y7750000D03*
X54000000Y9950000D03*
%TD*%
D16*
%TO.C,D10*%
X58350000Y-3000000D03*
X61650000Y-3000000D03*
%TD*%
D12*
%TO.C,S11*%
X54000000Y21000000D03*
D13*
X59500000Y21000000D03*
X48500000Y21000000D03*
D14*
X59000000Y24750000D03*
X54000000Y26950000D03*
D15*
X50725000Y26950000D03*
X62275000Y24750000D03*
D14*
X49000000Y24750000D03*
X54000000Y26950000D03*
%TD*%
D16*
%TO.C,D11*%
X58350000Y14000000D03*
X61650000Y14000000D03*
%TD*%
D12*
%TO.C,S12*%
X54000000Y38000000D03*
D13*
X59500000Y38000000D03*
X48500000Y38000000D03*
D14*
X59000000Y41750000D03*
X54000000Y43950000D03*
D15*
X50725000Y43950000D03*
X62275000Y41750000D03*
D14*
X49000000Y41750000D03*
X54000000Y43950000D03*
%TD*%
D16*
%TO.C,D12*%
X58350000Y31000000D03*
X61650000Y31000000D03*
%TD*%
D12*
%TO.C,S13*%
X72000000Y5000000D03*
D13*
X77500000Y5000000D03*
X66500000Y5000000D03*
D14*
X77000000Y8750000D03*
X72000000Y10950000D03*
D15*
X68725000Y10950000D03*
X80275000Y8750000D03*
D14*
X67000000Y8750000D03*
X72000000Y10950000D03*
%TD*%
D16*
%TO.C,D13*%
X76350000Y-2000000D03*
X79650000Y-2000000D03*
%TD*%
D12*
%TO.C,S14*%
X72000000Y22000000D03*
D13*
X77500000Y22000000D03*
X66500000Y22000000D03*
D14*
X77000000Y25750000D03*
X72000000Y27950000D03*
D15*
X68725000Y27950000D03*
X80275000Y25750000D03*
D14*
X67000000Y25750000D03*
X72000000Y27950000D03*
%TD*%
D16*
%TO.C,D14*%
X76350000Y15000000D03*
X79650000Y15000000D03*
%TD*%
D12*
%TO.C,S15*%
X72000000Y39000000D03*
D13*
X77500000Y39000000D03*
X66500000Y39000000D03*
D14*
X77000000Y42750000D03*
X72000000Y44950000D03*
D15*
X68725000Y44950000D03*
X80275000Y42750000D03*
D14*
X67000000Y42750000D03*
X72000000Y44950000D03*
%TD*%
D16*
%TO.C,D15*%
X76350000Y32000000D03*
X79650000Y32000000D03*
%TD*%
D12*
%TO.C,S16*%
X90000000Y3000000D03*
D13*
X95500000Y3000000D03*
X84500000Y3000000D03*
D14*
X95000000Y6750000D03*
X90000000Y8950000D03*
D15*
X86725000Y8950000D03*
X98275000Y6750000D03*
D14*
X85000000Y6750000D03*
X90000000Y8950000D03*
%TD*%
D16*
%TO.C,D16*%
X94350000Y-4000000D03*
X97650000Y-4000000D03*
%TD*%
D12*
%TO.C,S17*%
X90000000Y20000000D03*
D13*
X95500000Y20000000D03*
X84500000Y20000000D03*
D14*
X95000000Y23750000D03*
X90000000Y25950000D03*
D15*
X86725000Y25950000D03*
X98275000Y23750000D03*
D14*
X85000000Y23750000D03*
X90000000Y25950000D03*
%TD*%
D16*
%TO.C,D17*%
X94350000Y13000000D03*
X97650000Y13000000D03*
%TD*%
D12*
%TO.C,S18*%
X90000000Y37000000D03*
D13*
X95500000Y37000000D03*
X84500000Y37000000D03*
D14*
X95000000Y40750000D03*
X90000000Y42950000D03*
D15*
X86725000Y42950000D03*
X98275000Y40750000D03*
D14*
X85000000Y40750000D03*
X90000000Y42950000D03*
%TD*%
D16*
%TO.C,D18*%
X94350000Y30000000D03*
X97650000Y30000000D03*
%TD*%
D12*
%TO.C,S19*%
X108000000Y2000000D03*
D13*
X113500000Y2000000D03*
X102500000Y2000000D03*
D14*
X113000000Y5750000D03*
X108000000Y7950000D03*
D15*
X104725000Y7950000D03*
X116275000Y5750000D03*
D14*
X103000000Y5750000D03*
X108000000Y7950000D03*
%TD*%
D16*
%TO.C,D19*%
X112350000Y-5000000D03*
X115650000Y-5000000D03*
%TD*%
D12*
%TO.C,S20*%
X108000000Y19000000D03*
D13*
X113500000Y19000000D03*
X102500000Y19000000D03*
D14*
X113000000Y22750000D03*
X108000000Y24950000D03*
D15*
X104725000Y24950000D03*
X116275000Y22750000D03*
D14*
X103000000Y22750000D03*
X108000000Y24950000D03*
%TD*%
D16*
%TO.C,D20*%
X112350000Y12000000D03*
X115650000Y12000000D03*
%TD*%
D12*
%TO.C,S21*%
X108000000Y36000000D03*
D13*
X113500000Y36000000D03*
X102500000Y36000000D03*
D14*
X113000000Y39750000D03*
X108000000Y41950000D03*
D15*
X104725000Y41950000D03*
X116275000Y39750000D03*
D14*
X103000000Y39750000D03*
X108000000Y41950000D03*
%TD*%
D16*
%TO.C,D21*%
X112350000Y29000000D03*
X115650000Y29000000D03*
%TD*%
D12*
%TO.C,S22*%
X114000000Y-26000000D03*
D13*
X116237052Y-20975500D03*
X111762948Y-31024500D03*
D14*
X112607888Y-19907010D03*
X108564405Y-23579917D03*
D17*
X107232342Y-26571778D03*
X113939950Y-16915149D03*
D14*
X108540521Y-29042465D03*
X108564405Y-23579917D03*
%TD*%
D18*
%TO.C,D22*%
X122164123Y-24873234D03*
X123506353Y-21858534D03*
%TD*%
D12*
%TO.C,S23*%
X130155879Y-38885169D03*
D13*
X135012091Y-41467263D03*
X125299667Y-36303075D03*
D14*
X136331135Y-37921473D03*
X132949235Y-33631631D03*
D19*
X130057581Y-32094111D03*
X139222789Y-39458993D03*
D14*
X127501659Y-33226758D03*
X132949235Y-33631631D03*
%TD*%
D20*
%TO.C,D23*%
X130710399Y-47108004D03*
X133624127Y-48657260D03*
%TD*%
D12*
%TO.C,S24*%
X139545310Y-21226217D03*
D13*
X144401522Y-23808311D03*
X134689098Y-18644123D03*
D14*
X145720566Y-20262521D03*
X142338666Y-15972679D03*
D19*
X139447012Y-14435159D03*
X148612220Y-21800041D03*
D14*
X136891090Y-15567806D03*
X142338666Y-15972679D03*
%TD*%
D20*
%TO.C,D24*%
X140099831Y-29449052D03*
X143013559Y-30998308D03*
%TD*%
D12*
%TO.C,S25*%
X150134191Y-44977546D03*
D13*
X153129706Y-40364858D03*
X147138676Y-49590234D03*
D14*
X149712372Y-38741797D03*
X145144101Y-41736944D03*
D21*
X143360408Y-44483590D03*
X151496064Y-35995151D03*
D14*
X144265981Y-47128502D03*
X145144101Y-41736944D03*
%TD*%
D22*
%TO.C,D25*%
X158374065Y-45141802D03*
X160171373Y-42374190D03*
%TD*%
D12*
%TO.C,S26*%
X126000000Y1000000D03*
D13*
X131500000Y1000000D03*
X120500000Y1000000D03*
D14*
X131000000Y4750000D03*
X126000000Y6950000D03*
D15*
X122725000Y6950000D03*
X134275000Y4750000D03*
D14*
X121000000Y4750000D03*
X126000000Y6950000D03*
%TD*%
D16*
%TO.C,D26*%
X130350000Y-6000000D03*
X133650000Y-6000000D03*
%TD*%
D12*
%TO.C,S27*%
X70000000Y-20000000D03*
D13*
X75486602Y-20383661D03*
X64513398Y-19616339D03*
D14*
X75249407Y-16607917D03*
X70415051Y-14064494D03*
D23*
X67148029Y-13836041D03*
X78516429Y-16836370D03*
D14*
X65273767Y-15910352D03*
X70415051Y-14064494D03*
%TD*%
D24*
%TO.C,D27*%
X73851108Y-27286389D03*
X77143070Y-27516585D03*
%TD*%
D12*
%TO.C,S28*%
X91500000Y-23400000D03*
D13*
X96848035Y-24683950D03*
X86151965Y-22116050D03*
D14*
X97237270Y-20920840D03*
X92889000Y-17614399D03*
D25*
X89704488Y-16849865D03*
X100421781Y-21685373D03*
D14*
X87513571Y-18586386D03*
X92889000Y-17614399D03*
%TD*%
D26*
%TO.C,D28*%
X94095692Y-31222077D03*
X97304512Y-31992447D03*
%TD*%
D27*
%TO.C,MCU1*%
X121380000Y44720000D03*
X121380000Y42180000D03*
X121380000Y39640000D03*
X121380000Y37100000D03*
X121380000Y34560000D03*
X121380000Y32020000D03*
X121380000Y29480000D03*
X121380000Y26940000D03*
X121380000Y24400000D03*
X121380000Y21860000D03*
X121380000Y19320000D03*
X121380000Y16780000D03*
X136620000Y16780000D03*
X136620000Y19320000D03*
X136620000Y21860000D03*
X136620000Y24400000D03*
X136620000Y26940000D03*
X136620000Y29480000D03*
X136620000Y32020000D03*
X136620000Y34560000D03*
X136620000Y37100000D03*
X136620000Y39640000D03*
X136620000Y42180000D03*
X136620000Y44720000D03*
D28*
X136620000Y44720000D03*
D29*
X124174000Y44720000D03*
D30*
X123158000Y44720000D03*
X123158000Y42180000D03*
D29*
X124174000Y42180000D03*
D30*
X123158000Y39640000D03*
D29*
X124174000Y39640000D03*
D30*
X123158000Y37100000D03*
D29*
X124174000Y37100000D03*
D30*
X123158000Y34560000D03*
D29*
X124174000Y34560000D03*
D30*
X123158000Y32020000D03*
D29*
X124174000Y32020000D03*
D30*
X123158000Y29480000D03*
D29*
X124174000Y29480000D03*
D30*
X123158000Y26940000D03*
D29*
X124174000Y26940000D03*
D30*
X123158000Y24400000D03*
D29*
X124174000Y24400000D03*
D30*
X123158000Y21860000D03*
D29*
X124174000Y21860000D03*
D30*
X123158000Y19320000D03*
D29*
X124174000Y19320000D03*
D30*
X123158000Y16780000D03*
D29*
X124174000Y16780000D03*
D31*
X134842000Y44720000D03*
D32*
X133826000Y44720000D03*
X133826000Y42180000D03*
D31*
X134842000Y42180000D03*
D32*
X133826000Y39640000D03*
D31*
X134842000Y39640000D03*
D32*
X133826000Y37100000D03*
D31*
X134842000Y37100000D03*
D32*
X133826000Y34560000D03*
D31*
X134842000Y34560000D03*
D32*
X133826000Y32020000D03*
D31*
X134842000Y32020000D03*
D32*
X133826000Y29480000D03*
D31*
X134842000Y29480000D03*
D32*
X133826000Y26940000D03*
D31*
X134842000Y26940000D03*
D32*
X133826000Y24400000D03*
D31*
X134842000Y24400000D03*
D32*
X133826000Y21860000D03*
D31*
X134842000Y21860000D03*
D32*
X133826000Y19320000D03*
D31*
X134842000Y19320000D03*
D32*
X133826000Y16780000D03*
D31*
X134842000Y16780000D03*
%TD*%
D33*
%TO.C,*%
X114300000Y46000000D03*
X117700000Y46000000D03*
%TD*%
D34*
%TO.C,*%
X139330000Y7500000D03*
X139330000Y10500000D03*
X139330000Y7500000D03*
X139330000Y10500000D03*
D35*
X137570000Y11250000D03*
X137570000Y8250000D03*
X137570000Y6750000D03*
D36*
X140430000Y12650000D03*
X140430000Y5350000D03*
X138220000Y5350000D03*
X138220000Y12650000D03*
%TD*%
D37*
%TO.C,*%
X122000000Y12500000D03*
X122000000Y11000000D03*
%TD*%
M02*
