%TF.GenerationSoftware,KiCad,Pcbnew,6.0.7*%
%TF.CreationDate,2022-09-15T23:21:11-04:00*%
%TF.ProjectId,flutter_v2_wren,666c7574-7465-4725-9f76-325f7772656e,v1.0.0*%
%TF.SameCoordinates,Original*%
%TF.FileFunction,Paste,Bot*%
%TF.FilePolarity,Positive*%
%FSLAX46Y46*%
G04 Gerber Fmt 4.6, Leading zero omitted, Abs format (unit mm)*
G04 Created by KiCad (PCBNEW 6.0.7) date 2022-09-15 23:21:11*
%MOMM*%
%LPD*%
G01*
G04 APERTURE LIST*
G04 Aperture macros list*
%AMRotRect*
0 Rectangle, with rotation*
0 The origin of the aperture is its center*
0 $1 length*
0 $2 width*
0 $3 Rotation angle, in degrees counterclockwise*
0 Add horizontal line*
21,1,$1,$2,0,0,$3*%
G04 Aperture macros list end*
%ADD10R,2.600000X2.600000*%
%ADD11R,0.900000X1.200000*%
%ADD12RotRect,2.600000X2.600000X66.000000*%
%ADD13RotRect,0.900000X1.200000X246.000000*%
%ADD14RotRect,2.600000X2.600000X332.000000*%
%ADD15RotRect,0.900000X1.200000X152.000000*%
%ADD16RotRect,2.600000X2.600000X57.000000*%
%ADD17RotRect,0.900000X1.200000X237.000000*%
%ADD18RotRect,2.600000X2.600000X356.000000*%
%ADD19RotRect,0.900000X1.200000X176.000000*%
%ADD20RotRect,2.600000X2.600000X346.500000*%
%ADD21RotRect,0.900000X1.200000X166.500000*%
%ADD22R,0.900000X1.700000*%
%ADD23R,0.700000X1.500000*%
%ADD24R,1.000000X0.800000*%
G04 APERTURE END LIST*
D10*
%TO.C,S1*%
X-3275000Y5950000D03*
X8275000Y3750000D03*
%TD*%
D11*
%TO.C,D1*%
X4350000Y-7000000D03*
X7650000Y-7000000D03*
%TD*%
D10*
%TO.C,S2*%
X-3275000Y22950000D03*
X8275000Y20750000D03*
%TD*%
D11*
%TO.C,D2*%
X4350000Y10000000D03*
X7650000Y10000000D03*
%TD*%
D10*
%TO.C,S3*%
X-3275000Y39950000D03*
X8275000Y37750000D03*
%TD*%
D11*
%TO.C,D3*%
X4350000Y27000000D03*
X7650000Y27000000D03*
%TD*%
D10*
%TO.C,S4*%
X14725000Y5950000D03*
X26275000Y3750000D03*
%TD*%
D11*
%TO.C,D4*%
X22350000Y-7000000D03*
X25650000Y-7000000D03*
%TD*%
D10*
%TO.C,S5*%
X14725000Y22950000D03*
X26275000Y20750000D03*
%TD*%
D11*
%TO.C,D5*%
X22350000Y10000000D03*
X25650000Y10000000D03*
%TD*%
D10*
%TO.C,S6*%
X14725000Y39950000D03*
X26275000Y37750000D03*
%TD*%
D11*
%TO.C,D6*%
X22350000Y27000000D03*
X25650000Y27000000D03*
%TD*%
D10*
%TO.C,S7*%
X32725000Y7950000D03*
X44275000Y5750000D03*
%TD*%
D11*
%TO.C,D7*%
X40350000Y-5000000D03*
X43650000Y-5000000D03*
%TD*%
D10*
%TO.C,S8*%
X32725000Y24950000D03*
X44275000Y22750000D03*
%TD*%
D11*
%TO.C,D8*%
X40350000Y12000000D03*
X43650000Y12000000D03*
%TD*%
D10*
%TO.C,S9*%
X32725000Y41950000D03*
X44275000Y39750000D03*
%TD*%
D11*
%TO.C,D9*%
X40350000Y29000000D03*
X43650000Y29000000D03*
%TD*%
D10*
%TO.C,S10*%
X50725000Y9950000D03*
X62275000Y7750000D03*
%TD*%
D11*
%TO.C,D10*%
X58350000Y-3000000D03*
X61650000Y-3000000D03*
%TD*%
D10*
%TO.C,S11*%
X50725000Y26950000D03*
X62275000Y24750000D03*
%TD*%
D11*
%TO.C,D11*%
X58350000Y14000000D03*
X61650000Y14000000D03*
%TD*%
D10*
%TO.C,S12*%
X50725000Y43950000D03*
X62275000Y41750000D03*
%TD*%
D11*
%TO.C,D12*%
X58350000Y31000000D03*
X61650000Y31000000D03*
%TD*%
D10*
%TO.C,S13*%
X68725000Y10950000D03*
X80275000Y8750000D03*
%TD*%
D11*
%TO.C,D13*%
X76350000Y-2000000D03*
X79650000Y-2000000D03*
%TD*%
D10*
%TO.C,S14*%
X68725000Y27950000D03*
X80275000Y25750000D03*
%TD*%
D11*
%TO.C,D14*%
X76350000Y15000000D03*
X79650000Y15000000D03*
%TD*%
D10*
%TO.C,S15*%
X68725000Y44950000D03*
X80275000Y42750000D03*
%TD*%
D11*
%TO.C,D15*%
X76350000Y32000000D03*
X79650000Y32000000D03*
%TD*%
D10*
%TO.C,S16*%
X86725000Y8950000D03*
X98275000Y6750000D03*
%TD*%
D11*
%TO.C,D16*%
X94350000Y-4000000D03*
X97650000Y-4000000D03*
%TD*%
D10*
%TO.C,S17*%
X86725000Y25950000D03*
X98275000Y23750000D03*
%TD*%
D11*
%TO.C,D17*%
X94350000Y13000000D03*
X97650000Y13000000D03*
%TD*%
D10*
%TO.C,S18*%
X86725000Y42950000D03*
X98275000Y40750000D03*
%TD*%
D11*
%TO.C,D18*%
X94350000Y30000000D03*
X97650000Y30000000D03*
%TD*%
D10*
%TO.C,S19*%
X104725000Y7950000D03*
X116275000Y5750000D03*
%TD*%
D11*
%TO.C,D19*%
X112350000Y-5000000D03*
X115650000Y-5000000D03*
%TD*%
D10*
%TO.C,S20*%
X104725000Y24950000D03*
X116275000Y22750000D03*
%TD*%
D11*
%TO.C,D20*%
X112350000Y12000000D03*
X115650000Y12000000D03*
%TD*%
D10*
%TO.C,S21*%
X104725000Y41950000D03*
X116275000Y39750000D03*
%TD*%
D11*
%TO.C,D21*%
X112350000Y29000000D03*
X115650000Y29000000D03*
%TD*%
D12*
%TO.C,S22*%
X107232342Y-26571778D03*
X113939950Y-16915149D03*
%TD*%
D13*
%TO.C,D22*%
X122164123Y-24873234D03*
X123506353Y-21858534D03*
%TD*%
D14*
%TO.C,S23*%
X130057581Y-32094111D03*
X139222789Y-39458993D03*
%TD*%
D15*
%TO.C,D23*%
X130710399Y-47108004D03*
X133624127Y-48657260D03*
%TD*%
D14*
%TO.C,S24*%
X139447012Y-14435159D03*
X148612220Y-21800041D03*
%TD*%
D15*
%TO.C,D24*%
X140099831Y-29449052D03*
X143013559Y-30998308D03*
%TD*%
D16*
%TO.C,S25*%
X143360408Y-44483590D03*
X151496064Y-35995151D03*
%TD*%
D17*
%TO.C,D25*%
X158374065Y-45141802D03*
X160171373Y-42374190D03*
%TD*%
D10*
%TO.C,S26*%
X122725000Y6950000D03*
X134275000Y4750000D03*
%TD*%
D11*
%TO.C,D26*%
X130350000Y-6000000D03*
X133650000Y-6000000D03*
%TD*%
D18*
%TO.C,S27*%
X67148029Y-13836041D03*
X78516429Y-16836370D03*
%TD*%
D19*
%TO.C,D27*%
X73851108Y-27286389D03*
X77143070Y-27516585D03*
%TD*%
D20*
%TO.C,S28*%
X89704488Y-16849865D03*
X100421781Y-21685373D03*
%TD*%
D21*
%TO.C,D28*%
X94095692Y-31222077D03*
X97304512Y-31992447D03*
%TD*%
D22*
%TO.C,*%
X114300000Y46000000D03*
X117700000Y46000000D03*
%TD*%
D23*
%TO.C,*%
X137570000Y11250000D03*
X137570000Y8250000D03*
X137570000Y6750000D03*
D24*
X140430000Y12650000D03*
X140430000Y5350000D03*
X138220000Y5350000D03*
X138220000Y12650000D03*
%TD*%
M02*
