%TF.GenerationSoftware,KiCad,Pcbnew,6.0.7*%
%TF.CreationDate,2022-09-27T18:21:25-04:00*%
%TF.ProjectId,flutter_v2_wren,666c7574-7465-4725-9f76-325f7772656e,v1.0.0*%
%TF.SameCoordinates,Original*%
%TF.FileFunction,Legend,Bot*%
%TF.FilePolarity,Positive*%
%FSLAX46Y46*%
G04 Gerber Fmt 4.6, Leading zero omitted, Abs format (unit mm)*
G04 Created by KiCad (PCBNEW 6.0.7) date 2022-09-27 18:21:25*
%MOMM*%
%LPD*%
G01*
G04 APERTURE LIST*
%ADD10C,0.200000*%
%ADD11C,0.150000*%
%ADD12C,0.300000*%
%ADD13C,0.100000*%
%ADD14C,1.000000*%
G04 APERTURE END LIST*
D10*
X102713375Y-9681606D02*
X102499089Y-9753035D01*
X102141946Y-9753035D01*
X101999089Y-9681606D01*
X101927661Y-9610178D01*
X101856232Y-9467321D01*
X101856232Y-9324464D01*
X101927661Y-9181606D01*
X101999089Y-9110178D01*
X102141946Y-9038749D01*
X102427661Y-8967321D01*
X102570518Y-8895892D01*
X102641946Y-8824464D01*
X102713375Y-8681606D01*
X102713375Y-8538749D01*
X102641946Y-8395892D01*
X102570518Y-8324464D01*
X102427661Y-8253035D01*
X102070518Y-8253035D01*
X101856232Y-8324464D01*
X100641946Y-9681606D02*
X100784803Y-9753035D01*
X101070518Y-9753035D01*
X101213375Y-9681606D01*
X101284803Y-9538749D01*
X101284803Y-8967321D01*
X101213375Y-8824464D01*
X101070518Y-8753035D01*
X100784803Y-8753035D01*
X100641946Y-8824464D01*
X100570518Y-8967321D01*
X100570518Y-9110178D01*
X101284803Y-9253035D01*
X99927661Y-8753035D02*
X99927661Y-10253035D01*
X99927661Y-8824464D02*
X99784803Y-8753035D01*
X99499089Y-8753035D01*
X99356232Y-8824464D01*
X99284803Y-8895892D01*
X99213375Y-9038749D01*
X99213375Y-9467321D01*
X99284803Y-9610178D01*
X99356232Y-9681606D01*
X99499089Y-9753035D01*
X99784803Y-9753035D01*
X99927661Y-9681606D01*
X98570518Y-9610178D02*
X98499089Y-9681606D01*
X98570518Y-9753035D01*
X98641946Y-9681606D01*
X98570518Y-9610178D01*
X98570518Y-9753035D01*
X96784803Y-8395892D02*
X96713375Y-8324464D01*
X96570518Y-8253035D01*
X96213375Y-8253035D01*
X96070518Y-8324464D01*
X95999089Y-8395892D01*
X95927661Y-8538749D01*
X95927661Y-8681606D01*
X95999089Y-8895892D01*
X96856232Y-9753035D01*
X95927661Y-9753035D01*
X94999089Y-8253035D02*
X94856232Y-8253035D01*
X94713375Y-8324464D01*
X94641946Y-8395892D01*
X94570518Y-8538749D01*
X94499089Y-8824464D01*
X94499089Y-9181606D01*
X94570518Y-9467321D01*
X94641946Y-9610178D01*
X94713375Y-9681606D01*
X94856232Y-9753035D01*
X94999089Y-9753035D01*
X95141946Y-9681606D01*
X95213375Y-9610178D01*
X95284803Y-9467321D01*
X95356232Y-9181606D01*
X95356232Y-8824464D01*
X95284803Y-8538749D01*
X95213375Y-8395892D01*
X95141946Y-8324464D01*
X94999089Y-8253035D01*
X93927661Y-8395892D02*
X93856232Y-8324464D01*
X93713375Y-8253035D01*
X93356232Y-8253035D01*
X93213375Y-8324464D01*
X93141946Y-8395892D01*
X93070518Y-8538749D01*
X93070518Y-8681606D01*
X93141946Y-8895892D01*
X93999089Y-9753035D01*
X93070518Y-9753035D01*
X92499089Y-8395892D02*
X92427661Y-8324464D01*
X92284803Y-8253035D01*
X91927661Y-8253035D01*
X91784803Y-8324464D01*
X91713375Y-8395892D01*
X91641946Y-8538749D01*
X91641946Y-8681606D01*
X91713375Y-8895892D01*
X92570518Y-9753035D01*
X91641946Y-9753035D01*
X109369161Y-10550173D02*
X108869161Y-12050173D01*
X108369161Y-10550173D01*
X107940589Y-10693030D02*
X107869161Y-10621602D01*
X107726304Y-10550173D01*
X107369161Y-10550173D01*
X107226304Y-10621602D01*
X107154875Y-10693030D01*
X107083447Y-10835887D01*
X107083447Y-10978744D01*
X107154875Y-11193030D01*
X108012018Y-12050173D01*
X107083447Y-12050173D01*
X104797732Y-11264459D02*
X104583447Y-11335887D01*
X104512018Y-11407316D01*
X104440589Y-11550173D01*
X104440589Y-11764459D01*
X104512018Y-11907316D01*
X104583447Y-11978744D01*
X104726304Y-12050173D01*
X105297732Y-12050173D01*
X105297732Y-10550173D01*
X104797732Y-10550173D01*
X104654875Y-10621602D01*
X104583447Y-10693030D01*
X104512018Y-10835887D01*
X104512018Y-10978744D01*
X104583447Y-11121602D01*
X104654875Y-11193030D01*
X104797732Y-11264459D01*
X105297732Y-11264459D01*
X103940589Y-11050173D02*
X103583447Y-12050173D01*
X103226304Y-11050173D02*
X103583447Y-12050173D01*
X103726304Y-12407316D01*
X103797732Y-12478744D01*
X103940589Y-12550173D01*
X101726304Y-10550173D02*
X100869161Y-10550173D01*
X101297732Y-12050173D02*
X101297732Y-10550173D01*
X100369161Y-12050173D02*
X100369161Y-11050173D01*
X100369161Y-11335887D02*
X100297732Y-11193030D01*
X100226304Y-11121602D01*
X100083447Y-11050173D01*
X99940589Y-11050173D01*
X98869161Y-11978744D02*
X99012018Y-12050173D01*
X99297732Y-12050173D01*
X99440589Y-11978744D01*
X99512018Y-11835887D01*
X99512018Y-11264459D01*
X99440589Y-11121602D01*
X99297732Y-11050173D01*
X99012018Y-11050173D01*
X98869161Y-11121602D01*
X98797732Y-11264459D01*
X98797732Y-11407316D01*
X99512018Y-11550173D01*
X98154875Y-11050173D02*
X98154875Y-12050173D01*
X98154875Y-11193030D02*
X98083447Y-11121602D01*
X97940589Y-11050173D01*
X97726304Y-11050173D01*
X97583447Y-11121602D01*
X97512018Y-11264459D01*
X97512018Y-12050173D01*
X97012018Y-11050173D02*
X96440589Y-11050173D01*
X96797732Y-10550173D02*
X96797732Y-11835887D01*
X96726304Y-11978744D01*
X96583447Y-12050173D01*
X96440589Y-12050173D01*
X94869161Y-11978744D02*
X94654875Y-12050173D01*
X94297732Y-12050173D01*
X94154875Y-11978744D01*
X94083447Y-11907316D01*
X94012018Y-11764459D01*
X94012018Y-11621602D01*
X94083447Y-11478744D01*
X94154875Y-11407316D01*
X94297732Y-11335887D01*
X94583447Y-11264459D01*
X94726304Y-11193030D01*
X94797732Y-11121602D01*
X94869161Y-10978744D01*
X94869161Y-10835887D01*
X94797732Y-10693030D01*
X94726304Y-10621602D01*
X94583447Y-10550173D01*
X94226304Y-10550173D01*
X94012018Y-10621602D01*
X93154875Y-12050173D02*
X93297732Y-11978744D01*
X93369161Y-11835887D01*
X93369161Y-10550173D01*
X91940589Y-11050173D02*
X91940589Y-12050173D01*
X92583447Y-11050173D02*
X92583447Y-11835887D01*
X92512018Y-11978744D01*
X92369161Y-12050173D01*
X92154875Y-12050173D01*
X92012018Y-11978744D01*
X91940589Y-11907316D01*
X91440589Y-11050173D02*
X90869161Y-11050173D01*
X91226304Y-10550173D02*
X91226304Y-11835887D01*
X91154875Y-11978744D01*
X91012018Y-12050173D01*
X90869161Y-12050173D01*
X90512018Y-11050173D02*
X89726304Y-11050173D01*
X90512018Y-12050173D01*
X89726304Y-12050173D01*
X89154875Y-12050173D02*
X89154875Y-10550173D01*
X89012018Y-11478744D02*
X88583447Y-12050173D01*
X88583447Y-11050173D02*
X89154875Y-11621602D01*
X88083447Y-11050173D02*
X87726304Y-12050173D01*
X87369161Y-11050173D02*
X87726304Y-12050173D01*
X87869161Y-12407316D01*
X87940589Y-12478744D01*
X88083447Y-12550173D01*
D11*
X121296708Y13854107D02*
X122058613Y13854107D01*
X121677661Y13473155D02*
X121677661Y14235059D01*
D10*
X112820518Y46246964D02*
X112249089Y46246964D01*
X112606232Y45246964D02*
X112606232Y46532678D01*
X112534803Y46675536D01*
X112391946Y46746964D01*
X112249089Y46746964D01*
X111534803Y45246964D02*
X111677661Y45318393D01*
X111749089Y45461250D01*
X111749089Y46746964D01*
X110320518Y45246964D02*
X110320518Y46032678D01*
X110391946Y46175536D01*
X110534803Y46246964D01*
X110820518Y46246964D01*
X110963375Y46175536D01*
X110320518Y45318393D02*
X110463375Y45246964D01*
X110820518Y45246964D01*
X110963375Y45318393D01*
X111034803Y45461250D01*
X111034803Y45604107D01*
X110963375Y45746964D01*
X110820518Y45818393D01*
X110463375Y45818393D01*
X110320518Y45889821D01*
X109677661Y45318393D02*
X109534803Y45246964D01*
X109249089Y45246964D01*
X109106232Y45318393D01*
X109034803Y45461250D01*
X109034803Y45532678D01*
X109106232Y45675536D01*
X109249089Y45746964D01*
X109463375Y45746964D01*
X109606232Y45818393D01*
X109677661Y45961250D01*
X109677661Y46032678D01*
X109606232Y46175536D01*
X109463375Y46246964D01*
X109249089Y46246964D01*
X109106232Y46175536D01*
X108391946Y45246964D02*
X108391946Y46746964D01*
X107749089Y45246964D02*
X107749089Y46032678D01*
X107820518Y46175536D01*
X107963375Y46246964D01*
X108177661Y46246964D01*
X108320518Y46175536D01*
X108391946Y46104107D01*
D12*
X140168137Y15301726D02*
X139863375Y15301726D01*
X139710994Y15225536D01*
X139558613Y15073155D01*
X139482422Y14768393D01*
X139482422Y14235059D01*
X139558613Y13930297D01*
X139710994Y13777916D01*
X139863375Y13701726D01*
X140168137Y13701726D01*
X140320518Y13777916D01*
X140472899Y13930297D01*
X140549089Y14235059D01*
X140549089Y14768393D01*
X140472899Y15073155D01*
X140320518Y15225536D01*
X140168137Y15301726D01*
X138796708Y13701726D02*
X138796708Y15301726D01*
X137882422Y13701726D01*
X137882422Y15301726D01*
%TO.C,G\u002A\u002A\u002A*%
G36*
X80185722Y-4710729D02*
G01*
X80301191Y-4711601D01*
X80404827Y-4712940D01*
X80493435Y-4714682D01*
X80563822Y-4716759D01*
X80612795Y-4719106D01*
X80637161Y-4721658D01*
X80638998Y-4722297D01*
X80646244Y-4739169D01*
X80657874Y-4782240D01*
X80673464Y-4849545D01*
X80692592Y-4939118D01*
X80714837Y-5048993D01*
X80739776Y-5177205D01*
X80761862Y-5294228D01*
X80785063Y-5417262D01*
X80807138Y-5531615D01*
X80827453Y-5634212D01*
X80845377Y-5721977D01*
X80860279Y-5791833D01*
X80871526Y-5840705D01*
X80878486Y-5865516D01*
X80879694Y-5867860D01*
X80897259Y-5877808D01*
X80936919Y-5896213D01*
X80994639Y-5921447D01*
X81066387Y-5951878D01*
X81148130Y-5985876D01*
X81235836Y-6021811D01*
X81325472Y-6058052D01*
X81413005Y-6092968D01*
X81494402Y-6124930D01*
X81565630Y-6152307D01*
X81622657Y-6173468D01*
X81661450Y-6186783D01*
X81677976Y-6190621D01*
X81677997Y-6190613D01*
X81692928Y-6181414D01*
X81728743Y-6157778D01*
X81782805Y-6121491D01*
X81852479Y-6074338D01*
X81935128Y-6018104D01*
X82028116Y-5954575D01*
X82128806Y-5885536D01*
X82153188Y-5868783D01*
X82255632Y-5798803D01*
X82351422Y-5734206D01*
X82437861Y-5676749D01*
X82512251Y-5628188D01*
X82571896Y-5590280D01*
X82614098Y-5564781D01*
X82636160Y-5553447D01*
X82638086Y-5553029D01*
X82654175Y-5562904D01*
X82687344Y-5590747D01*
X82734918Y-5633884D01*
X82794225Y-5689638D01*
X82862589Y-5755336D01*
X82937338Y-5828302D01*
X83015797Y-5905861D01*
X83095293Y-5985339D01*
X83173151Y-6064061D01*
X83246698Y-6139352D01*
X83313260Y-6208537D01*
X83370163Y-6268941D01*
X83414732Y-6317890D01*
X83444295Y-6352708D01*
X83456177Y-6370721D01*
X83456291Y-6371528D01*
X83448426Y-6388737D01*
X83426032Y-6426625D01*
X83390906Y-6482423D01*
X83344846Y-6553363D01*
X83289652Y-6636679D01*
X83227121Y-6729602D01*
X83159051Y-6829365D01*
X83154685Y-6835720D01*
X83085802Y-6936174D01*
X83021701Y-7030137D01*
X82964277Y-7114795D01*
X82915427Y-7187333D01*
X82877044Y-7244935D01*
X82851026Y-7284786D01*
X82839267Y-7304071D01*
X82839105Y-7304408D01*
X82836900Y-7317685D01*
X82840071Y-7339731D01*
X82849596Y-7373231D01*
X82866451Y-7420870D01*
X82891614Y-7485332D01*
X82926063Y-7569304D01*
X82970775Y-7675469D01*
X82994282Y-7730678D01*
X83040032Y-7836417D01*
X83082196Y-7931066D01*
X83119370Y-8011658D01*
X83150148Y-8075222D01*
X83173126Y-8118792D01*
X83186898Y-8139397D01*
X83188210Y-8140397D01*
X83207474Y-8145967D01*
X83251590Y-8156016D01*
X83317305Y-8169887D01*
X83401365Y-8186920D01*
X83500518Y-8206459D01*
X83611510Y-8227844D01*
X83731088Y-8250419D01*
X83744170Y-8252861D01*
X83881224Y-8278847D01*
X84001885Y-8302583D01*
X84104072Y-8323621D01*
X84185702Y-8341509D01*
X84244696Y-8355796D01*
X84278972Y-8366033D01*
X84287031Y-8370335D01*
X84289620Y-8388283D01*
X84292021Y-8431609D01*
X84294168Y-8497119D01*
X84295995Y-8581621D01*
X84297436Y-8681921D01*
X84298427Y-8794826D01*
X84298900Y-8917143D01*
X84298929Y-8947708D01*
X84298837Y-9092590D01*
X84298379Y-9211412D01*
X84297468Y-9306685D01*
X84296018Y-9380917D01*
X84293941Y-9436620D01*
X84291150Y-9476302D01*
X84287559Y-9502476D01*
X84283081Y-9517649D01*
X84279000Y-9523394D01*
X84260722Y-9529743D01*
X84217604Y-9540430D01*
X84152931Y-9554767D01*
X84069991Y-9572069D01*
X83972069Y-9591650D01*
X83862452Y-9612824D01*
X83746858Y-9634457D01*
X83617064Y-9658816D01*
X83500607Y-9681548D01*
X83400112Y-9702090D01*
X83318206Y-9719879D01*
X83257513Y-9734351D01*
X83220660Y-9744944D01*
X83210752Y-9749466D01*
X83199441Y-9767612D01*
X83179784Y-9808111D01*
X83153350Y-9867058D01*
X83121710Y-9940550D01*
X83086435Y-10024683D01*
X83049093Y-10115553D01*
X83011255Y-10209257D01*
X82974492Y-10301892D01*
X82940374Y-10389552D01*
X82910470Y-10468336D01*
X82886351Y-10534339D01*
X82869587Y-10583657D01*
X82861748Y-10612387D01*
X82861567Y-10617602D01*
X82870974Y-10633115D01*
X82894728Y-10669402D01*
X82930972Y-10723708D01*
X82977850Y-10793278D01*
X83033504Y-10875353D01*
X83096077Y-10967179D01*
X83162342Y-11064002D01*
X83229765Y-11163032D01*
X83291743Y-11255454D01*
X83346456Y-11338447D01*
X83392087Y-11409192D01*
X83426814Y-11464869D01*
X83448820Y-11502659D01*
X83456291Y-11519588D01*
X83446441Y-11535532D01*
X83418671Y-11568601D01*
X83375649Y-11616119D01*
X83320043Y-11675408D01*
X83254521Y-11743789D01*
X83181752Y-11818586D01*
X83104403Y-11897120D01*
X83025142Y-11976714D01*
X82946638Y-12054690D01*
X82871559Y-12128370D01*
X82802573Y-12195077D01*
X82742348Y-12252132D01*
X82693552Y-12296859D01*
X82658854Y-12326578D01*
X82640921Y-12338614D01*
X82640073Y-12338743D01*
X82623550Y-12330895D01*
X82586353Y-12308564D01*
X82531270Y-12273572D01*
X82461091Y-12227738D01*
X82378605Y-12172885D01*
X82286600Y-12110832D01*
X82191484Y-12045886D01*
X82092826Y-11978585D01*
X82000874Y-11916734D01*
X81918437Y-11862155D01*
X81848325Y-11816674D01*
X81793346Y-11782112D01*
X81756311Y-11760293D01*
X81740241Y-11753029D01*
X81719357Y-11759555D01*
X81678605Y-11777511D01*
X81623099Y-11804465D01*
X81557955Y-11837986D01*
X81528029Y-11853934D01*
X81456179Y-11891238D01*
X81393507Y-11921125D01*
X81344739Y-11941505D01*
X81314605Y-11950286D01*
X81310013Y-11950362D01*
X81302735Y-11946441D01*
X81293284Y-11935403D01*
X81280889Y-11915518D01*
X81264778Y-11885051D01*
X81244182Y-11842269D01*
X81218329Y-11785440D01*
X81186449Y-11712830D01*
X81147770Y-11622706D01*
X81101521Y-11513335D01*
X81046932Y-11382984D01*
X80983233Y-11229920D01*
X80909651Y-11052409D01*
X80896732Y-11021194D01*
X80833168Y-10867000D01*
X80773140Y-10720246D01*
X80717507Y-10583105D01*
X80667128Y-10457749D01*
X80622863Y-10346353D01*
X80585571Y-10251089D01*
X80556113Y-10174131D01*
X80535346Y-10117652D01*
X80524132Y-10083826D01*
X80522435Y-10074765D01*
X80537025Y-10058140D01*
X80570136Y-10029821D01*
X80616567Y-9994038D01*
X80661390Y-9961772D01*
X80779935Y-9874432D01*
X80876744Y-9791924D01*
X80956750Y-9708829D01*
X81024887Y-9619725D01*
X81086085Y-9519191D01*
X81116087Y-9462022D01*
X81183278Y-9297710D01*
X81223547Y-9128053D01*
X81237336Y-8955935D01*
X81225085Y-8784240D01*
X81187234Y-8615851D01*
X81124222Y-8453653D01*
X81036490Y-8300529D01*
X80924479Y-8159363D01*
X80915865Y-8150137D01*
X80781875Y-8027589D01*
X80632242Y-7928006D01*
X80465048Y-7850203D01*
X80384358Y-7822229D01*
X80337319Y-7808638D01*
X80292977Y-7799239D01*
X80244295Y-7793296D01*
X80184237Y-7790076D01*
X80105767Y-7788844D01*
X80063433Y-7788743D01*
X79974501Y-7789335D01*
X79907068Y-7791600D01*
X79854078Y-7796274D01*
X79808476Y-7804091D01*
X79763204Y-7815787D01*
X79742005Y-7822215D01*
X79567669Y-7890840D01*
X79409388Y-7982191D01*
X79268804Y-8094884D01*
X79147559Y-8227533D01*
X79047295Y-8378753D01*
X79019533Y-8431600D01*
X78961681Y-8563370D01*
X78923654Y-8688142D01*
X78902916Y-8816706D01*
X78896919Y-8953029D01*
X78910583Y-9136013D01*
X78951095Y-9310580D01*
X79017731Y-9474937D01*
X79109768Y-9627291D01*
X79223770Y-9763082D01*
X79274909Y-9810878D01*
X79341338Y-9866616D01*
X79414414Y-9923592D01*
X79485492Y-9975099D01*
X79545927Y-10014429D01*
X79553307Y-10018731D01*
X79586189Y-10043764D01*
X79605987Y-10070419D01*
X79607261Y-10074313D01*
X79603176Y-10093080D01*
X79588465Y-10136699D01*
X79563694Y-10203736D01*
X79529428Y-10292754D01*
X79486233Y-10402318D01*
X79434675Y-10530992D01*
X79375318Y-10677341D01*
X79308728Y-10839928D01*
X79242816Y-10999596D01*
X79179744Y-11151738D01*
X79119604Y-11296579D01*
X79063330Y-11431880D01*
X79011856Y-11555406D01*
X78966118Y-11664920D01*
X78927050Y-11758186D01*
X78895587Y-11832967D01*
X78872663Y-11887027D01*
X78859214Y-11918128D01*
X78856216Y-11924596D01*
X78833064Y-11947395D01*
X78813915Y-11953029D01*
X78792225Y-11946489D01*
X78750737Y-11928494D01*
X78694620Y-11901475D01*
X78629043Y-11867868D01*
X78598593Y-11851658D01*
X78514767Y-11808125D01*
X78448631Y-11777184D01*
X78402398Y-11759798D01*
X78379751Y-11756509D01*
X78359666Y-11766160D01*
X78319896Y-11789868D01*
X78264134Y-11825262D01*
X78196071Y-11869971D01*
X78119399Y-11921622D01*
X78070576Y-11955113D01*
X77938638Y-12046118D01*
X77828177Y-12122026D01*
X77737258Y-12184109D01*
X77663943Y-12233642D01*
X77606294Y-12271897D01*
X77562375Y-12300149D01*
X77530248Y-12319671D01*
X77507975Y-12331737D01*
X77493621Y-12337620D01*
X77487078Y-12338743D01*
X77472267Y-12328955D01*
X77439687Y-12301055D01*
X77391668Y-12257239D01*
X77330535Y-12199704D01*
X77258620Y-12130646D01*
X77178248Y-12052261D01*
X77091750Y-11966745D01*
X77074657Y-11949715D01*
X76987495Y-11862337D01*
X76906715Y-11780538D01*
X76834573Y-11706664D01*
X76773324Y-11643059D01*
X76725225Y-11592070D01*
X76692531Y-11556044D01*
X76677497Y-11537326D01*
X76676838Y-11535968D01*
X76674308Y-11527596D01*
X76673424Y-11519039D01*
X76675625Y-11507980D01*
X76682349Y-11492097D01*
X76695034Y-11469072D01*
X76715120Y-11436585D01*
X76744045Y-11392317D01*
X76783247Y-11333948D01*
X76834165Y-11259159D01*
X76898237Y-11165631D01*
X76976903Y-11051043D01*
X76984063Y-11040616D01*
X77050558Y-10943201D01*
X77111593Y-10852688D01*
X77165328Y-10771888D01*
X77209924Y-10703616D01*
X77243540Y-10650683D01*
X77264338Y-10615902D01*
X77270576Y-10602493D01*
X77265433Y-10584499D01*
X77250863Y-10543400D01*
X77228154Y-10482575D01*
X77198593Y-10405405D01*
X77163468Y-10315271D01*
X77124066Y-10215554D01*
X77104363Y-10166154D01*
X77054484Y-10042439D01*
X77013562Y-9943274D01*
X76980577Y-9866435D01*
X76954509Y-9809699D01*
X76934338Y-9770843D01*
X76919043Y-9747644D01*
X76907934Y-9738010D01*
X76887240Y-9732559D01*
X76841826Y-9722684D01*
X76775083Y-9709054D01*
X76690407Y-9692341D01*
X76591188Y-9673215D01*
X76480821Y-9652346D01*
X76372154Y-9632147D01*
X76255056Y-9610218D01*
X76146475Y-9589234D01*
X76049713Y-9569883D01*
X75968074Y-9552854D01*
X75904859Y-9538833D01*
X75863373Y-9528509D01*
X75847154Y-9522803D01*
X75842100Y-9513885D01*
X75837960Y-9494708D01*
X75834653Y-9462848D01*
X75832099Y-9415878D01*
X75830214Y-9351374D01*
X75828918Y-9266911D01*
X75828130Y-9160063D01*
X75827767Y-9028405D01*
X75827719Y-8944466D01*
X75827719Y-8382259D01*
X75859862Y-8362428D01*
X75880918Y-8355392D01*
X75926754Y-8344064D01*
X75994018Y-8329144D01*
X76079357Y-8311331D01*
X76179418Y-8291323D01*
X76290850Y-8269822D01*
X76410301Y-8247525D01*
X76413433Y-8246950D01*
X76532320Y-8224768D01*
X76642647Y-8203463D01*
X76741176Y-8183716D01*
X76824672Y-8166207D01*
X76889897Y-8151615D01*
X76933615Y-8140619D01*
X76952589Y-8133899D01*
X76952818Y-8133699D01*
X76963182Y-8116081D01*
X76982674Y-8076163D01*
X77009546Y-8018013D01*
X77042045Y-7945698D01*
X77078424Y-7863282D01*
X77116931Y-7774834D01*
X77155817Y-7684419D01*
X77193331Y-7596104D01*
X77227724Y-7513955D01*
X77257246Y-7442039D01*
X77280146Y-7384421D01*
X77294675Y-7345170D01*
X77299148Y-7328941D01*
X77291295Y-7312576D01*
X77268920Y-7275449D01*
X77233793Y-7220265D01*
X77187686Y-7149731D01*
X77132371Y-7066553D01*
X77069620Y-6973436D01*
X77001204Y-6873088D01*
X76990325Y-6857234D01*
X76920880Y-6755667D01*
X76856502Y-6660652D01*
X76799017Y-6574947D01*
X76750250Y-6501310D01*
X76712024Y-6442500D01*
X76686165Y-6401274D01*
X76674498Y-6380392D01*
X76674101Y-6379251D01*
X76676241Y-6367708D01*
X76687940Y-6348271D01*
X76710726Y-6319270D01*
X76746126Y-6279038D01*
X76795664Y-6225903D01*
X76860869Y-6158197D01*
X76943265Y-6074250D01*
X77044380Y-5972393D01*
X77064726Y-5951988D01*
X77166016Y-5851142D01*
X77256394Y-5762530D01*
X77334323Y-5687595D01*
X77398266Y-5627780D01*
X77446684Y-5584530D01*
X77478040Y-5559288D01*
X77489714Y-5553029D01*
X77507247Y-5560882D01*
X77545483Y-5583253D01*
X77601661Y-5618357D01*
X77673020Y-5664410D01*
X77756798Y-5719627D01*
X77850235Y-5782225D01*
X77950570Y-5850418D01*
X77961483Y-5857892D01*
X78062760Y-5927181D01*
X78157591Y-5991821D01*
X78243168Y-6049916D01*
X78316682Y-6099570D01*
X78375325Y-6138887D01*
X78416289Y-6165968D01*
X78436764Y-6178920D01*
X78437483Y-6179315D01*
X78450006Y-6183123D01*
X78468382Y-6182570D01*
X78495715Y-6176626D01*
X78535111Y-6164262D01*
X78589675Y-6144445D01*
X78662514Y-6116145D01*
X78756732Y-6078332D01*
X78823197Y-6051310D01*
X78940897Y-6003258D01*
X79034885Y-5964624D01*
X79107923Y-5934081D01*
X79162771Y-5910302D01*
X79202190Y-5891957D01*
X79228943Y-5877720D01*
X79245790Y-5866263D01*
X79255493Y-5856257D01*
X79260813Y-5846375D01*
X79263111Y-5839758D01*
X79267652Y-5819779D01*
X79276745Y-5774980D01*
X79289756Y-5708639D01*
X79306057Y-5624033D01*
X79325015Y-5524441D01*
X79345999Y-5413139D01*
X79368380Y-5293406D01*
X79370676Y-5281062D01*
X79393333Y-5161019D01*
X79415032Y-5049427D01*
X79435099Y-4949504D01*
X79452860Y-4864469D01*
X79467641Y-4797540D01*
X79478768Y-4751938D01*
X79485568Y-4730881D01*
X79486021Y-4730203D01*
X79494541Y-4725012D01*
X79512317Y-4720770D01*
X79541847Y-4717390D01*
X79585630Y-4714788D01*
X79646166Y-4712876D01*
X79725954Y-4711569D01*
X79827493Y-4710781D01*
X79953282Y-4710426D01*
X80061611Y-4710390D01*
X80185722Y-4710729D01*
G37*
D13*
%TO.C,D1*%
X5750000Y-7400000D02*
X5750000Y-6600000D01*
X6350000Y-7000000D02*
X5750000Y-7400000D01*
X6350000Y-7000000D02*
X6350000Y-6450000D01*
X5750000Y-6600000D02*
X6350000Y-7000000D01*
X6750000Y-7000000D02*
X6350000Y-7000000D01*
X5750000Y-7000000D02*
X5250000Y-7000000D01*
X6350000Y-7000000D02*
X6350000Y-7550000D01*
%TO.C,D2*%
X6350000Y10000000D02*
X6350000Y9450000D01*
X6350000Y10000000D02*
X5750000Y9600000D01*
X6750000Y10000000D02*
X6350000Y10000000D01*
X5750000Y10400000D02*
X6350000Y10000000D01*
X6350000Y10000000D02*
X6350000Y10550000D01*
X5750000Y9600000D02*
X5750000Y10400000D01*
X5750000Y10000000D02*
X5250000Y10000000D01*
%TO.C,D3*%
X6350000Y27000000D02*
X6350000Y27550000D01*
X5750000Y27000000D02*
X5250000Y27000000D01*
X6750000Y27000000D02*
X6350000Y27000000D01*
X5750000Y27400000D02*
X6350000Y27000000D01*
X6350000Y27000000D02*
X5750000Y26600000D01*
X6350000Y27000000D02*
X6350000Y26450000D01*
X5750000Y26600000D02*
X5750000Y27400000D01*
%TO.C,D24*%
X141865727Y-30387995D02*
X141607517Y-30873616D01*
X141523747Y-29753133D02*
X141865727Y-30387995D01*
X141865727Y-30387995D02*
X141148169Y-30459491D01*
X142218906Y-30575784D02*
X141865727Y-30387995D01*
X141335958Y-30106312D02*
X140894484Y-29871576D01*
X141865727Y-30387995D02*
X142123936Y-29902374D01*
X141148169Y-30459491D02*
X141523747Y-29753133D01*
%TO.C,D23*%
X132134315Y-47412085D02*
X132476295Y-48046947D01*
X131946526Y-47765264D02*
X131505052Y-47530528D01*
X132476295Y-48046947D02*
X132218085Y-48532568D01*
X132476295Y-48046947D02*
X132734504Y-47561326D01*
X132829474Y-48234736D02*
X132476295Y-48046947D01*
X131758737Y-48118443D02*
X132134315Y-47412085D01*
X132476295Y-48046947D02*
X131758737Y-48118443D01*
%TO.C,D17*%
X96350000Y13000000D02*
X96350000Y12450000D01*
X95750000Y13400000D02*
X96350000Y13000000D01*
X96350000Y13000000D02*
X96350000Y13550000D01*
X95750000Y13000000D02*
X95250000Y13000000D01*
X96750000Y13000000D02*
X96350000Y13000000D01*
X96350000Y13000000D02*
X95750000Y12600000D01*
X95750000Y12600000D02*
X95750000Y13400000D01*
%TO.C,D11*%
X59750000Y14400000D02*
X60350000Y14000000D01*
X60750000Y14000000D02*
X60350000Y14000000D01*
X60350000Y14000000D02*
X60350000Y14550000D01*
X60350000Y14000000D02*
X59750000Y13600000D01*
X59750000Y13600000D02*
X59750000Y14400000D01*
X59750000Y14000000D02*
X59250000Y14000000D01*
X60350000Y14000000D02*
X60350000Y13450000D01*
%TO.C,D19*%
X114350000Y-5000000D02*
X114350000Y-4450000D01*
X113750000Y-5400000D02*
X113750000Y-4600000D01*
X114750000Y-5000000D02*
X114350000Y-5000000D01*
X113750000Y-5000000D02*
X113250000Y-5000000D01*
X113750000Y-4600000D02*
X114350000Y-5000000D01*
X114350000Y-5000000D02*
X113750000Y-5400000D01*
X114350000Y-5000000D02*
X114350000Y-5550000D01*
%TO.C,D20*%
X114350000Y12000000D02*
X114350000Y12550000D01*
X114750000Y12000000D02*
X114350000Y12000000D01*
X113750000Y12000000D02*
X113250000Y12000000D01*
X113750000Y11600000D02*
X113750000Y12400000D01*
X114350000Y12000000D02*
X114350000Y11450000D01*
X113750000Y12400000D02*
X114350000Y12000000D01*
X114350000Y12000000D02*
X113750000Y11600000D01*
%TO.C,D18*%
X95750000Y29600000D02*
X95750000Y30400000D01*
X96350000Y30000000D02*
X96350000Y29450000D01*
X95750000Y30000000D02*
X95250000Y30000000D01*
X96750000Y30000000D02*
X96350000Y30000000D01*
X96350000Y30000000D02*
X95750000Y29600000D01*
X95750000Y30400000D02*
X96350000Y30000000D01*
X96350000Y30000000D02*
X96350000Y30550000D01*
%TO.C,D10*%
X60750000Y-3000000D02*
X60350000Y-3000000D01*
X59750000Y-2600000D02*
X60350000Y-3000000D01*
X59750000Y-3400000D02*
X59750000Y-2600000D01*
X60350000Y-3000000D02*
X60350000Y-2450000D01*
X59750000Y-3000000D02*
X59250000Y-3000000D01*
X60350000Y-3000000D02*
X59750000Y-3400000D01*
X60350000Y-3000000D02*
X60350000Y-3550000D01*
%TO.C,D13*%
X78350000Y-2000000D02*
X77750000Y-2400000D01*
X77750000Y-1600000D02*
X78350000Y-2000000D01*
X77750000Y-2400000D02*
X77750000Y-1600000D01*
X78750000Y-2000000D02*
X78350000Y-2000000D01*
X78350000Y-2000000D02*
X78350000Y-2550000D01*
X77750000Y-2000000D02*
X77250000Y-2000000D01*
X78350000Y-2000000D02*
X78350000Y-1450000D01*
%TO.C,D15*%
X78350000Y32000000D02*
X78350000Y31450000D01*
X78350000Y32000000D02*
X77750000Y31600000D01*
X77750000Y32400000D02*
X78350000Y32000000D01*
X78350000Y32000000D02*
X78350000Y32550000D01*
X78750000Y32000000D02*
X78350000Y32000000D01*
X77750000Y32000000D02*
X77250000Y32000000D01*
X77750000Y31600000D02*
X77750000Y32400000D01*
%TO.C,D26*%
X132350000Y-6000000D02*
X132350000Y-6550000D01*
X132350000Y-6000000D02*
X131750000Y-6400000D01*
X131750000Y-5600000D02*
X132350000Y-6000000D01*
X131750000Y-6400000D02*
X131750000Y-5600000D01*
X132750000Y-6000000D02*
X132350000Y-6000000D01*
X132350000Y-6000000D02*
X132350000Y-5450000D01*
X131750000Y-6000000D02*
X131250000Y-6000000D01*
%TO.C,D4*%
X23750000Y-7400000D02*
X23750000Y-6600000D01*
X24350000Y-7000000D02*
X24350000Y-6450000D01*
X24350000Y-7000000D02*
X24350000Y-7550000D01*
X23750000Y-7000000D02*
X23250000Y-7000000D01*
X24750000Y-7000000D02*
X24350000Y-7000000D01*
X24350000Y-7000000D02*
X23750000Y-7400000D01*
X23750000Y-6600000D02*
X24350000Y-7000000D01*
%TO.C,D7*%
X42350000Y-5000000D02*
X42350000Y-4450000D01*
X42750000Y-5000000D02*
X42350000Y-5000000D01*
X42350000Y-5000000D02*
X41750000Y-5400000D01*
X41750000Y-4600000D02*
X42350000Y-5000000D01*
X41750000Y-5400000D02*
X41750000Y-4600000D01*
X41750000Y-5000000D02*
X41250000Y-5000000D01*
X42350000Y-5000000D02*
X42350000Y-5550000D01*
%TO.C,D16*%
X96350000Y-4000000D02*
X96350000Y-4550000D01*
X96750000Y-4000000D02*
X96350000Y-4000000D01*
X96350000Y-4000000D02*
X95750000Y-4400000D01*
X95750000Y-4400000D02*
X95750000Y-3600000D01*
X96350000Y-4000000D02*
X96350000Y-3450000D01*
X95750000Y-4000000D02*
X95250000Y-4000000D01*
X95750000Y-3600000D02*
X96350000Y-4000000D01*
%TO.C,D8*%
X42750000Y12000000D02*
X42350000Y12000000D01*
X42350000Y12000000D02*
X42350000Y11450000D01*
X41750000Y12000000D02*
X41250000Y12000000D01*
X41750000Y11600000D02*
X41750000Y12400000D01*
X42350000Y12000000D02*
X41750000Y11600000D01*
X42350000Y12000000D02*
X42350000Y12550000D01*
X41750000Y12400000D02*
X42350000Y12000000D01*
%TO.C,D22*%
X123098972Y-23756965D02*
X122368136Y-23431576D01*
X122977596Y-23046143D02*
X123480046Y-23269848D01*
X122733554Y-23594270D02*
X122530186Y-24051043D01*
X122368136Y-23431576D02*
X122977596Y-23046143D01*
X122977596Y-23046143D02*
X123098972Y-23756965D01*
X123140290Y-22680725D02*
X122977596Y-23046143D01*
X122977596Y-23046143D02*
X122475146Y-22822438D01*
%TO.C,D27*%
X76245262Y-27453804D02*
X75846236Y-27425902D01*
X75846236Y-27425902D02*
X75884602Y-26877242D01*
X75247698Y-27384048D02*
X74748916Y-27349170D01*
X75846236Y-27425902D02*
X75807870Y-27974562D01*
X75275601Y-26985022D02*
X75846236Y-27425902D01*
X75219795Y-27783074D02*
X75275601Y-26985022D01*
X75846236Y-27425902D02*
X75219795Y-27783074D01*
%TO.C,D25*%
X159472027Y-44185519D02*
X158801091Y-43749808D01*
X159681198Y-43128993D02*
X159463343Y-43464461D01*
X159463343Y-43464461D02*
X159002074Y-43164910D01*
X158801091Y-43749808D02*
X159463343Y-43464461D01*
X159463343Y-43464461D02*
X159472027Y-44185519D01*
X159463343Y-43464461D02*
X159924611Y-43764013D01*
X159136559Y-43967664D02*
X158864240Y-44386999D01*
%TO.C,D28*%
X95363631Y-31937849D02*
X95550388Y-31159953D01*
X96040431Y-31688968D02*
X95912037Y-32223771D01*
X96040431Y-31688968D02*
X96168826Y-31154164D01*
X95457010Y-31548901D02*
X94970825Y-31432178D01*
X95550388Y-31159953D02*
X96040431Y-31688968D01*
X96040431Y-31688968D02*
X95363631Y-31937849D01*
X96429379Y-31782346D02*
X96040431Y-31688968D01*
%TO.C,D21*%
X113750000Y29000000D02*
X113250000Y29000000D01*
X114750000Y29000000D02*
X114350000Y29000000D01*
X113750000Y29400000D02*
X114350000Y29000000D01*
X114350000Y29000000D02*
X114350000Y29550000D01*
X113750000Y28600000D02*
X113750000Y29400000D01*
X114350000Y29000000D02*
X113750000Y28600000D01*
X114350000Y29000000D02*
X114350000Y28450000D01*
%TO.C,D9*%
X41750000Y29000000D02*
X41250000Y29000000D01*
X42750000Y29000000D02*
X42350000Y29000000D01*
X41750000Y28600000D02*
X41750000Y29400000D01*
X42350000Y29000000D02*
X42350000Y28450000D01*
X42350000Y29000000D02*
X41750000Y28600000D01*
X42350000Y29000000D02*
X42350000Y29550000D01*
X41750000Y29400000D02*
X42350000Y29000000D01*
%TO.C,D12*%
X59750000Y30600000D02*
X59750000Y31400000D01*
X60750000Y31000000D02*
X60350000Y31000000D01*
X60350000Y31000000D02*
X60350000Y31550000D01*
X60350000Y31000000D02*
X60350000Y30450000D01*
X59750000Y31000000D02*
X59250000Y31000000D01*
X60350000Y31000000D02*
X59750000Y30600000D01*
X59750000Y31400000D02*
X60350000Y31000000D01*
%TO.C,D5*%
X24350000Y10000000D02*
X24350000Y9450000D01*
X23750000Y9600000D02*
X23750000Y10400000D01*
X23750000Y10000000D02*
X23250000Y10000000D01*
X24350000Y10000000D02*
X23750000Y9600000D01*
X24750000Y10000000D02*
X24350000Y10000000D01*
X23750000Y10400000D02*
X24350000Y10000000D01*
X24350000Y10000000D02*
X24350000Y10550000D01*
D11*
%TO.C,MCU1*%
X135350000Y43450000D02*
X137890000Y43450000D01*
X137890000Y43450000D02*
X137890000Y45990000D01*
X135350000Y45990000D02*
X137890000Y45990000D01*
X135350000Y45990000D02*
X135350000Y43450000D01*
D13*
%TO.C,D14*%
X78350000Y15000000D02*
X77750000Y14600000D01*
X78350000Y15000000D02*
X78350000Y14450000D01*
X78350000Y15000000D02*
X78350000Y15550000D01*
X77750000Y14600000D02*
X77750000Y15400000D01*
X77750000Y15400000D02*
X78350000Y15000000D01*
X77750000Y15000000D02*
X77250000Y15000000D01*
X78750000Y15000000D02*
X78350000Y15000000D01*
%TO.C,D6*%
X24350000Y27000000D02*
X24350000Y27550000D01*
X23750000Y27000000D02*
X23250000Y27000000D01*
X24350000Y27000000D02*
X24350000Y26450000D01*
X24750000Y27000000D02*
X24350000Y27000000D01*
X23750000Y27400000D02*
X24350000Y27000000D01*
X23750000Y26600000D02*
X23750000Y27400000D01*
X24350000Y27000000D02*
X23750000Y26600000D01*
%TD*%
D14*
%TO.C,*%
X120677661Y11675536D03*
X120677661Y13175536D03*
%TD*%
M02*
