M48
; DRILL file {KiCad 6.0.7} date Tue 27 Sep 2022 06:21:22 PM EDT
; FORMAT={-:-/ absolute / inch / decimal}
; #@! TF.CreationDate,2022-09-27T18:21:22-04:00
; #@! TF.GenerationSoftware,Kicad,Pcbnew,6.0.7
; #@! TF.FileFunction,Plated,1,2,PTH
FMAT,2
INCH
; #@! TA.AperFunction,Plated,PTH,ComponentDrill
T1C0.0118
; #@! TA.AperFunction,Plated,PTH,ViaDrill
T2C0.0157
; #@! TA.AperFunction,Plated,PTH,ComponentDrill
T3C0.0157
; #@! TA.AperFunction,Plated,PTH,ComponentDrill
T4C0.0276
; #@! TA.AperFunction,Plated,PTH,ComponentDrill
T5C0.0433
; #@! TA.AperFunction,Plated,PTH,ComponentDrill
T6C0.0866
%
G90
G05
T1
X0.315Y1.122
X0.315Y0.4528
X0.315Y-0.2165
X1.0236Y1.122
X1.0236Y0.4528
X1.0236Y-0.2165
X1.7323Y1.2008
X1.7323Y0.5315
X1.7323Y-0.1378
X2.4409Y1.2795
X2.4409Y0.6102
X2.4409Y-0.0591
X3.055Y-1.0254
X3.1496Y1.3189
X3.1496Y0.6496
X3.1496Y-0.0197
X3.8581Y-1.2053
X3.8583Y1.2402
X3.8583Y0.5709
X3.8583Y-0.0984
X4.5669Y1.2008
X4.5669Y0.5315
X4.5669Y-0.1378
X4.8141Y-0.824
X5.2756Y-0.1772
X5.3007Y-1.87
X5.6703Y-1.1747
X6.2639Y-1.6246
T2
X0.0Y0.7874
X0.0Y0.1181
X0.7087Y0.7874
X0.7087Y0.1181
X1.3976Y0.1969
X1.4173Y0.8661
X2.126Y0.9252
X2.126Y0.2756
X2.815Y0.315
X2.8346Y0.9843
X3.5433Y0.9055
X3.5433Y0.2165
X3.5433Y-0.1969
X4.252Y0.8661
X4.252Y0.1969
X4.4955Y1.683
X4.5276Y1.437
X4.602Y1.6992
X4.6413Y0.5424
X4.6795Y0.8657
X4.685Y0.8071
X4.6871Y1.8573
X4.7068Y1.7003
X4.9409Y-0.3346
X4.9606Y0.1575
X5.1181Y-1.1417
X5.2953Y-1.0236
X5.3543Y-1.2008
X5.4353Y1.203
X5.4844Y0.4599
X5.4845Y0.2497
X5.5906Y-1.2795
T3
X5.0487Y1.7606
X5.0487Y1.6606
X5.0487Y1.5606
X5.0487Y1.4606
X5.0487Y1.3606
X5.0487Y1.2606
X5.0487Y1.1606
X5.0487Y1.0606
X5.0487Y0.9606
X5.0487Y0.8606
X5.0487Y0.7606
X5.0487Y0.6606
X5.1087Y1.7606
X5.1087Y1.6606
X5.1087Y1.5606
X5.1087Y1.4606
X5.1087Y1.3606
X5.1087Y1.2606
X5.1087Y1.1606
X5.1087Y1.0606
X5.1087Y0.9606
X5.1087Y0.8606
X5.1087Y0.7606
X5.1087Y0.6606
T4
X4.7511Y0.5187
X4.7511Y0.4597
T5
X4.7787Y1.7606
X4.7787Y1.7606
X4.7787Y1.6606
X4.7787Y1.5606
X4.7787Y1.4606
X4.7787Y1.3606
X4.7787Y1.2606
X4.7787Y1.1606
X4.7787Y1.0606
X4.7787Y0.9606
X4.7787Y0.8606
X4.7787Y0.7606
X4.7787Y0.6606
X5.3787Y1.7606
X5.3787Y1.7606
X5.3787Y1.6606
X5.3787Y1.5606
X5.3787Y1.4606
X5.3787Y1.3606
X5.3787Y1.2606
X5.3787Y1.1606
X5.3787Y1.0606
X5.3787Y0.9606
X5.3787Y0.8606
X5.3787Y0.7606
X5.3787Y0.6606
T6
X-0.367Y1.6309
X-0.367Y-0.2392
X2.4283Y-0.3769
X3.9243Y1.7907
X5.4352Y-0.1269
X5.8663Y-2.2478
X6.3456Y-1.5086
T0
M30
