%TF.GenerationSoftware,KiCad,Pcbnew,8.0.6*%
%TF.CreationDate,2024-11-17T18:27:12-05:00*%
%TF.ProjectId,ultra_lp_keeb,756c7472-615f-46c7-905f-6b6565622e6b,rev?*%
%TF.SameCoordinates,Original*%
%TF.FileFunction,Profile,NP*%
%FSLAX46Y46*%
G04 Gerber Fmt 4.6, Leading zero omitted, Abs format (unit mm)*
G04 Created by KiCad (PCBNEW 8.0.6) date 2024-11-17 18:27:12*
%MOMM*%
%LPD*%
G01*
G04 APERTURE LIST*
%TA.AperFunction,Profile*%
%ADD10C,0.200000*%
%TD*%
%TA.AperFunction,Profile*%
%ADD11C,0.100000*%
%TD*%
G04 APERTURE END LIST*
D10*
X198211338Y-149310638D02*
X208998450Y-156823920D01*
X101039239Y-60480933D02*
G75*
G02*
X103675942Y-59279008I2864861J-2791667D01*
G01*
X67020389Y-92933037D02*
X69702163Y-107523299D01*
X80029800Y-68520386D02*
X82788470Y-85951132D01*
X222981676Y-139205693D02*
G75*
G02*
X222248532Y-141512964I-3999976J893D01*
G01*
X89901131Y-118735233D02*
G75*
G02*
X88280772Y-118337148I123169J3998133D01*
G01*
X122744429Y-57788483D02*
G75*
G02*
X123977732Y-57362819I1233471J-1574317D01*
G01*
X182031807Y-140174956D02*
X195591980Y-147679626D01*
X122685777Y-57834436D02*
G75*
G02*
X121566379Y-58256844I-1233477J1574336D01*
G01*
X97032648Y-63515641D02*
X81656487Y-66238385D01*
X99200054Y-62368436D02*
G75*
G02*
X97032647Y-63515635I-2864854J2791536D01*
G01*
X122744429Y-57788483D02*
X122685777Y-57834436D01*
X126849501Y-131439519D02*
G75*
G02*
X124849982Y-129441771I399J1999919D01*
G01*
X222981676Y-139205693D02*
X222981489Y-58614286D01*
X155491493Y-131439519D02*
G75*
G02*
X162299012Y-132633729I7J-19999981D01*
G01*
X89901131Y-118735233D02*
X122902841Y-119751958D01*
X124841252Y-121748758D02*
X124849916Y-129441771D01*
X154685338Y-57360144D02*
X123977732Y-57362820D01*
X82788470Y-85951132D02*
G75*
G02*
X81184761Y-88228925I-1975370J-312668D01*
G01*
X101039239Y-60480933D02*
X99200054Y-62368436D01*
X68615733Y-90606327D02*
X81184761Y-88228926D01*
X67020389Y-92933037D02*
G75*
G02*
X68615742Y-90606376I1967011J361537D01*
G01*
X195591980Y-147679626D02*
G75*
G02*
X198211336Y-149310641I-14526680J-26248174D01*
G01*
X222248543Y-141512972D02*
X211774955Y-156336845D01*
X177776999Y-138236616D02*
G75*
G02*
X182031806Y-140174957I-10271899J-28186584D01*
G01*
X211774955Y-156336845D02*
G75*
G02*
X208998414Y-156823972I-1633455J1153945D01*
G01*
X156082748Y-56790795D02*
G75*
G02*
X154685338Y-57360120I-1397648J1430895D01*
G01*
X121566379Y-58256844D02*
X103675940Y-59278966D01*
X162299012Y-132633730D02*
X177776999Y-138236616D01*
X126849501Y-131439519D02*
X155491493Y-131439519D01*
X219999342Y-55631411D02*
X158136517Y-55648686D01*
X156082748Y-56790795D02*
X156809364Y-56158895D01*
X88280774Y-118337143D02*
X71892727Y-110400203D01*
X156809364Y-56158895D02*
G75*
G02*
X158136517Y-55648686I1327736J-1472505D01*
G01*
X122902841Y-119751958D02*
G75*
G02*
X124841288Y-121748758I-61541J-1999042D01*
G01*
X71892727Y-110400203D02*
G75*
G02*
X69702175Y-107523297I1743673J3600103D01*
G01*
X219999342Y-55631411D02*
G75*
G02*
X222981489Y-58614286I-42J-2982189D01*
G01*
X80029800Y-68520386D02*
G75*
G02*
X81656488Y-66238390I1975410J312636D01*
G01*
D11*
%TO.C,CPG1316*%
X186598841Y-134307792D02*
G75*
G02*
X185598839Y-134307792I-500001J0D01*
G01*
X185598839Y-134307792D02*
G75*
G02*
X186598841Y-134307792I500001J0D01*
G01*
X189363764Y-129494507D02*
G75*
G02*
X188163762Y-129494507I-600001J0D01*
G01*
X188163762Y-129494507D02*
G75*
G02*
X189363764Y-129494507I600001J0D01*
G01*
X196742895Y-139928706D02*
G75*
G02*
X195742899Y-139928706I-499998J0D01*
G01*
X195742899Y-139928706D02*
G75*
G02*
X196742895Y-139928706I499998J0D01*
G01*
X199510881Y-135121176D02*
G75*
G02*
X198310883Y-135121176I-599999J0D01*
G01*
X198310883Y-135121176D02*
G75*
G02*
X199510881Y-135121176I599999J0D01*
G01*
X85073466Y-72516567D02*
G75*
G02*
X83873464Y-72516567I-600001J0D01*
G01*
X83873464Y-72516567D02*
G75*
G02*
X85073466Y-72516567I600001J0D01*
G01*
X85931528Y-77934281D02*
G75*
G02*
X84931530Y-77934281I-499999J0D01*
G01*
X84931530Y-77934281D02*
G75*
G02*
X85931528Y-77934281I499999J0D01*
G01*
X96500234Y-70503521D02*
G75*
G02*
X95300232Y-70503521I-600001J0D01*
G01*
X95300232Y-70503521D02*
G75*
G02*
X96500234Y-70503521I600001J0D01*
G01*
X97352299Y-75918690D02*
G75*
G02*
X96352299Y-75918690I-500000J0D01*
G01*
X96352299Y-75918690D02*
G75*
G02*
X97352299Y-75918690I500000J0D01*
G01*
X160083072Y-66358865D02*
G75*
G02*
X158883072Y-66358865I-600000J0D01*
G01*
X158883072Y-66358865D02*
G75*
G02*
X160083072Y-66358865I600000J0D01*
G01*
X159985805Y-71860639D02*
G75*
G02*
X158985805Y-71860639I-500000J0D01*
G01*
X158985805Y-71860639D02*
G75*
G02*
X159985805Y-71860639I500000J0D01*
G01*
X171583072Y-71858865D02*
G75*
G02*
X170583072Y-71858865I-500000J0D01*
G01*
X170583072Y-71858865D02*
G75*
G02*
X171583072Y-71858865I500000J0D01*
G01*
X171685805Y-66360639D02*
G75*
G02*
X170485805Y-66360639I-600000J0D01*
G01*
X170485805Y-66360639D02*
G75*
G02*
X171685805Y-66360639I600000J0D01*
G01*
X107805759Y-83388091D02*
G75*
G02*
X106605759Y-83388091I-600000J0D01*
G01*
X106605759Y-83388091D02*
G75*
G02*
X107805759Y-83388091I600000J0D01*
G01*
X107996428Y-88882182D02*
G75*
G02*
X106996430Y-88882182I-499999J0D01*
G01*
X106996430Y-88882182D02*
G75*
G02*
X107996428Y-88882182I499999J0D01*
G01*
X119392683Y-82782622D02*
G75*
G02*
X118192683Y-82782622I-600000J0D01*
G01*
X118192683Y-82782622D02*
G75*
G02*
X119392683Y-82782622I600000J0D01*
G01*
X119577709Y-88273456D02*
G75*
G02*
X118577709Y-88273456I-500000J0D01*
G01*
X118577709Y-88273456D02*
G75*
G02*
X119577709Y-88273456I500000J0D01*
G01*
X106910814Y-66311526D02*
G75*
G02*
X105710814Y-66311526I-600000J0D01*
G01*
X105710814Y-66311526D02*
G75*
G02*
X106910814Y-66311526I600000J0D01*
G01*
X107101483Y-71805617D02*
G75*
G02*
X106101485Y-71805617I-499999J0D01*
G01*
X106101485Y-71805617D02*
G75*
G02*
X107101483Y-71805617I499999J0D01*
G01*
X118497738Y-65706057D02*
G75*
G02*
X117297738Y-65706057I-600000J0D01*
G01*
X117297738Y-65706057D02*
G75*
G02*
X118497738Y-65706057I600000J0D01*
G01*
X118682764Y-71196891D02*
G75*
G02*
X117682764Y-71196891I-500000J0D01*
G01*
X117682764Y-71196891D02*
G75*
G02*
X118682764Y-71196891I500000J0D01*
G01*
X143083072Y-82708865D02*
G75*
G02*
X141883072Y-82708865I-600000J0D01*
G01*
X141883072Y-82708865D02*
G75*
G02*
X143083072Y-82708865I600000J0D01*
G01*
X142985805Y-88210639D02*
G75*
G02*
X141985805Y-88210639I-500000J0D01*
G01*
X141985805Y-88210639D02*
G75*
G02*
X142985805Y-88210639I500000J0D01*
G01*
X154583072Y-88208865D02*
G75*
G02*
X153583072Y-88208865I-500000J0D01*
G01*
X153583072Y-88208865D02*
G75*
G02*
X154583072Y-88208865I500000J0D01*
G01*
X154685805Y-82710639D02*
G75*
G02*
X153485805Y-82710639I-600000J0D01*
G01*
X153485805Y-82710639D02*
G75*
G02*
X154685805Y-82710639I600000J0D01*
G01*
X90994868Y-106098511D02*
G75*
G02*
X89794866Y-106098511I-600001J0D01*
G01*
X89794866Y-106098511D02*
G75*
G02*
X90994868Y-106098511I600001J0D01*
G01*
X91852930Y-111516225D02*
G75*
G02*
X90852932Y-111516225I-499999J0D01*
G01*
X90852932Y-111516225D02*
G75*
G02*
X91852930Y-111516225I499999J0D01*
G01*
X102421636Y-104085465D02*
G75*
G02*
X101221634Y-104085465I-600001J0D01*
G01*
X101221634Y-104085465D02*
G75*
G02*
X102421636Y-104085465I600001J0D01*
G01*
X103273701Y-109500634D02*
G75*
G02*
X102273701Y-109500634I-500000J0D01*
G01*
X102273701Y-109500634D02*
G75*
G02*
X103273701Y-109500634I500000J0D01*
G01*
X88042850Y-89356779D02*
G75*
G02*
X86842848Y-89356779I-600001J0D01*
G01*
X86842848Y-89356779D02*
G75*
G02*
X88042850Y-89356779I600001J0D01*
G01*
X88900912Y-94774493D02*
G75*
G02*
X87900914Y-94774493I-499999J0D01*
G01*
X87900914Y-94774493D02*
G75*
G02*
X88900912Y-94774493I499999J0D01*
G01*
X99469618Y-87343733D02*
G75*
G02*
X98269616Y-87343733I-600001J0D01*
G01*
X98269616Y-87343733D02*
G75*
G02*
X99469618Y-87343733I600001J0D01*
G01*
X100321683Y-92758902D02*
G75*
G02*
X99321683Y-92758902I-500000J0D01*
G01*
X99321683Y-92758902D02*
G75*
G02*
X100321683Y-92758902I500000J0D01*
G01*
X126083072Y-81708865D02*
G75*
G02*
X124883072Y-81708865I-600000J0D01*
G01*
X124883072Y-81708865D02*
G75*
G02*
X126083072Y-81708865I600000J0D01*
G01*
X125985805Y-87210639D02*
G75*
G02*
X124985805Y-87210639I-500000J0D01*
G01*
X124985805Y-87210639D02*
G75*
G02*
X125985805Y-87210639I500000J0D01*
G01*
X137583072Y-87208865D02*
G75*
G02*
X136583072Y-87208865I-500000J0D01*
G01*
X136583072Y-87208865D02*
G75*
G02*
X137583072Y-87208865I500000J0D01*
G01*
X137685805Y-81710639D02*
G75*
G02*
X136485805Y-81710639I-600000J0D01*
G01*
X136485805Y-81710639D02*
G75*
G02*
X137685805Y-81710639I600000J0D01*
G01*
X160083072Y-83458865D02*
G75*
G02*
X158883072Y-83458865I-600000J0D01*
G01*
X158883072Y-83458865D02*
G75*
G02*
X160083072Y-83458865I600000J0D01*
G01*
X159985805Y-88960639D02*
G75*
G02*
X158985805Y-88960639I-500000J0D01*
G01*
X158985805Y-88960639D02*
G75*
G02*
X159985805Y-88960639I500000J0D01*
G01*
X171583072Y-88958865D02*
G75*
G02*
X170583072Y-88958865I-500000J0D01*
G01*
X170583072Y-88958865D02*
G75*
G02*
X171583072Y-88958865I500000J0D01*
G01*
X171685805Y-83460639D02*
G75*
G02*
X170485805Y-83460639I-600000J0D01*
G01*
X170485805Y-83460639D02*
G75*
G02*
X171685805Y-83460639I600000J0D01*
G01*
X147297269Y-118598227D02*
G75*
G02*
X146097267Y-118598227I-600001J0D01*
G01*
X146097267Y-118598227D02*
G75*
G02*
X147297269Y-118598227I600001J0D01*
G01*
X147200000Y-124100000D02*
G75*
G02*
X146200002Y-124100000I-499999J0D01*
G01*
X146200002Y-124100000D02*
G75*
G02*
X147200000Y-124100000I499999J0D01*
G01*
X158797267Y-124098227D02*
G75*
G02*
X157797267Y-124098227I-500000J0D01*
G01*
X157797267Y-124098227D02*
G75*
G02*
X158797267Y-124098227I500000J0D01*
G01*
X158900000Y-118600002D02*
G75*
G02*
X157699998Y-118600002I-600001J0D01*
G01*
X157699998Y-118600002D02*
G75*
G02*
X158900000Y-118600002I600001J0D01*
G01*
X160083072Y-100458865D02*
G75*
G02*
X158883072Y-100458865I-600000J0D01*
G01*
X158883072Y-100458865D02*
G75*
G02*
X160083072Y-100458865I600000J0D01*
G01*
X159985805Y-105960639D02*
G75*
G02*
X158985805Y-105960639I-500000J0D01*
G01*
X158985805Y-105960639D02*
G75*
G02*
X159985805Y-105960639I500000J0D01*
G01*
X171583072Y-105958865D02*
G75*
G02*
X170583072Y-105958865I-500000J0D01*
G01*
X170583072Y-105958865D02*
G75*
G02*
X171583072Y-105958865I500000J0D01*
G01*
X171685805Y-100460639D02*
G75*
G02*
X170485805Y-100460639I-600000J0D01*
G01*
X170485805Y-100460639D02*
G75*
G02*
X171685805Y-100460639I600000J0D01*
G01*
X108695470Y-100364793D02*
G75*
G02*
X107495470Y-100364793I-600000J0D01*
G01*
X107495470Y-100364793D02*
G75*
G02*
X108695470Y-100364793I600000J0D01*
G01*
X108886139Y-105858884D02*
G75*
G02*
X107886141Y-105858884I-499999J0D01*
G01*
X107886141Y-105858884D02*
G75*
G02*
X108886139Y-105858884I499999J0D01*
G01*
X120282394Y-99759324D02*
G75*
G02*
X119082394Y-99759324I-600000J0D01*
G01*
X119082394Y-99759324D02*
G75*
G02*
X120282394Y-99759324I600000J0D01*
G01*
X120467420Y-105250158D02*
G75*
G02*
X119467420Y-105250158I-500000J0D01*
G01*
X119467420Y-105250158D02*
G75*
G02*
X120467420Y-105250158I500000J0D01*
G01*
X72013101Y-96906791D02*
G75*
G02*
X70813099Y-96906791I-600001J0D01*
G01*
X70813099Y-96906791D02*
G75*
G02*
X72013101Y-96906791I600001J0D01*
G01*
X72871163Y-102324505D02*
G75*
G02*
X71871165Y-102324505I-499999J0D01*
G01*
X71871165Y-102324505D02*
G75*
G02*
X72871163Y-102324505I499999J0D01*
G01*
X83439869Y-94893745D02*
G75*
G02*
X82239867Y-94893745I-600001J0D01*
G01*
X82239867Y-94893745D02*
G75*
G02*
X83439869Y-94893745I600001J0D01*
G01*
X84291934Y-100308914D02*
G75*
G02*
X83291934Y-100308914I-500000J0D01*
G01*
X83291934Y-100308914D02*
G75*
G02*
X84291934Y-100308914I500000J0D01*
G01*
X126083072Y-64608865D02*
G75*
G02*
X124883072Y-64608865I-600000J0D01*
G01*
X124883072Y-64608865D02*
G75*
G02*
X126083072Y-64608865I600000J0D01*
G01*
X125985805Y-70110639D02*
G75*
G02*
X124985805Y-70110639I-500000J0D01*
G01*
X124985805Y-70110639D02*
G75*
G02*
X125985805Y-70110639I500000J0D01*
G01*
X137583072Y-70108865D02*
G75*
G02*
X136583072Y-70108865I-500000J0D01*
G01*
X136583072Y-70108865D02*
G75*
G02*
X137583072Y-70108865I500000J0D01*
G01*
X137685805Y-64610639D02*
G75*
G02*
X136485805Y-64610639I-600000J0D01*
G01*
X136485805Y-64610639D02*
G75*
G02*
X137685805Y-64610639I600000J0D01*
G01*
X143083072Y-99708865D02*
G75*
G02*
X141883072Y-99708865I-600000J0D01*
G01*
X141883072Y-99708865D02*
G75*
G02*
X143083072Y-99708865I600000J0D01*
G01*
X142985805Y-105210639D02*
G75*
G02*
X141985805Y-105210639I-500000J0D01*
G01*
X141985805Y-105210639D02*
G75*
G02*
X142985805Y-105210639I500000J0D01*
G01*
X154583072Y-105208865D02*
G75*
G02*
X153583072Y-105208865I-500000J0D01*
G01*
X153583072Y-105208865D02*
G75*
G02*
X154583072Y-105208865I500000J0D01*
G01*
X154685805Y-99710639D02*
G75*
G02*
X153485805Y-99710639I-600000J0D01*
G01*
X153485805Y-99710639D02*
G75*
G02*
X154685805Y-99710639I600000J0D01*
G01*
X129497269Y-118798226D02*
G75*
G02*
X128297267Y-118798226I-600001J0D01*
G01*
X128297267Y-118798226D02*
G75*
G02*
X129497269Y-118798226I600001J0D01*
G01*
X129400000Y-124299999D02*
G75*
G02*
X128400002Y-124299999I-499999J0D01*
G01*
X128400002Y-124299999D02*
G75*
G02*
X129400000Y-124299999I499999J0D01*
G01*
X140997267Y-124298226D02*
G75*
G02*
X139997267Y-124298226I-500000J0D01*
G01*
X139997267Y-124298226D02*
G75*
G02*
X140997267Y-124298226I500000J0D01*
G01*
X141100000Y-118800001D02*
G75*
G02*
X139899998Y-118800001I-600001J0D01*
G01*
X139899998Y-118800001D02*
G75*
G02*
X141100000Y-118800001I600001J0D01*
G01*
X202248404Y-143384053D02*
G75*
G02*
X201248402Y-143384053I-500001J0D01*
G01*
X201248402Y-143384053D02*
G75*
G02*
X202248404Y-143384053I500001J0D01*
G01*
X205501853Y-138875694D02*
G75*
G02*
X204301853Y-138875694I-600000J0D01*
G01*
X204301853Y-138875694D02*
G75*
G02*
X205501853Y-138875694I600000J0D01*
G01*
X211749344Y-150034519D02*
G75*
G02*
X210749346Y-150034519I-499999J0D01*
G01*
X210749346Y-150034519D02*
G75*
G02*
X211749344Y-150034519I499999J0D01*
G01*
X215005238Y-145532203D02*
G75*
G02*
X213805240Y-145532203I-599999J0D01*
G01*
X213805240Y-145532203D02*
G75*
G02*
X215005238Y-145532203I599999J0D01*
G01*
X126083072Y-98708865D02*
G75*
G02*
X124883072Y-98708865I-600000J0D01*
G01*
X124883072Y-98708865D02*
G75*
G02*
X126083072Y-98708865I600000J0D01*
G01*
X125985805Y-104210639D02*
G75*
G02*
X124985805Y-104210639I-500000J0D01*
G01*
X124985805Y-104210639D02*
G75*
G02*
X125985805Y-104210639I500000J0D01*
G01*
X137583072Y-104208865D02*
G75*
G02*
X136583072Y-104208865I-500000J0D01*
G01*
X136583072Y-104208865D02*
G75*
G02*
X137583072Y-104208865I500000J0D01*
G01*
X137685805Y-98710639D02*
G75*
G02*
X136485805Y-98710639I-600000J0D01*
G01*
X136485805Y-98710639D02*
G75*
G02*
X137685805Y-98710639I600000J0D01*
G01*
X169891074Y-127656759D02*
G75*
G02*
X168891070Y-127656759I-500002J0D01*
G01*
X168891070Y-127656759D02*
G75*
G02*
X169891074Y-127656759I500002J0D01*
G01*
X171870223Y-122485848D02*
G75*
G02*
X170670221Y-122485848I-600001J0D01*
G01*
X170670221Y-122485848D02*
G75*
G02*
X171870223Y-122485848I600001J0D01*
G01*
X180789540Y-131621591D02*
G75*
G02*
X179789546Y-131621591I-499997J0D01*
G01*
X179789546Y-131621591D02*
G75*
G02*
X180789540Y-131621591I499997J0D01*
G01*
X182772617Y-126455885D02*
G75*
G02*
X181572619Y-126455885I-599999J0D01*
G01*
X181572619Y-126455885D02*
G75*
G02*
X182772617Y-126455885I599999J0D01*
G01*
X143083072Y-65608865D02*
G75*
G02*
X141883072Y-65608865I-600000J0D01*
G01*
X141883072Y-65608865D02*
G75*
G02*
X143083072Y-65608865I600000J0D01*
G01*
X142985805Y-71110639D02*
G75*
G02*
X141985805Y-71110639I-500000J0D01*
G01*
X141985805Y-71110639D02*
G75*
G02*
X142985805Y-71110639I500000J0D01*
G01*
X154583072Y-71108865D02*
G75*
G02*
X153583072Y-71108865I-500000J0D01*
G01*
X153583072Y-71108865D02*
G75*
G02*
X154583072Y-71108865I500000J0D01*
G01*
X154685805Y-65610639D02*
G75*
G02*
X153485805Y-65610639I-600000J0D01*
G01*
X153485805Y-65610639D02*
G75*
G02*
X154685805Y-65610639I600000J0D01*
G01*
X194682899Y-119389089D02*
G75*
G02*
X193682897Y-119389089I-500001J0D01*
G01*
X193682897Y-119389089D02*
G75*
G02*
X194682899Y-119389089I500001J0D01*
G01*
X197447822Y-114575804D02*
G75*
G02*
X196247820Y-114575804I-600001J0D01*
G01*
X196247820Y-114575804D02*
G75*
G02*
X197447822Y-114575804I600001J0D01*
G01*
X204826953Y-125010003D02*
G75*
G02*
X203826957Y-125010003I-499998J0D01*
G01*
X203826957Y-125010003D02*
G75*
G02*
X204826953Y-125010003I499998J0D01*
G01*
X207594939Y-120202473D02*
G75*
G02*
X206394941Y-120202473I-599999J0D01*
G01*
X206394941Y-120202473D02*
G75*
G02*
X207594939Y-120202473I599999J0D01*
G01*
%TD*%
M02*
