%TF.GenerationSoftware,KiCad,Pcbnew,8.0.6*%
%TF.CreationDate,2024-11-17T18:27:12-05:00*%
%TF.ProjectId,ultra_lp_keeb,756c7472-615f-46c7-905f-6b6565622e6b,rev?*%
%TF.SameCoordinates,Original*%
%TF.FileFunction,Legend,Top*%
%TF.FilePolarity,Positive*%
%FSLAX46Y46*%
G04 Gerber Fmt 4.6, Leading zero omitted, Abs format (unit mm)*
G04 Created by KiCad (PCBNEW 8.0.6) date 2024-11-17 18:27:12*
%MOMM*%
%LPD*%
G01*
G04 APERTURE LIST*
%ADD10C,0.100000*%
%ADD11C,0.150000*%
%ADD12C,0.000000*%
%ADD13R,1.752600X1.752600*%
%ADD14C,1.752600*%
%TA.AperFunction,Profile*%
%ADD15C,0.200000*%
%TD*%
%TA.AperFunction,Profile*%
%ADD16C,0.100000*%
%TD*%
G04 APERTURE END LIST*
D10*
X182000000Y-94500000D02*
X182020000Y-94500000D01*
X182420000Y-94500000D02*
X182440000Y-94500000D01*
X182840000Y-94500000D02*
X182860000Y-94500000D01*
X183260000Y-94500000D02*
X183280000Y-94500000D01*
X183680000Y-94500000D02*
X183700000Y-94500000D01*
X184100000Y-94500000D02*
X184120000Y-94500000D01*
X184520000Y-94500000D02*
X184540000Y-94500000D01*
X184940000Y-94500000D02*
X184960000Y-94500000D01*
X185360000Y-94500000D02*
X185380000Y-94500000D01*
X185780000Y-94500000D02*
X185800000Y-94500000D01*
X186200000Y-94500000D02*
X186220000Y-94500000D01*
X186620000Y-94500000D02*
X186640000Y-94500000D01*
X187040000Y-94500000D02*
X187060000Y-94500000D01*
X187460000Y-94500000D02*
X187480000Y-94500000D01*
X187880000Y-94500000D02*
X187900000Y-94500000D01*
X188300000Y-94500000D02*
X188320000Y-94500000D01*
X188720000Y-94500000D02*
X188740000Y-94500000D01*
X189140000Y-94500000D02*
X189160000Y-94500000D01*
X189560000Y-94500000D02*
X189580000Y-94500000D01*
X189980000Y-94500000D02*
X190000000Y-94500000D01*
X190400000Y-94500000D02*
X190420000Y-94500000D01*
X190820000Y-94500000D02*
X190840000Y-94500000D01*
X191240000Y-94500000D02*
X191260000Y-94500000D01*
X191660000Y-94500000D02*
X191680000Y-94500000D01*
X192080000Y-94500000D02*
X192100000Y-94500000D01*
X192500000Y-94500000D02*
X192520000Y-94500000D01*
X192920000Y-94500000D02*
X192940000Y-94500000D01*
X193340000Y-94500000D02*
X193360000Y-94500000D01*
X193760000Y-94500000D02*
X193780000Y-94500000D01*
X194180000Y-94500000D02*
X194200000Y-94500000D01*
X194600000Y-94500000D02*
X194620000Y-94500000D01*
X195020000Y-94500000D02*
X195040000Y-94500000D01*
X195440000Y-94500000D02*
X195460000Y-94500000D01*
X195860000Y-94500000D02*
X195880000Y-94500000D01*
X196280000Y-94500000D02*
X196300000Y-94500000D01*
X196700000Y-94500000D02*
X196720000Y-94500000D01*
X197120000Y-94500000D02*
X197140000Y-94500000D01*
X197540000Y-94500000D02*
X197560000Y-94500000D01*
X197960000Y-94500000D02*
X197980000Y-94500000D01*
X198380000Y-94500000D02*
X198400000Y-94500000D01*
X198800000Y-94500000D02*
X198820000Y-94500000D01*
X199220000Y-94500000D02*
X199240000Y-94500000D01*
X199640000Y-94500000D02*
X199660000Y-94500000D01*
X200060000Y-94500000D02*
X200080000Y-94500000D01*
X200480000Y-94500000D02*
X200500000Y-94500000D01*
X200900000Y-94500000D02*
X200920000Y-94500000D01*
X201320000Y-94500000D02*
X201340000Y-94500000D01*
X201740000Y-94500000D02*
X201760000Y-94500000D01*
X202160000Y-94500000D02*
X202180000Y-94500000D01*
X202580000Y-94500000D02*
X202600000Y-94500000D01*
X203000000Y-94500000D02*
X203020000Y-94500000D01*
X203420000Y-94500000D02*
X203440000Y-94500000D01*
X203840000Y-94500000D02*
X203860000Y-94500000D01*
X204260000Y-94500000D02*
X204280000Y-94500000D01*
X204680000Y-94500000D02*
X204700000Y-94500000D01*
X205100000Y-94500000D02*
X205120000Y-94500000D01*
X205520000Y-94500000D02*
X205540000Y-94500000D01*
X205940000Y-94500000D02*
X205960000Y-94500000D01*
X206360000Y-94500000D02*
X206380000Y-94500000D01*
X206780000Y-94500000D02*
X206800000Y-94500000D01*
X207200000Y-94500000D02*
X207220000Y-94500000D01*
X207620000Y-94500000D02*
X207640000Y-94500000D01*
X208040000Y-94500000D02*
X208060000Y-94500000D01*
X208460000Y-94500000D02*
X208480000Y-94500000D01*
X208880000Y-94500000D02*
X208900000Y-94500000D01*
X209300000Y-94500000D02*
X209320000Y-94500000D01*
X209720000Y-94500000D02*
X209740000Y-94500000D01*
X210140000Y-94500000D02*
X210160000Y-94500000D01*
X210560000Y-94500000D02*
X210580000Y-94500000D01*
X210980000Y-94500000D02*
X211000000Y-94500000D01*
X211400000Y-94500000D02*
X211420000Y-94500000D01*
X211820000Y-94500000D02*
X211840000Y-94500000D01*
X212240000Y-94500000D02*
X212260000Y-94500000D01*
X212660000Y-94500000D02*
X212680000Y-94500000D01*
X213080000Y-94500000D02*
X213100000Y-94500000D01*
X213500000Y-94500000D02*
X213520000Y-94500000D01*
X213920000Y-94500000D02*
X213940000Y-94500000D01*
X214340000Y-94500000D02*
X214360000Y-94500000D01*
X214760000Y-94500000D02*
X214780000Y-94500000D01*
X215000000Y-94500000D02*
X215000000Y-94520000D01*
X215000000Y-94920000D02*
X215000000Y-94940000D01*
X215000000Y-95340000D02*
X215000000Y-95360000D01*
X215000000Y-95760000D02*
X215000000Y-95780000D01*
X215000000Y-96180000D02*
X215000000Y-96200000D01*
X215000000Y-96600000D02*
X215000000Y-96620000D01*
X215000000Y-97020000D02*
X215000000Y-97040000D01*
X215000000Y-97440000D02*
X215000000Y-97460000D01*
X215000000Y-97860000D02*
X215000000Y-97880000D01*
X215000000Y-98280000D02*
X215000000Y-98300000D01*
X215000000Y-98700000D02*
X215000000Y-98720000D01*
X215000000Y-99120000D02*
X215000000Y-99140000D01*
X215000000Y-99540000D02*
X215000000Y-99560000D01*
X215000000Y-99960000D02*
X215000000Y-99980000D01*
X215000000Y-100380000D02*
X215000000Y-100400000D01*
X215000000Y-100800000D02*
X215000000Y-100820000D01*
X215000000Y-101220000D02*
X215000000Y-101240000D01*
X215000000Y-101640000D02*
X215000000Y-101660000D01*
X215000000Y-102060000D02*
X215000000Y-102080000D01*
X215000000Y-102480000D02*
X215000000Y-102500000D01*
X215000000Y-102900000D02*
X215000000Y-102920000D01*
X215000000Y-103320000D02*
X215000000Y-103340000D01*
X215000000Y-103740000D02*
X215000000Y-103760000D01*
X215000000Y-104160000D02*
X215000000Y-104180000D01*
X215000000Y-104580000D02*
X215000000Y-104600000D01*
X215000000Y-105000000D02*
X215000000Y-105020000D01*
X215000000Y-105420000D02*
X215000000Y-105440000D01*
X215000000Y-105840000D02*
X215000000Y-105860000D01*
X215000000Y-106260000D02*
X215000000Y-106280000D01*
X215000000Y-106680000D02*
X215000000Y-106700000D01*
X215000000Y-107000000D02*
X214980000Y-107000000D01*
X214580000Y-107000000D02*
X214560000Y-107000000D01*
X214160000Y-107000000D02*
X214140000Y-107000000D01*
X213740000Y-107000000D02*
X213720000Y-107000000D01*
X213320000Y-107000000D02*
X213300000Y-107000000D01*
X212900000Y-107000000D02*
X212880000Y-107000000D01*
X212480000Y-107000000D02*
X212460000Y-107000000D01*
X212060000Y-107000000D02*
X212040000Y-107000000D01*
X211640000Y-107000000D02*
X211620000Y-107000000D01*
X211220000Y-107000000D02*
X211200000Y-107000000D01*
X210800000Y-107000000D02*
X210780000Y-107000000D01*
X210380000Y-107000000D02*
X210360000Y-107000000D01*
X209960000Y-107000000D02*
X209940000Y-107000000D01*
X209540000Y-107000000D02*
X209520000Y-107000000D01*
X209120000Y-107000000D02*
X209100000Y-107000000D01*
X208700000Y-107000000D02*
X208680000Y-107000000D01*
X208280000Y-107000000D02*
X208260000Y-107000000D01*
X207860000Y-107000000D02*
X207840000Y-107000000D01*
X207440000Y-107000000D02*
X207420000Y-107000000D01*
X207020000Y-107000000D02*
X207000000Y-107000000D01*
X206600000Y-107000000D02*
X206580000Y-107000000D01*
X206180000Y-107000000D02*
X206160000Y-107000000D01*
X205760000Y-107000000D02*
X205740000Y-107000000D01*
X205340000Y-107000000D02*
X205320000Y-107000000D01*
X204920000Y-107000000D02*
X204900000Y-107000000D01*
X204500000Y-107000000D02*
X204480000Y-107000000D01*
X204080000Y-107000000D02*
X204060000Y-107000000D01*
X203660000Y-107000000D02*
X203640000Y-107000000D01*
X203240000Y-107000000D02*
X203220000Y-107000000D01*
X202820000Y-107000000D02*
X202800000Y-107000000D01*
X202400000Y-107000000D02*
X202380000Y-107000000D01*
X201980000Y-107000000D02*
X201960000Y-107000000D01*
X201560000Y-107000000D02*
X201540000Y-107000000D01*
X201140000Y-107000000D02*
X201120000Y-107000000D01*
X200720000Y-107000000D02*
X200700000Y-107000000D01*
X200300000Y-107000000D02*
X200280000Y-107000000D01*
X199880000Y-107000000D02*
X199860000Y-107000000D01*
X199460000Y-107000000D02*
X199440000Y-107000000D01*
X199040000Y-107000000D02*
X199020000Y-107000000D01*
X198620000Y-107000000D02*
X198600000Y-107000000D01*
X198200000Y-107000000D02*
X198180000Y-107000000D01*
X197780000Y-107000000D02*
X197760000Y-107000000D01*
X197360000Y-107000000D02*
X197340000Y-107000000D01*
X196940000Y-107000000D02*
X196920000Y-107000000D01*
X196520000Y-107000000D02*
X196500000Y-107000000D01*
X196100000Y-107000000D02*
X196080000Y-107000000D01*
X195680000Y-107000000D02*
X195660000Y-107000000D01*
X195260000Y-107000000D02*
X195240000Y-107000000D01*
X194840000Y-107000000D02*
X194820000Y-107000000D01*
X194420000Y-107000000D02*
X194400000Y-107000000D01*
X194000000Y-107000000D02*
X193980000Y-107000000D01*
X193580000Y-107000000D02*
X193560000Y-107000000D01*
X193160000Y-107000000D02*
X193140000Y-107000000D01*
X192740000Y-107000000D02*
X192720000Y-107000000D01*
X192320000Y-107000000D02*
X192300000Y-107000000D01*
X191900000Y-107000000D02*
X191880000Y-107000000D01*
X191480000Y-107000000D02*
X191460000Y-107000000D01*
X191060000Y-107000000D02*
X191040000Y-107000000D01*
X190640000Y-107000000D02*
X190620000Y-107000000D01*
X190220000Y-107000000D02*
X190200000Y-107000000D01*
X189800000Y-107000000D02*
X189780000Y-107000000D01*
X189380000Y-107000000D02*
X189360000Y-107000000D01*
X188960000Y-107000000D02*
X188940000Y-107000000D01*
X188540000Y-107000000D02*
X188520000Y-107000000D01*
X188120000Y-107000000D02*
X188100000Y-107000000D01*
X187700000Y-107000000D02*
X187680000Y-107000000D01*
X187280000Y-107000000D02*
X187260000Y-107000000D01*
X186860000Y-107000000D02*
X186840000Y-107000000D01*
X186440000Y-107000000D02*
X186420000Y-107000000D01*
X186020000Y-107000000D02*
X186000000Y-107000000D01*
X185600000Y-107000000D02*
X185580000Y-107000000D01*
X185180000Y-107000000D02*
X185160000Y-107000000D01*
X184760000Y-107000000D02*
X184740000Y-107000000D01*
X184340000Y-107000000D02*
X184320000Y-107000000D01*
X183920000Y-107000000D02*
X183900000Y-107000000D01*
X183500000Y-107000000D02*
X183480000Y-107000000D01*
X183080000Y-107000000D02*
X183060000Y-107000000D01*
X182660000Y-107000000D02*
X182640000Y-107000000D01*
X182240000Y-107000000D02*
X182220000Y-107000000D01*
X182000000Y-107000000D02*
X182000000Y-106980000D01*
X182000000Y-106580000D02*
X182000000Y-106560000D01*
X182000000Y-106160000D02*
X182000000Y-106140000D01*
X182000000Y-105740000D02*
X182000000Y-105720000D01*
X182000000Y-105320000D02*
X182000000Y-105300000D01*
X182000000Y-104900000D02*
X182000000Y-104880000D01*
X182000000Y-104480000D02*
X182000000Y-104460000D01*
X182000000Y-104060000D02*
X182000000Y-104040000D01*
X182000000Y-103640000D02*
X182000000Y-103620000D01*
X182000000Y-103220000D02*
X182000000Y-103200000D01*
X182000000Y-102800000D02*
X182000000Y-102780000D01*
X182000000Y-102380000D02*
X182000000Y-102360000D01*
X182000000Y-101960000D02*
X182000000Y-101940000D01*
X182000000Y-101540000D02*
X182000000Y-101520000D01*
X182000000Y-101120000D02*
X182000000Y-101100000D01*
X182000000Y-100700000D02*
X182000000Y-100680000D01*
X182000000Y-100280000D02*
X182000000Y-100260000D01*
X182000000Y-99860000D02*
X182000000Y-99840000D01*
X182000000Y-99440000D02*
X182000000Y-99420000D01*
X182000000Y-99020000D02*
X182000000Y-99000000D01*
X182000000Y-98600000D02*
X182000000Y-98580000D01*
X182000000Y-98180000D02*
X182000000Y-98160000D01*
X182000000Y-97760000D02*
X182000000Y-97740000D01*
X182000000Y-97340000D02*
X182000000Y-97320000D01*
X182000000Y-96920000D02*
X182000000Y-96900000D01*
X182000000Y-96500000D02*
X182000000Y-96480000D01*
X182000000Y-96080000D02*
X182000000Y-96060000D01*
X182000000Y-95660000D02*
X182000000Y-95640000D01*
X182000000Y-95240000D02*
X182000000Y-95220000D01*
X182000000Y-94820000D02*
X182000000Y-94800000D01*
D11*
X183336779Y-105869819D02*
X183336779Y-104869819D01*
X183336779Y-105250771D02*
X183432017Y-105203152D01*
X183432017Y-105203152D02*
X183622493Y-105203152D01*
X183622493Y-105203152D02*
X183717731Y-105250771D01*
X183717731Y-105250771D02*
X183765350Y-105298390D01*
X183765350Y-105298390D02*
X183812969Y-105393628D01*
X183812969Y-105393628D02*
X183812969Y-105679342D01*
X183812969Y-105679342D02*
X183765350Y-105774580D01*
X183765350Y-105774580D02*
X183717731Y-105822200D01*
X183717731Y-105822200D02*
X183622493Y-105869819D01*
X183622493Y-105869819D02*
X183432017Y-105869819D01*
X183432017Y-105869819D02*
X183336779Y-105822200D01*
X184670112Y-105869819D02*
X184670112Y-105346009D01*
X184670112Y-105346009D02*
X184622493Y-105250771D01*
X184622493Y-105250771D02*
X184527255Y-105203152D01*
X184527255Y-105203152D02*
X184336779Y-105203152D01*
X184336779Y-105203152D02*
X184241541Y-105250771D01*
X184670112Y-105822200D02*
X184574874Y-105869819D01*
X184574874Y-105869819D02*
X184336779Y-105869819D01*
X184336779Y-105869819D02*
X184241541Y-105822200D01*
X184241541Y-105822200D02*
X184193922Y-105726961D01*
X184193922Y-105726961D02*
X184193922Y-105631723D01*
X184193922Y-105631723D02*
X184241541Y-105536485D01*
X184241541Y-105536485D02*
X184336779Y-105488866D01*
X184336779Y-105488866D02*
X184574874Y-105488866D01*
X184574874Y-105488866D02*
X184670112Y-105441247D01*
X185003446Y-105203152D02*
X185384398Y-105203152D01*
X185146303Y-104869819D02*
X185146303Y-105726961D01*
X185146303Y-105726961D02*
X185193922Y-105822200D01*
X185193922Y-105822200D02*
X185289160Y-105869819D01*
X185289160Y-105869819D02*
X185384398Y-105869819D01*
X185574875Y-105203152D02*
X185955827Y-105203152D01*
X185717732Y-104869819D02*
X185717732Y-105726961D01*
X185717732Y-105726961D02*
X185765351Y-105822200D01*
X185765351Y-105822200D02*
X185860589Y-105869819D01*
X185860589Y-105869819D02*
X185955827Y-105869819D01*
X186670113Y-105822200D02*
X186574875Y-105869819D01*
X186574875Y-105869819D02*
X186384399Y-105869819D01*
X186384399Y-105869819D02*
X186289161Y-105822200D01*
X186289161Y-105822200D02*
X186241542Y-105726961D01*
X186241542Y-105726961D02*
X186241542Y-105346009D01*
X186241542Y-105346009D02*
X186289161Y-105250771D01*
X186289161Y-105250771D02*
X186384399Y-105203152D01*
X186384399Y-105203152D02*
X186574875Y-105203152D01*
X186574875Y-105203152D02*
X186670113Y-105250771D01*
X186670113Y-105250771D02*
X186717732Y-105346009D01*
X186717732Y-105346009D02*
X186717732Y-105441247D01*
X186717732Y-105441247D02*
X186241542Y-105536485D01*
X187146304Y-105869819D02*
X187146304Y-105203152D01*
X187146304Y-105393628D02*
X187193923Y-105298390D01*
X187193923Y-105298390D02*
X187241542Y-105250771D01*
X187241542Y-105250771D02*
X187336780Y-105203152D01*
X187336780Y-105203152D02*
X187432018Y-105203152D01*
X187670114Y-105203152D02*
X187908209Y-105869819D01*
X188146304Y-105203152D02*
X187908209Y-105869819D01*
X187908209Y-105869819D02*
X187812971Y-106107914D01*
X187812971Y-106107914D02*
X187765352Y-106155533D01*
X187765352Y-106155533D02*
X187670114Y-106203152D01*
D10*
X140661027Y-111372419D02*
X141232455Y-111372419D01*
X140946741Y-112372419D02*
X140946741Y-111372419D01*
X141565789Y-112372419D02*
X141565789Y-111705752D01*
X141565789Y-111896228D02*
X141613408Y-111800990D01*
X141613408Y-111800990D02*
X141661027Y-111753371D01*
X141661027Y-111753371D02*
X141756265Y-111705752D01*
X141756265Y-111705752D02*
X141851503Y-111705752D01*
X142565789Y-112324800D02*
X142470551Y-112372419D01*
X142470551Y-112372419D02*
X142280075Y-112372419D01*
X142280075Y-112372419D02*
X142184837Y-112324800D01*
X142184837Y-112324800D02*
X142137218Y-112229561D01*
X142137218Y-112229561D02*
X142137218Y-111848609D01*
X142137218Y-111848609D02*
X142184837Y-111753371D01*
X142184837Y-111753371D02*
X142280075Y-111705752D01*
X142280075Y-111705752D02*
X142470551Y-111705752D01*
X142470551Y-111705752D02*
X142565789Y-111753371D01*
X142565789Y-111753371D02*
X142613408Y-111848609D01*
X142613408Y-111848609D02*
X142613408Y-111943847D01*
X142613408Y-111943847D02*
X142137218Y-112039085D01*
X143041980Y-111705752D02*
X143041980Y-112372419D01*
X143041980Y-111800990D02*
X143089599Y-111753371D01*
X143089599Y-111753371D02*
X143184837Y-111705752D01*
X143184837Y-111705752D02*
X143327694Y-111705752D01*
X143327694Y-111705752D02*
X143422932Y-111753371D01*
X143422932Y-111753371D02*
X143470551Y-111848609D01*
X143470551Y-111848609D02*
X143470551Y-112372419D01*
X143803885Y-111705752D02*
X144184837Y-111705752D01*
X143946742Y-111372419D02*
X143946742Y-112229561D01*
X143946742Y-112229561D02*
X143994361Y-112324800D01*
X143994361Y-112324800D02*
X144089599Y-112372419D01*
X144089599Y-112372419D02*
X144184837Y-112372419D01*
X145232457Y-112324800D02*
X145375314Y-112372419D01*
X145375314Y-112372419D02*
X145613409Y-112372419D01*
X145613409Y-112372419D02*
X145708647Y-112324800D01*
X145708647Y-112324800D02*
X145756266Y-112277180D01*
X145756266Y-112277180D02*
X145803885Y-112181942D01*
X145803885Y-112181942D02*
X145803885Y-112086704D01*
X145803885Y-112086704D02*
X145756266Y-111991466D01*
X145756266Y-111991466D02*
X145708647Y-111943847D01*
X145708647Y-111943847D02*
X145613409Y-111896228D01*
X145613409Y-111896228D02*
X145422933Y-111848609D01*
X145422933Y-111848609D02*
X145327695Y-111800990D01*
X145327695Y-111800990D02*
X145280076Y-111753371D01*
X145280076Y-111753371D02*
X145232457Y-111658133D01*
X145232457Y-111658133D02*
X145232457Y-111562895D01*
X145232457Y-111562895D02*
X145280076Y-111467657D01*
X145280076Y-111467657D02*
X145327695Y-111420038D01*
X145327695Y-111420038D02*
X145422933Y-111372419D01*
X145422933Y-111372419D02*
X145661028Y-111372419D01*
X145661028Y-111372419D02*
X145803885Y-111420038D01*
X146375314Y-112372419D02*
X146280076Y-112324800D01*
X146280076Y-112324800D02*
X146232457Y-112229561D01*
X146232457Y-112229561D02*
X146232457Y-111372419D01*
X147184838Y-111705752D02*
X147184838Y-112372419D01*
X146756267Y-111705752D02*
X146756267Y-112229561D01*
X146756267Y-112229561D02*
X146803886Y-112324800D01*
X146803886Y-112324800D02*
X146899124Y-112372419D01*
X146899124Y-112372419D02*
X147041981Y-112372419D01*
X147041981Y-112372419D02*
X147137219Y-112324800D01*
X147137219Y-112324800D02*
X147184838Y-112277180D01*
X147518172Y-111705752D02*
X147899124Y-111705752D01*
X147661029Y-111372419D02*
X147661029Y-112229561D01*
X147661029Y-112229561D02*
X147708648Y-112324800D01*
X147708648Y-112324800D02*
X147803886Y-112372419D01*
X147803886Y-112372419D02*
X147899124Y-112372419D01*
X148137220Y-111705752D02*
X148661029Y-111705752D01*
X148661029Y-111705752D02*
X148137220Y-112372419D01*
X148137220Y-112372419D02*
X148661029Y-112372419D01*
X149041982Y-112372419D02*
X149041982Y-111372419D01*
X149137220Y-111991466D02*
X149422934Y-112372419D01*
X149422934Y-111705752D02*
X149041982Y-112086704D01*
X149756268Y-111705752D02*
X149994363Y-112372419D01*
X150232458Y-111705752D02*
X149994363Y-112372419D01*
X149994363Y-112372419D02*
X149899125Y-112610514D01*
X149899125Y-112610514D02*
X149851506Y-112658133D01*
X149851506Y-112658133D02*
X149756268Y-112705752D01*
X151327697Y-111467657D02*
X151375316Y-111420038D01*
X151375316Y-111420038D02*
X151470554Y-111372419D01*
X151470554Y-111372419D02*
X151708649Y-111372419D01*
X151708649Y-111372419D02*
X151803887Y-111420038D01*
X151803887Y-111420038D02*
X151851506Y-111467657D01*
X151851506Y-111467657D02*
X151899125Y-111562895D01*
X151899125Y-111562895D02*
X151899125Y-111658133D01*
X151899125Y-111658133D02*
X151851506Y-111800990D01*
X151851506Y-111800990D02*
X151280078Y-112372419D01*
X151280078Y-112372419D02*
X151899125Y-112372419D01*
X152518173Y-111372419D02*
X152613411Y-111372419D01*
X152613411Y-111372419D02*
X152708649Y-111420038D01*
X152708649Y-111420038D02*
X152756268Y-111467657D01*
X152756268Y-111467657D02*
X152803887Y-111562895D01*
X152803887Y-111562895D02*
X152851506Y-111753371D01*
X152851506Y-111753371D02*
X152851506Y-111991466D01*
X152851506Y-111991466D02*
X152803887Y-112181942D01*
X152803887Y-112181942D02*
X152756268Y-112277180D01*
X152756268Y-112277180D02*
X152708649Y-112324800D01*
X152708649Y-112324800D02*
X152613411Y-112372419D01*
X152613411Y-112372419D02*
X152518173Y-112372419D01*
X152518173Y-112372419D02*
X152422935Y-112324800D01*
X152422935Y-112324800D02*
X152375316Y-112277180D01*
X152375316Y-112277180D02*
X152327697Y-112181942D01*
X152327697Y-112181942D02*
X152280078Y-111991466D01*
X152280078Y-111991466D02*
X152280078Y-111753371D01*
X152280078Y-111753371D02*
X152327697Y-111562895D01*
X152327697Y-111562895D02*
X152375316Y-111467657D01*
X152375316Y-111467657D02*
X152422935Y-111420038D01*
X152422935Y-111420038D02*
X152518173Y-111372419D01*
X153232459Y-111467657D02*
X153280078Y-111420038D01*
X153280078Y-111420038D02*
X153375316Y-111372419D01*
X153375316Y-111372419D02*
X153613411Y-111372419D01*
X153613411Y-111372419D02*
X153708649Y-111420038D01*
X153708649Y-111420038D02*
X153756268Y-111467657D01*
X153756268Y-111467657D02*
X153803887Y-111562895D01*
X153803887Y-111562895D02*
X153803887Y-111658133D01*
X153803887Y-111658133D02*
X153756268Y-111800990D01*
X153756268Y-111800990D02*
X153184840Y-112372419D01*
X153184840Y-112372419D02*
X153803887Y-112372419D01*
X154661030Y-111705752D02*
X154661030Y-112372419D01*
X154422935Y-111324800D02*
X154184840Y-112039085D01*
X154184840Y-112039085D02*
X154803887Y-112039085D01*
X177008533Y-92303884D02*
X177008533Y-93065789D01*
X176627580Y-92684836D02*
X177389485Y-92684836D01*
X179408533Y-92303884D02*
X179408533Y-93065789D01*
%TO.C,REF\u002A\u002A*%
X165250000Y-56200000D02*
X168750000Y-56200000D01*
X168750000Y-58900000D01*
X165250000Y-58900000D01*
X165250000Y-56200000D01*
D12*
%TO.C,G\u002A\u002A\u002A*%
G36*
X135320942Y-109830480D02*
G01*
X135423852Y-109830482D01*
X135512533Y-109830558D01*
X135588285Y-109830816D01*
X135652409Y-109831362D01*
X135706206Y-109832302D01*
X135750976Y-109833745D01*
X135788020Y-109835795D01*
X135818639Y-109838560D01*
X135844134Y-109842147D01*
X135865805Y-109846663D01*
X135884954Y-109852213D01*
X135902880Y-109858906D01*
X135920885Y-109866846D01*
X135940270Y-109876142D01*
X135952927Y-109882329D01*
X136005189Y-109913977D01*
X136057539Y-109956620D01*
X136105939Y-110006283D01*
X136146349Y-110058989D01*
X136165857Y-110091911D01*
X136177720Y-110115083D01*
X136187891Y-110136296D01*
X136196500Y-110156911D01*
X136203676Y-110178293D01*
X136209550Y-110201803D01*
X136214251Y-110228804D01*
X136217909Y-110260659D01*
X136220653Y-110298732D01*
X136222613Y-110344384D01*
X136223918Y-110398979D01*
X136224698Y-110463879D01*
X136225083Y-110540448D01*
X136225203Y-110630048D01*
X136225193Y-110715714D01*
X136225142Y-110815146D01*
X136224988Y-110900413D01*
X136224617Y-110972880D01*
X136223914Y-111033913D01*
X136222766Y-111084877D01*
X136221057Y-111127138D01*
X136218675Y-111162061D01*
X136215504Y-111191011D01*
X136211429Y-111215353D01*
X136206338Y-111236453D01*
X136200115Y-111255677D01*
X136192647Y-111274390D01*
X136183818Y-111293957D01*
X136175281Y-111312023D01*
X136131218Y-111388577D01*
X136077028Y-111453486D01*
X136012025Y-111507438D01*
X135937185Y-111550335D01*
X135907859Y-111563668D01*
X135880927Y-111574204D01*
X135854015Y-111582268D01*
X135824750Y-111588187D01*
X135790755Y-111592284D01*
X135749658Y-111594885D01*
X135699082Y-111596315D01*
X135636655Y-111596899D01*
X135596607Y-111596978D01*
X135398594Y-111597065D01*
X135394711Y-111125977D01*
X135390829Y-110654888D01*
X135372169Y-110638710D01*
X135352922Y-110625988D01*
X135332514Y-110623307D01*
X135310924Y-110627507D01*
X135303034Y-110629782D01*
X135296242Y-110632806D01*
X135290468Y-110637686D01*
X135285627Y-110645527D01*
X135281638Y-110657434D01*
X135278419Y-110674513D01*
X135275886Y-110697870D01*
X135273958Y-110728609D01*
X135272552Y-110767837D01*
X135271586Y-110816659D01*
X135270977Y-110876180D01*
X135270642Y-110947507D01*
X135270501Y-111031744D01*
X135270469Y-111129997D01*
X135270468Y-111170103D01*
X135270485Y-111272001D01*
X135270579Y-111359522D01*
X135270815Y-111433817D01*
X135271259Y-111496041D01*
X135271976Y-111547345D01*
X135273030Y-111588883D01*
X135274488Y-111621807D01*
X135276414Y-111647271D01*
X135278873Y-111666426D01*
X135281932Y-111680426D01*
X135285654Y-111690424D01*
X135290105Y-111697572D01*
X135295350Y-111703024D01*
X135300856Y-111707472D01*
X135307213Y-111709495D01*
X135321223Y-111711240D01*
X135343765Y-111712722D01*
X135375716Y-111713960D01*
X135417955Y-111714970D01*
X135471360Y-111715768D01*
X135536809Y-111716372D01*
X135615179Y-111716797D01*
X135707350Y-111717061D01*
X135810738Y-111717179D01*
X136308299Y-111717426D01*
X136325151Y-111699487D01*
X136342003Y-111681549D01*
X136343976Y-110757956D01*
X136345950Y-109834363D01*
X137060349Y-109832170D01*
X137183327Y-109831814D01*
X137291757Y-109831559D01*
X137386621Y-109831416D01*
X137468903Y-109831399D01*
X137539584Y-109831522D01*
X137599646Y-109831798D01*
X137650073Y-109832240D01*
X137691847Y-109832861D01*
X137725949Y-109833675D01*
X137753363Y-109834695D01*
X137775070Y-109835934D01*
X137792054Y-109837406D01*
X137805296Y-109839123D01*
X137815779Y-109841100D01*
X137821339Y-109842465D01*
X137899935Y-109870969D01*
X137973094Y-109912082D01*
X138038590Y-109963997D01*
X138094198Y-110024911D01*
X138137692Y-110093015D01*
X138142825Y-110103306D01*
X138152002Y-110122299D01*
X138160105Y-110139547D01*
X138167197Y-110156090D01*
X138173343Y-110172974D01*
X138178606Y-110191241D01*
X138183051Y-110211934D01*
X138186741Y-110236097D01*
X138189741Y-110264773D01*
X138192116Y-110299005D01*
X138193928Y-110339836D01*
X138195242Y-110388310D01*
X138196123Y-110445470D01*
X138196634Y-110512359D01*
X138196839Y-110590021D01*
X138196803Y-110679498D01*
X138196589Y-110781834D01*
X138196262Y-110898072D01*
X138196053Y-110969729D01*
X138194069Y-111659187D01*
X137763100Y-111659187D01*
X137332131Y-111659187D01*
X137328249Y-111155701D01*
X137324366Y-110652214D01*
X137306034Y-110637373D01*
X137279566Y-110624182D01*
X137252652Y-110626427D01*
X137233985Y-110637375D01*
X137215653Y-110652218D01*
X137211770Y-111590554D01*
X137207888Y-112528890D01*
X136035341Y-112529936D01*
X135900938Y-112530012D01*
X135770363Y-112530000D01*
X135644501Y-112529903D01*
X135524238Y-112529726D01*
X135410458Y-112529473D01*
X135304046Y-112529148D01*
X135205887Y-112528755D01*
X135116867Y-112528299D01*
X135037869Y-112527784D01*
X134969780Y-112527212D01*
X134913483Y-112526590D01*
X134869865Y-112525921D01*
X134839809Y-112525208D01*
X134824201Y-112524457D01*
X134822778Y-112524284D01*
X134757043Y-112506961D01*
X134689604Y-112477739D01*
X134625032Y-112438928D01*
X134574511Y-112398946D01*
X134545230Y-112367994D01*
X134514265Y-112327955D01*
X134485439Y-112284266D01*
X134462576Y-112242361D01*
X134459239Y-112235090D01*
X134452895Y-112220839D01*
X134447208Y-112207727D01*
X134442143Y-112194871D01*
X134437662Y-112181387D01*
X134433731Y-112166393D01*
X134430314Y-112149006D01*
X134427374Y-112128342D01*
X134424877Y-112103518D01*
X134422785Y-112073651D01*
X134421063Y-112037858D01*
X134419675Y-111995255D01*
X134418585Y-111944960D01*
X134417757Y-111886090D01*
X134417156Y-111817760D01*
X134416746Y-111739089D01*
X134416490Y-111649192D01*
X134416353Y-111547188D01*
X134416299Y-111432191D01*
X134416291Y-111303320D01*
X134416295Y-111178504D01*
X134416302Y-111040217D01*
X134416332Y-110916577D01*
X134416399Y-110806700D01*
X134416517Y-110709702D01*
X134416700Y-110624698D01*
X134416962Y-110550805D01*
X134417316Y-110487140D01*
X134417777Y-110432818D01*
X134418360Y-110386956D01*
X134419076Y-110348669D01*
X134419942Y-110317074D01*
X134420969Y-110291286D01*
X134422174Y-110270423D01*
X134423568Y-110253600D01*
X134425168Y-110239933D01*
X134426985Y-110228538D01*
X134429035Y-110218532D01*
X134431331Y-110209031D01*
X134431608Y-110207943D01*
X134456192Y-110133732D01*
X134490748Y-110067532D01*
X134537453Y-110005586D01*
X134567352Y-109973718D01*
X134605501Y-109937725D01*
X134639668Y-109910894D01*
X134674680Y-109889600D01*
X134688957Y-109882329D01*
X134709771Y-109872180D01*
X134728436Y-109863450D01*
X134746252Y-109856031D01*
X134764520Y-109849817D01*
X134784540Y-109844702D01*
X134807614Y-109840578D01*
X134835042Y-109837339D01*
X134868125Y-109834878D01*
X134908163Y-109833089D01*
X134956458Y-109831864D01*
X135014310Y-109831097D01*
X135083020Y-109830682D01*
X135163889Y-109830511D01*
X135258217Y-109830478D01*
X135320942Y-109830480D01*
G37*
G36*
X129541659Y-109829117D02*
G01*
X129621680Y-109829500D01*
X129698588Y-109830206D01*
X129770687Y-109831237D01*
X129836284Y-109832593D01*
X129893682Y-109834276D01*
X129941189Y-109836287D01*
X129977109Y-109838627D01*
X129999747Y-109841298D01*
X130003336Y-109842069D01*
X130079088Y-109869223D01*
X130150802Y-109909667D01*
X130216225Y-109961338D01*
X130273103Y-110022173D01*
X130319182Y-110090111D01*
X130351308Y-110160501D01*
X130356782Y-110176788D01*
X130361450Y-110192999D01*
X130365377Y-110210470D01*
X130368627Y-110230540D01*
X130371266Y-110254543D01*
X130373357Y-110283817D01*
X130374967Y-110319698D01*
X130376159Y-110363523D01*
X130376999Y-110416628D01*
X130377551Y-110480349D01*
X130377880Y-110556023D01*
X130378051Y-110644987D01*
X130378109Y-110713394D01*
X130378140Y-110811133D01*
X130378058Y-110894692D01*
X130377797Y-110965421D01*
X130377290Y-111024671D01*
X130376472Y-111073791D01*
X130375277Y-111114133D01*
X130373637Y-111147046D01*
X130371486Y-111173880D01*
X130368758Y-111195986D01*
X130365387Y-111214714D01*
X130361306Y-111231414D01*
X130356449Y-111247437D01*
X130351091Y-111263161D01*
X130315382Y-111342184D01*
X130267183Y-111412848D01*
X130207747Y-111474032D01*
X130138324Y-111524614D01*
X130060166Y-111563472D01*
X129991265Y-111585595D01*
X129969820Y-111590553D01*
X129948893Y-111594296D01*
X129925990Y-111596958D01*
X129898620Y-111598670D01*
X129864291Y-111599564D01*
X129820508Y-111599774D01*
X129764781Y-111599432D01*
X129736057Y-111599143D01*
X129543626Y-111597065D01*
X129539743Y-111119801D01*
X129535861Y-110642536D01*
X129515910Y-110631340D01*
X129488887Y-110624342D01*
X129460971Y-110630258D01*
X129443221Y-110642511D01*
X129440783Y-110646246D01*
X129438687Y-110652948D01*
X129436911Y-110663719D01*
X129435427Y-110679658D01*
X129434210Y-110701869D01*
X129433235Y-110731452D01*
X129432476Y-110769509D01*
X129431908Y-110817140D01*
X129431506Y-110875448D01*
X129431243Y-110945534D01*
X129431095Y-111028499D01*
X129431035Y-111125444D01*
X129431031Y-111169180D01*
X129431031Y-111683658D01*
X129449003Y-111700542D01*
X129466975Y-111717426D01*
X130457620Y-111717426D01*
X130602052Y-111717420D01*
X130731760Y-111717393D01*
X130847554Y-111717335D01*
X130950239Y-111717234D01*
X131040623Y-111717077D01*
X131119514Y-111716854D01*
X131187719Y-111716553D01*
X131246045Y-111716162D01*
X131295301Y-111715669D01*
X131336292Y-111715063D01*
X131369828Y-111714332D01*
X131396714Y-111713465D01*
X131417759Y-111712450D01*
X131433770Y-111711275D01*
X131445554Y-111709929D01*
X131453918Y-111708400D01*
X131459671Y-111706676D01*
X131463620Y-111704746D01*
X131466208Y-111702896D01*
X131480067Y-111684977D01*
X131484152Y-111659187D01*
X131480033Y-111633316D01*
X131466208Y-111615478D01*
X131460380Y-111611474D01*
X131452733Y-111608279D01*
X131441584Y-111605802D01*
X131425251Y-111603952D01*
X131402051Y-111602639D01*
X131370301Y-111601772D01*
X131328317Y-111601262D01*
X131274417Y-111601018D01*
X131206917Y-111600948D01*
X131195715Y-111600948D01*
X131122413Y-111600682D01*
X131057545Y-111599911D01*
X131002537Y-111598677D01*
X130958816Y-111597022D01*
X130927808Y-111594986D01*
X130911204Y-111592681D01*
X130855895Y-111577246D01*
X130811241Y-111561774D01*
X130772496Y-111544242D01*
X130734914Y-111522624D01*
X130712647Y-111508007D01*
X130653747Y-111459782D01*
X130600100Y-111399387D01*
X130583003Y-111375757D01*
X130563314Y-111344613D01*
X130546020Y-111312951D01*
X130533069Y-111284746D01*
X130526410Y-111263970D01*
X130525925Y-111259373D01*
X130522182Y-111243810D01*
X130519413Y-111239477D01*
X130514257Y-111230861D01*
X130509834Y-111216859D01*
X130506094Y-111196421D01*
X130502989Y-111168497D01*
X130500469Y-111132036D01*
X130498486Y-111085987D01*
X130496989Y-111029300D01*
X130495930Y-110960923D01*
X130495260Y-110879808D01*
X130494929Y-110784902D01*
X130494873Y-110714818D01*
X130494936Y-110617460D01*
X130495179Y-110534197D01*
X130495690Y-110463593D01*
X130496559Y-110404215D01*
X130497872Y-110354626D01*
X130499720Y-110313391D01*
X130502190Y-110279076D01*
X130505371Y-110250245D01*
X130509351Y-110225462D01*
X130514219Y-110203294D01*
X130520063Y-110182305D01*
X130526972Y-110161059D01*
X130529451Y-110153888D01*
X130558957Y-110088093D01*
X130599371Y-110025080D01*
X130646984Y-109970410D01*
X130659805Y-109958496D01*
X130679744Y-109942089D01*
X130704341Y-109923589D01*
X130730067Y-109905427D01*
X130753392Y-109890036D01*
X130770785Y-109879845D01*
X130778006Y-109877071D01*
X130787107Y-109874191D01*
X130805155Y-109866903D01*
X130815264Y-109862525D01*
X130844195Y-109851024D01*
X130874244Y-109840924D01*
X130880143Y-109839229D01*
X130889182Y-109838084D01*
X130907859Y-109837029D01*
X130936567Y-109836063D01*
X130975699Y-109835182D01*
X131025649Y-109834384D01*
X131086809Y-109833668D01*
X131159573Y-109833031D01*
X131244334Y-109832471D01*
X131341485Y-109831985D01*
X131451420Y-109831572D01*
X131574531Y-109831228D01*
X131711211Y-109830952D01*
X131861854Y-109830742D01*
X132026853Y-109830594D01*
X132206601Y-109830508D01*
X132398900Y-109830480D01*
X132577382Y-109830482D01*
X132741004Y-109830492D01*
X132890435Y-109830517D01*
X133026345Y-109830564D01*
X133149404Y-109830640D01*
X133260283Y-109830751D01*
X133359650Y-109830906D01*
X133448177Y-109831110D01*
X133526532Y-109831371D01*
X133595386Y-109831695D01*
X133655408Y-109832089D01*
X133707269Y-109832561D01*
X133751639Y-109833117D01*
X133789187Y-109833765D01*
X133820583Y-109834510D01*
X133846497Y-109835361D01*
X133867600Y-109836323D01*
X133884560Y-109837404D01*
X133898048Y-109838611D01*
X133908734Y-109839950D01*
X133917288Y-109841430D01*
X133924379Y-109843055D01*
X133930678Y-109844834D01*
X133935511Y-109846345D01*
X134020585Y-109881101D01*
X134095918Y-109927805D01*
X134160933Y-109985870D01*
X134215054Y-110054704D01*
X134257704Y-110133719D01*
X134282220Y-110200650D01*
X134284301Y-110208419D01*
X134286165Y-110217692D01*
X134287827Y-110229337D01*
X134289303Y-110244223D01*
X134290605Y-110263216D01*
X134291750Y-110287186D01*
X134292751Y-110317000D01*
X134293623Y-110353526D01*
X134294380Y-110397633D01*
X134295038Y-110450188D01*
X134295610Y-110512059D01*
X134296111Y-110584114D01*
X134296555Y-110667221D01*
X134296958Y-110762249D01*
X134297334Y-110870065D01*
X134297696Y-110991537D01*
X134298061Y-111127534D01*
X134298120Y-111150566D01*
X134298461Y-111308609D01*
X134298638Y-111451428D01*
X134298648Y-111579325D01*
X134298489Y-111692606D01*
X134298159Y-111791575D01*
X134297657Y-111876536D01*
X134296980Y-111947793D01*
X134296127Y-112005651D01*
X134295095Y-112050414D01*
X134293882Y-112082387D01*
X134292488Y-112101873D01*
X134291975Y-112105686D01*
X134272493Y-112187748D01*
X134242399Y-112260309D01*
X134200095Y-112326381D01*
X134143982Y-112388977D01*
X134139123Y-112393663D01*
X134093442Y-112433700D01*
X134050168Y-112463468D01*
X134020176Y-112479372D01*
X133991070Y-112492937D01*
X133965563Y-112503771D01*
X133941417Y-112512178D01*
X133916396Y-112518467D01*
X133888262Y-112522943D01*
X133854779Y-112525914D01*
X133813710Y-112527687D01*
X133762817Y-112528568D01*
X133699865Y-112528865D01*
X133659187Y-112528890D01*
X133433996Y-112528890D01*
X133430113Y-111590554D01*
X133426231Y-110652218D01*
X133407899Y-110637375D01*
X133381432Y-110624182D01*
X133354519Y-110626427D01*
X133335850Y-110637375D01*
X133317518Y-110652219D01*
X133313635Y-111978815D01*
X133309753Y-113305411D01*
X132886549Y-113307271D01*
X132806732Y-113307511D01*
X132731477Y-113307521D01*
X132662238Y-113307317D01*
X132600464Y-113306914D01*
X132547607Y-113306324D01*
X132505120Y-113305564D01*
X132474452Y-113304647D01*
X132457056Y-113303589D01*
X132453660Y-113302944D01*
X132452385Y-113299246D01*
X132451208Y-113289460D01*
X132450127Y-113273008D01*
X132449134Y-113249311D01*
X132448227Y-113217791D01*
X132447399Y-113177869D01*
X132446645Y-113128965D01*
X132445961Y-113070502D01*
X132445341Y-113001900D01*
X132444781Y-112922581D01*
X132444275Y-112831966D01*
X132443818Y-112729476D01*
X132443405Y-112614532D01*
X132443032Y-112486556D01*
X132442694Y-112344969D01*
X132442384Y-112189191D01*
X132442099Y-112018645D01*
X132442013Y-111961585D01*
X132440049Y-110626414D01*
X131936956Y-110624416D01*
X131433862Y-110622418D01*
X131414745Y-110641535D01*
X131398698Y-110666484D01*
X131397901Y-110692924D01*
X131410460Y-110716795D01*
X131425292Y-110735127D01*
X131676418Y-110739776D01*
X131749066Y-110741166D01*
X131808297Y-110742594D01*
X131856222Y-110744395D01*
X131894951Y-110746903D01*
X131926594Y-110750454D01*
X131953263Y-110755381D01*
X131977068Y-110762019D01*
X132000119Y-110770702D01*
X132024528Y-110781765D01*
X132052404Y-110795542D01*
X132063471Y-110801119D01*
X132107362Y-110828560D01*
X132153375Y-110866381D01*
X132197613Y-110910642D01*
X132236180Y-110957406D01*
X132265179Y-111002735D01*
X132267571Y-111007373D01*
X132278606Y-111029249D01*
X132288088Y-111048563D01*
X132296136Y-111066632D01*
X132302868Y-111084775D01*
X132308399Y-111104308D01*
X132312849Y-111126551D01*
X132316334Y-111152820D01*
X132318972Y-111184433D01*
X132320879Y-111222709D01*
X132322175Y-111268964D01*
X132322975Y-111324518D01*
X132323398Y-111390687D01*
X132323560Y-111468790D01*
X132323579Y-111560144D01*
X132323571Y-111635891D01*
X132323545Y-111735037D01*
X132323444Y-111819904D01*
X132323235Y-111891743D01*
X132322883Y-111951806D01*
X132322356Y-112001342D01*
X132321617Y-112041605D01*
X132320635Y-112073844D01*
X132319375Y-112099311D01*
X132317804Y-112119257D01*
X132315886Y-112134934D01*
X132313590Y-112147592D01*
X132310879Y-112158483D01*
X132309276Y-112163925D01*
X132275620Y-112248021D01*
X132229289Y-112323776D01*
X132171318Y-112390149D01*
X132102742Y-112446096D01*
X132024596Y-112490574D01*
X131960110Y-112515850D01*
X131954400Y-112517428D01*
X131947015Y-112518875D01*
X131937290Y-112520196D01*
X131924564Y-112521396D01*
X131908174Y-112522481D01*
X131887457Y-112523457D01*
X131861751Y-112524330D01*
X131830392Y-112525105D01*
X131792718Y-112525788D01*
X131748066Y-112526385D01*
X131695774Y-112526901D01*
X131635179Y-112527343D01*
X131565618Y-112527715D01*
X131486428Y-112528023D01*
X131396947Y-112528274D01*
X131296512Y-112528473D01*
X131184461Y-112528625D01*
X131060130Y-112528737D01*
X130922857Y-112528813D01*
X130771979Y-112528861D01*
X130606834Y-112528884D01*
X130444390Y-112528890D01*
X128969001Y-112528890D01*
X128912043Y-112508084D01*
X128828705Y-112470308D01*
X128756271Y-112421700D01*
X128694398Y-112361907D01*
X128642741Y-112290579D01*
X128600957Y-112207365D01*
X128590084Y-112179456D01*
X128573027Y-112132864D01*
X128570848Y-111207382D01*
X128570497Y-111063485D01*
X128570187Y-110934241D01*
X128569960Y-110818771D01*
X128569859Y-110716196D01*
X128569925Y-110625638D01*
X128570202Y-110546220D01*
X128570732Y-110477062D01*
X128571557Y-110417286D01*
X128572719Y-110366015D01*
X128574262Y-110322369D01*
X128576228Y-110285471D01*
X128578659Y-110254442D01*
X128581597Y-110228404D01*
X128585086Y-110206479D01*
X128589167Y-110187788D01*
X128593882Y-110171453D01*
X128599276Y-110156596D01*
X128605389Y-110142338D01*
X128612265Y-110127802D01*
X128619945Y-110112108D01*
X128624219Y-110103306D01*
X128665806Y-110034293D01*
X128719889Y-109972191D01*
X128784310Y-109918761D01*
X128856915Y-109875766D01*
X128935547Y-109844968D01*
X128943017Y-109842807D01*
X128960970Y-109840022D01*
X128992755Y-109837549D01*
X129036679Y-109835388D01*
X129091046Y-109833541D01*
X129154161Y-109832010D01*
X129224331Y-109830794D01*
X129299860Y-109829896D01*
X129379055Y-109829316D01*
X129460219Y-109829056D01*
X129541659Y-109829117D01*
G37*
%TD*%
D13*
%TO.C,U1*%
X182383670Y-60145502D03*
D14*
X182383670Y-62685502D03*
X182383670Y-65225502D03*
X182383670Y-67765502D03*
X182383670Y-70305502D03*
X182383670Y-72845502D03*
X182383670Y-75385502D03*
X182383670Y-77925502D03*
X182383670Y-80465502D03*
X182383670Y-83005502D03*
X182383670Y-85545502D03*
X182383670Y-88085502D03*
X197623670Y-88085502D03*
X197623670Y-85545502D03*
X197623670Y-83005502D03*
X197623670Y-80465502D03*
X197623670Y-77925502D03*
X197623670Y-75385502D03*
X197623670Y-72845502D03*
X197623670Y-70305502D03*
X197623670Y-67765502D03*
X197623670Y-65225502D03*
X197623670Y-62685502D03*
X197623670Y-60145502D03*
%TD*%
D15*
X198211338Y-149310638D02*
X208998450Y-156823920D01*
X101039239Y-60480933D02*
G75*
G02*
X103675942Y-59279008I2864861J-2791667D01*
G01*
X67020389Y-92933037D02*
X69702163Y-107523299D01*
X80029800Y-68520386D02*
X82788470Y-85951132D01*
X222981676Y-139205693D02*
G75*
G02*
X222248532Y-141512964I-3999976J893D01*
G01*
X89901131Y-118735233D02*
G75*
G02*
X88280772Y-118337148I123169J3998133D01*
G01*
X122744429Y-57788483D02*
G75*
G02*
X123977732Y-57362819I1233471J-1574317D01*
G01*
X182031807Y-140174956D02*
X195591980Y-147679626D01*
X122685777Y-57834436D02*
G75*
G02*
X121566379Y-58256844I-1233477J1574336D01*
G01*
X97032648Y-63515641D02*
X81656487Y-66238385D01*
X99200054Y-62368436D02*
G75*
G02*
X97032647Y-63515635I-2864854J2791536D01*
G01*
X122744429Y-57788483D02*
X122685777Y-57834436D01*
X126849501Y-131439519D02*
G75*
G02*
X124849982Y-129441771I399J1999919D01*
G01*
X222981676Y-139205693D02*
X222981489Y-58614286D01*
X155491493Y-131439519D02*
G75*
G02*
X162299012Y-132633729I7J-19999981D01*
G01*
X89901131Y-118735233D02*
X122902841Y-119751958D01*
X124841252Y-121748758D02*
X124849916Y-129441771D01*
X154685338Y-57360144D02*
X123977732Y-57362820D01*
X82788470Y-85951132D02*
G75*
G02*
X81184761Y-88228925I-1975370J-312668D01*
G01*
X101039239Y-60480933D02*
X99200054Y-62368436D01*
X68615733Y-90606327D02*
X81184761Y-88228926D01*
X67020389Y-92933037D02*
G75*
G02*
X68615742Y-90606376I1967011J361537D01*
G01*
X195591980Y-147679626D02*
G75*
G02*
X198211336Y-149310641I-14526680J-26248174D01*
G01*
X222248543Y-141512972D02*
X211774955Y-156336845D01*
X177776999Y-138236616D02*
G75*
G02*
X182031806Y-140174957I-10271899J-28186584D01*
G01*
X211774955Y-156336845D02*
G75*
G02*
X208998414Y-156823972I-1633455J1153945D01*
G01*
X156082748Y-56790795D02*
G75*
G02*
X154685338Y-57360120I-1397648J1430895D01*
G01*
X121566379Y-58256844D02*
X103675940Y-59278966D01*
X162299012Y-132633730D02*
X177776999Y-138236616D01*
X126849501Y-131439519D02*
X155491493Y-131439519D01*
X219999342Y-55631411D02*
X158136517Y-55648686D01*
X156082748Y-56790795D02*
X156809364Y-56158895D01*
X88280774Y-118337143D02*
X71892727Y-110400203D01*
X156809364Y-56158895D02*
G75*
G02*
X158136517Y-55648686I1327736J-1472505D01*
G01*
X122902841Y-119751958D02*
G75*
G02*
X124841288Y-121748758I-61541J-1999042D01*
G01*
X71892727Y-110400203D02*
G75*
G02*
X69702175Y-107523297I1743673J3600103D01*
G01*
X219999342Y-55631411D02*
G75*
G02*
X222981489Y-58614286I-42J-2982189D01*
G01*
X80029800Y-68520386D02*
G75*
G02*
X81656488Y-66238390I1975410J312636D01*
G01*
D16*
%TO.C,CPG1316*%
X186598841Y-134307792D02*
G75*
G02*
X185598839Y-134307792I-500001J0D01*
G01*
X185598839Y-134307792D02*
G75*
G02*
X186598841Y-134307792I500001J0D01*
G01*
X189363764Y-129494507D02*
G75*
G02*
X188163762Y-129494507I-600001J0D01*
G01*
X188163762Y-129494507D02*
G75*
G02*
X189363764Y-129494507I600001J0D01*
G01*
X196742895Y-139928706D02*
G75*
G02*
X195742899Y-139928706I-499998J0D01*
G01*
X195742899Y-139928706D02*
G75*
G02*
X196742895Y-139928706I499998J0D01*
G01*
X199510881Y-135121176D02*
G75*
G02*
X198310883Y-135121176I-599999J0D01*
G01*
X198310883Y-135121176D02*
G75*
G02*
X199510881Y-135121176I599999J0D01*
G01*
X85073466Y-72516567D02*
G75*
G02*
X83873464Y-72516567I-600001J0D01*
G01*
X83873464Y-72516567D02*
G75*
G02*
X85073466Y-72516567I600001J0D01*
G01*
X85931528Y-77934281D02*
G75*
G02*
X84931530Y-77934281I-499999J0D01*
G01*
X84931530Y-77934281D02*
G75*
G02*
X85931528Y-77934281I499999J0D01*
G01*
X96500234Y-70503521D02*
G75*
G02*
X95300232Y-70503521I-600001J0D01*
G01*
X95300232Y-70503521D02*
G75*
G02*
X96500234Y-70503521I600001J0D01*
G01*
X97352299Y-75918690D02*
G75*
G02*
X96352299Y-75918690I-500000J0D01*
G01*
X96352299Y-75918690D02*
G75*
G02*
X97352299Y-75918690I500000J0D01*
G01*
X160083072Y-66358865D02*
G75*
G02*
X158883072Y-66358865I-600000J0D01*
G01*
X158883072Y-66358865D02*
G75*
G02*
X160083072Y-66358865I600000J0D01*
G01*
X159985805Y-71860639D02*
G75*
G02*
X158985805Y-71860639I-500000J0D01*
G01*
X158985805Y-71860639D02*
G75*
G02*
X159985805Y-71860639I500000J0D01*
G01*
X171583072Y-71858865D02*
G75*
G02*
X170583072Y-71858865I-500000J0D01*
G01*
X170583072Y-71858865D02*
G75*
G02*
X171583072Y-71858865I500000J0D01*
G01*
X171685805Y-66360639D02*
G75*
G02*
X170485805Y-66360639I-600000J0D01*
G01*
X170485805Y-66360639D02*
G75*
G02*
X171685805Y-66360639I600000J0D01*
G01*
X107805759Y-83388091D02*
G75*
G02*
X106605759Y-83388091I-600000J0D01*
G01*
X106605759Y-83388091D02*
G75*
G02*
X107805759Y-83388091I600000J0D01*
G01*
X107996428Y-88882182D02*
G75*
G02*
X106996430Y-88882182I-499999J0D01*
G01*
X106996430Y-88882182D02*
G75*
G02*
X107996428Y-88882182I499999J0D01*
G01*
X119392683Y-82782622D02*
G75*
G02*
X118192683Y-82782622I-600000J0D01*
G01*
X118192683Y-82782622D02*
G75*
G02*
X119392683Y-82782622I600000J0D01*
G01*
X119577709Y-88273456D02*
G75*
G02*
X118577709Y-88273456I-500000J0D01*
G01*
X118577709Y-88273456D02*
G75*
G02*
X119577709Y-88273456I500000J0D01*
G01*
X106910814Y-66311526D02*
G75*
G02*
X105710814Y-66311526I-600000J0D01*
G01*
X105710814Y-66311526D02*
G75*
G02*
X106910814Y-66311526I600000J0D01*
G01*
X107101483Y-71805617D02*
G75*
G02*
X106101485Y-71805617I-499999J0D01*
G01*
X106101485Y-71805617D02*
G75*
G02*
X107101483Y-71805617I499999J0D01*
G01*
X118497738Y-65706057D02*
G75*
G02*
X117297738Y-65706057I-600000J0D01*
G01*
X117297738Y-65706057D02*
G75*
G02*
X118497738Y-65706057I600000J0D01*
G01*
X118682764Y-71196891D02*
G75*
G02*
X117682764Y-71196891I-500000J0D01*
G01*
X117682764Y-71196891D02*
G75*
G02*
X118682764Y-71196891I500000J0D01*
G01*
X143083072Y-82708865D02*
G75*
G02*
X141883072Y-82708865I-600000J0D01*
G01*
X141883072Y-82708865D02*
G75*
G02*
X143083072Y-82708865I600000J0D01*
G01*
X142985805Y-88210639D02*
G75*
G02*
X141985805Y-88210639I-500000J0D01*
G01*
X141985805Y-88210639D02*
G75*
G02*
X142985805Y-88210639I500000J0D01*
G01*
X154583072Y-88208865D02*
G75*
G02*
X153583072Y-88208865I-500000J0D01*
G01*
X153583072Y-88208865D02*
G75*
G02*
X154583072Y-88208865I500000J0D01*
G01*
X154685805Y-82710639D02*
G75*
G02*
X153485805Y-82710639I-600000J0D01*
G01*
X153485805Y-82710639D02*
G75*
G02*
X154685805Y-82710639I600000J0D01*
G01*
X90994868Y-106098511D02*
G75*
G02*
X89794866Y-106098511I-600001J0D01*
G01*
X89794866Y-106098511D02*
G75*
G02*
X90994868Y-106098511I600001J0D01*
G01*
X91852930Y-111516225D02*
G75*
G02*
X90852932Y-111516225I-499999J0D01*
G01*
X90852932Y-111516225D02*
G75*
G02*
X91852930Y-111516225I499999J0D01*
G01*
X102421636Y-104085465D02*
G75*
G02*
X101221634Y-104085465I-600001J0D01*
G01*
X101221634Y-104085465D02*
G75*
G02*
X102421636Y-104085465I600001J0D01*
G01*
X103273701Y-109500634D02*
G75*
G02*
X102273701Y-109500634I-500000J0D01*
G01*
X102273701Y-109500634D02*
G75*
G02*
X103273701Y-109500634I500000J0D01*
G01*
X88042850Y-89356779D02*
G75*
G02*
X86842848Y-89356779I-600001J0D01*
G01*
X86842848Y-89356779D02*
G75*
G02*
X88042850Y-89356779I600001J0D01*
G01*
X88900912Y-94774493D02*
G75*
G02*
X87900914Y-94774493I-499999J0D01*
G01*
X87900914Y-94774493D02*
G75*
G02*
X88900912Y-94774493I499999J0D01*
G01*
X99469618Y-87343733D02*
G75*
G02*
X98269616Y-87343733I-600001J0D01*
G01*
X98269616Y-87343733D02*
G75*
G02*
X99469618Y-87343733I600001J0D01*
G01*
X100321683Y-92758902D02*
G75*
G02*
X99321683Y-92758902I-500000J0D01*
G01*
X99321683Y-92758902D02*
G75*
G02*
X100321683Y-92758902I500000J0D01*
G01*
X126083072Y-81708865D02*
G75*
G02*
X124883072Y-81708865I-600000J0D01*
G01*
X124883072Y-81708865D02*
G75*
G02*
X126083072Y-81708865I600000J0D01*
G01*
X125985805Y-87210639D02*
G75*
G02*
X124985805Y-87210639I-500000J0D01*
G01*
X124985805Y-87210639D02*
G75*
G02*
X125985805Y-87210639I500000J0D01*
G01*
X137583072Y-87208865D02*
G75*
G02*
X136583072Y-87208865I-500000J0D01*
G01*
X136583072Y-87208865D02*
G75*
G02*
X137583072Y-87208865I500000J0D01*
G01*
X137685805Y-81710639D02*
G75*
G02*
X136485805Y-81710639I-600000J0D01*
G01*
X136485805Y-81710639D02*
G75*
G02*
X137685805Y-81710639I600000J0D01*
G01*
X160083072Y-83458865D02*
G75*
G02*
X158883072Y-83458865I-600000J0D01*
G01*
X158883072Y-83458865D02*
G75*
G02*
X160083072Y-83458865I600000J0D01*
G01*
X159985805Y-88960639D02*
G75*
G02*
X158985805Y-88960639I-500000J0D01*
G01*
X158985805Y-88960639D02*
G75*
G02*
X159985805Y-88960639I500000J0D01*
G01*
X171583072Y-88958865D02*
G75*
G02*
X170583072Y-88958865I-500000J0D01*
G01*
X170583072Y-88958865D02*
G75*
G02*
X171583072Y-88958865I500000J0D01*
G01*
X171685805Y-83460639D02*
G75*
G02*
X170485805Y-83460639I-600000J0D01*
G01*
X170485805Y-83460639D02*
G75*
G02*
X171685805Y-83460639I600000J0D01*
G01*
X147297269Y-118598227D02*
G75*
G02*
X146097267Y-118598227I-600001J0D01*
G01*
X146097267Y-118598227D02*
G75*
G02*
X147297269Y-118598227I600001J0D01*
G01*
X147200000Y-124100000D02*
G75*
G02*
X146200002Y-124100000I-499999J0D01*
G01*
X146200002Y-124100000D02*
G75*
G02*
X147200000Y-124100000I499999J0D01*
G01*
X158797267Y-124098227D02*
G75*
G02*
X157797267Y-124098227I-500000J0D01*
G01*
X157797267Y-124098227D02*
G75*
G02*
X158797267Y-124098227I500000J0D01*
G01*
X158900000Y-118600002D02*
G75*
G02*
X157699998Y-118600002I-600001J0D01*
G01*
X157699998Y-118600002D02*
G75*
G02*
X158900000Y-118600002I600001J0D01*
G01*
X160083072Y-100458865D02*
G75*
G02*
X158883072Y-100458865I-600000J0D01*
G01*
X158883072Y-100458865D02*
G75*
G02*
X160083072Y-100458865I600000J0D01*
G01*
X159985805Y-105960639D02*
G75*
G02*
X158985805Y-105960639I-500000J0D01*
G01*
X158985805Y-105960639D02*
G75*
G02*
X159985805Y-105960639I500000J0D01*
G01*
X171583072Y-105958865D02*
G75*
G02*
X170583072Y-105958865I-500000J0D01*
G01*
X170583072Y-105958865D02*
G75*
G02*
X171583072Y-105958865I500000J0D01*
G01*
X171685805Y-100460639D02*
G75*
G02*
X170485805Y-100460639I-600000J0D01*
G01*
X170485805Y-100460639D02*
G75*
G02*
X171685805Y-100460639I600000J0D01*
G01*
X108695470Y-100364793D02*
G75*
G02*
X107495470Y-100364793I-600000J0D01*
G01*
X107495470Y-100364793D02*
G75*
G02*
X108695470Y-100364793I600000J0D01*
G01*
X108886139Y-105858884D02*
G75*
G02*
X107886141Y-105858884I-499999J0D01*
G01*
X107886141Y-105858884D02*
G75*
G02*
X108886139Y-105858884I499999J0D01*
G01*
X120282394Y-99759324D02*
G75*
G02*
X119082394Y-99759324I-600000J0D01*
G01*
X119082394Y-99759324D02*
G75*
G02*
X120282394Y-99759324I600000J0D01*
G01*
X120467420Y-105250158D02*
G75*
G02*
X119467420Y-105250158I-500000J0D01*
G01*
X119467420Y-105250158D02*
G75*
G02*
X120467420Y-105250158I500000J0D01*
G01*
X72013101Y-96906791D02*
G75*
G02*
X70813099Y-96906791I-600001J0D01*
G01*
X70813099Y-96906791D02*
G75*
G02*
X72013101Y-96906791I600001J0D01*
G01*
X72871163Y-102324505D02*
G75*
G02*
X71871165Y-102324505I-499999J0D01*
G01*
X71871165Y-102324505D02*
G75*
G02*
X72871163Y-102324505I499999J0D01*
G01*
X83439869Y-94893745D02*
G75*
G02*
X82239867Y-94893745I-600001J0D01*
G01*
X82239867Y-94893745D02*
G75*
G02*
X83439869Y-94893745I600001J0D01*
G01*
X84291934Y-100308914D02*
G75*
G02*
X83291934Y-100308914I-500000J0D01*
G01*
X83291934Y-100308914D02*
G75*
G02*
X84291934Y-100308914I500000J0D01*
G01*
X126083072Y-64608865D02*
G75*
G02*
X124883072Y-64608865I-600000J0D01*
G01*
X124883072Y-64608865D02*
G75*
G02*
X126083072Y-64608865I600000J0D01*
G01*
X125985805Y-70110639D02*
G75*
G02*
X124985805Y-70110639I-500000J0D01*
G01*
X124985805Y-70110639D02*
G75*
G02*
X125985805Y-70110639I500000J0D01*
G01*
X137583072Y-70108865D02*
G75*
G02*
X136583072Y-70108865I-500000J0D01*
G01*
X136583072Y-70108865D02*
G75*
G02*
X137583072Y-70108865I500000J0D01*
G01*
X137685805Y-64610639D02*
G75*
G02*
X136485805Y-64610639I-600000J0D01*
G01*
X136485805Y-64610639D02*
G75*
G02*
X137685805Y-64610639I600000J0D01*
G01*
X143083072Y-99708865D02*
G75*
G02*
X141883072Y-99708865I-600000J0D01*
G01*
X141883072Y-99708865D02*
G75*
G02*
X143083072Y-99708865I600000J0D01*
G01*
X142985805Y-105210639D02*
G75*
G02*
X141985805Y-105210639I-500000J0D01*
G01*
X141985805Y-105210639D02*
G75*
G02*
X142985805Y-105210639I500000J0D01*
G01*
X154583072Y-105208865D02*
G75*
G02*
X153583072Y-105208865I-500000J0D01*
G01*
X153583072Y-105208865D02*
G75*
G02*
X154583072Y-105208865I500000J0D01*
G01*
X154685805Y-99710639D02*
G75*
G02*
X153485805Y-99710639I-600000J0D01*
G01*
X153485805Y-99710639D02*
G75*
G02*
X154685805Y-99710639I600000J0D01*
G01*
X129497269Y-118798226D02*
G75*
G02*
X128297267Y-118798226I-600001J0D01*
G01*
X128297267Y-118798226D02*
G75*
G02*
X129497269Y-118798226I600001J0D01*
G01*
X129400000Y-124299999D02*
G75*
G02*
X128400002Y-124299999I-499999J0D01*
G01*
X128400002Y-124299999D02*
G75*
G02*
X129400000Y-124299999I499999J0D01*
G01*
X140997267Y-124298226D02*
G75*
G02*
X139997267Y-124298226I-500000J0D01*
G01*
X139997267Y-124298226D02*
G75*
G02*
X140997267Y-124298226I500000J0D01*
G01*
X141100000Y-118800001D02*
G75*
G02*
X139899998Y-118800001I-600001J0D01*
G01*
X139899998Y-118800001D02*
G75*
G02*
X141100000Y-118800001I600001J0D01*
G01*
X202248404Y-143384053D02*
G75*
G02*
X201248402Y-143384053I-500001J0D01*
G01*
X201248402Y-143384053D02*
G75*
G02*
X202248404Y-143384053I500001J0D01*
G01*
X205501853Y-138875694D02*
G75*
G02*
X204301853Y-138875694I-600000J0D01*
G01*
X204301853Y-138875694D02*
G75*
G02*
X205501853Y-138875694I600000J0D01*
G01*
X211749344Y-150034519D02*
G75*
G02*
X210749346Y-150034519I-499999J0D01*
G01*
X210749346Y-150034519D02*
G75*
G02*
X211749344Y-150034519I499999J0D01*
G01*
X215005238Y-145532203D02*
G75*
G02*
X213805240Y-145532203I-599999J0D01*
G01*
X213805240Y-145532203D02*
G75*
G02*
X215005238Y-145532203I599999J0D01*
G01*
X126083072Y-98708865D02*
G75*
G02*
X124883072Y-98708865I-600000J0D01*
G01*
X124883072Y-98708865D02*
G75*
G02*
X126083072Y-98708865I600000J0D01*
G01*
X125985805Y-104210639D02*
G75*
G02*
X124985805Y-104210639I-500000J0D01*
G01*
X124985805Y-104210639D02*
G75*
G02*
X125985805Y-104210639I500000J0D01*
G01*
X137583072Y-104208865D02*
G75*
G02*
X136583072Y-104208865I-500000J0D01*
G01*
X136583072Y-104208865D02*
G75*
G02*
X137583072Y-104208865I500000J0D01*
G01*
X137685805Y-98710639D02*
G75*
G02*
X136485805Y-98710639I-600000J0D01*
G01*
X136485805Y-98710639D02*
G75*
G02*
X137685805Y-98710639I600000J0D01*
G01*
X169891074Y-127656759D02*
G75*
G02*
X168891070Y-127656759I-500002J0D01*
G01*
X168891070Y-127656759D02*
G75*
G02*
X169891074Y-127656759I500002J0D01*
G01*
X171870223Y-122485848D02*
G75*
G02*
X170670221Y-122485848I-600001J0D01*
G01*
X170670221Y-122485848D02*
G75*
G02*
X171870223Y-122485848I600001J0D01*
G01*
X180789540Y-131621591D02*
G75*
G02*
X179789546Y-131621591I-499997J0D01*
G01*
X179789546Y-131621591D02*
G75*
G02*
X180789540Y-131621591I499997J0D01*
G01*
X182772617Y-126455885D02*
G75*
G02*
X181572619Y-126455885I-599999J0D01*
G01*
X181572619Y-126455885D02*
G75*
G02*
X182772617Y-126455885I599999J0D01*
G01*
X143083072Y-65608865D02*
G75*
G02*
X141883072Y-65608865I-600000J0D01*
G01*
X141883072Y-65608865D02*
G75*
G02*
X143083072Y-65608865I600000J0D01*
G01*
X142985805Y-71110639D02*
G75*
G02*
X141985805Y-71110639I-500000J0D01*
G01*
X141985805Y-71110639D02*
G75*
G02*
X142985805Y-71110639I500000J0D01*
G01*
X154583072Y-71108865D02*
G75*
G02*
X153583072Y-71108865I-500000J0D01*
G01*
X153583072Y-71108865D02*
G75*
G02*
X154583072Y-71108865I500000J0D01*
G01*
X154685805Y-65610639D02*
G75*
G02*
X153485805Y-65610639I-600000J0D01*
G01*
X153485805Y-65610639D02*
G75*
G02*
X154685805Y-65610639I600000J0D01*
G01*
X194682899Y-119389089D02*
G75*
G02*
X193682897Y-119389089I-500001J0D01*
G01*
X193682897Y-119389089D02*
G75*
G02*
X194682899Y-119389089I500001J0D01*
G01*
X197447822Y-114575804D02*
G75*
G02*
X196247820Y-114575804I-600001J0D01*
G01*
X196247820Y-114575804D02*
G75*
G02*
X197447822Y-114575804I600001J0D01*
G01*
X204826953Y-125010003D02*
G75*
G02*
X203826957Y-125010003I-499998J0D01*
G01*
X203826957Y-125010003D02*
G75*
G02*
X204826953Y-125010003I499998J0D01*
G01*
X207594939Y-120202473D02*
G75*
G02*
X206394941Y-120202473I-599999J0D01*
G01*
X206394941Y-120202473D02*
G75*
G02*
X207594939Y-120202473I599999J0D01*
G01*
%TD*%
M02*
