M48
; DRILL file {KiCad 8.0.6} date 2024-11-17T18:26:19-0500
; FORMAT={-:-/ absolute / metric / decimal}
; #@! TF.CreationDate,2024-11-17T18:26:19-05:00
; #@! TF.GenerationSoftware,Kicad,Pcbnew,8.0.6
; #@! TF.FileFunction,Plated,1,2,PTH
FMAT,2
METRIC
; #@! TA.AperFunction,Plated,PTH,ComponentDrill
T1C0.200
; #@! TA.AperFunction,Plated,PTH,ComponentDrill
T2C0.250
; #@! TA.AperFunction,Plated,PTH,ViaDrill
T3C0.300
; #@! TA.AperFunction,Plated,PTH,ComponentDrill
T4C0.500
; #@! TA.AperFunction,Plated,PTH,ComponentDrill
T5C1.090
; #@! TA.AperFunction,Plated,PTH,ComponentDrill
T6C1.092
; #@! TA.AperFunction,Plated,PTH,ComponentDrill
T7C1.092
%
G90
G05
T1
X77.46Y-100.666
X77.519Y-98.117
X78.619Y-101.477
X90.521Y-76.275
X90.579Y-73.726
X91.679Y-77.087
X93.49Y-93.116
X93.548Y-90.567
X94.649Y-93.927
X96.442Y-109.857
X96.5Y-107.308
X97.601Y-110.668
X111.855Y-70.779
X112.223Y-68.257
X112.75Y-87.856
X112.906Y-71.726
X113.118Y-85.333
X113.64Y-104.833
X113.801Y-88.802
X114.008Y-102.31
X114.691Y-105.779
X130.786Y-69.361
X130.786Y-86.461
X130.786Y-103.461
X131.286Y-66.861
X131.286Y-83.961
X131.286Y-100.961
X131.786Y-70.361
X131.786Y-87.461
X131.786Y-104.461
X134.2Y-123.55
X134.7Y-121.05
X135.2Y-124.55
X147.786Y-70.361
X147.786Y-87.461
X147.786Y-104.461
X148.286Y-67.861
X148.286Y-84.961
X148.286Y-101.961
X148.786Y-71.361
X148.786Y-88.461
X148.786Y-105.461
X152.0Y-123.35
X152.5Y-120.85
X153.0Y-124.35
X164.786Y-71.111
X164.786Y-88.211
X164.786Y-105.211
X165.286Y-68.611
X165.286Y-85.711
X165.286Y-102.711
X165.786Y-72.111
X165.786Y-89.211
X165.786Y-106.211
X174.628Y-128.765
X175.226Y-130.046
X175.953Y-126.586
X191.098Y-136.221
X191.488Y-137.581
X192.747Y-134.277
X199.182Y-121.303
X199.572Y-122.662
X200.831Y-119.358
X206.52Y-145.81
X206.766Y-147.202
X208.364Y-144.049
T2
X77.21Y-96.284
X90.27Y-71.894
X93.24Y-88.734
X96.192Y-105.476
X112.14Y-66.4
X113.035Y-83.477
X113.925Y-100.454
X131.3Y-65.003
X131.3Y-82.103
X131.3Y-99.103
X134.714Y-119.192
X148.3Y-66.003
X148.3Y-83.103
X148.3Y-100.103
X152.514Y-118.992
X165.3Y-66.753
X165.3Y-83.853
X165.3Y-100.853
X176.602Y-124.845
X193.66Y-132.659
X201.745Y-117.74
X209.441Y-142.535
T3
X139.0Y-103.0
X140.0Y-101.0
X160.0Y-119.0
X161.5Y-57.0
X161.5Y-58.0
X170.75Y-95.5
X172.5Y-89.113
X173.5Y-78.0
X174.0Y-101.5
X177.0Y-91.0
X177.0Y-101.5
X178.0Y-97.5
X178.5Y-92.5
X184.0Y-91.0
X187.823Y-122.177
X188.0Y-88.0
X202.5Y-58.5
X204.5Y-59.27
X205.5Y-58.0
X207.0Y-59.27
X210.0Y-59.27
X210.5Y-61.27
X211.5Y-58.87
X214.0Y-57.77
X214.5Y-59.27
X218.0Y-97.876
X218.0Y-102.276
T4
X70.307Y-93.802
X72.391Y-105.619
X82.814Y-91.596
X83.367Y-69.411
X84.898Y-103.414
X85.451Y-81.229
X86.337Y-86.252
X88.421Y-98.069
X89.289Y-102.993
X91.373Y-114.811
X95.875Y-67.206
X97.958Y-79.024
X98.844Y-84.046
X100.928Y-95.864
X101.796Y-100.788
X103.88Y-112.606
X105.591Y-63.095
X106.22Y-75.078
X106.486Y-80.171
X107.114Y-92.155
X107.376Y-97.148
X108.004Y-109.132
X118.274Y-62.43
X118.902Y-74.414
X119.169Y-79.507
X119.797Y-91.49
X120.059Y-96.483
X120.687Y-108.467
X124.933Y-61.359
X124.933Y-73.359
X124.933Y-78.459
X124.933Y-90.459
X124.933Y-95.459
X124.933Y-107.459
X128.347Y-115.548
X128.347Y-127.548
X137.633Y-61.359
X137.633Y-73.359
X137.633Y-78.459
X137.633Y-90.459
X137.633Y-95.459
X137.633Y-107.459
X141.047Y-127.548
X141.047Y-115.548
X141.933Y-62.359
X141.933Y-74.359
X141.933Y-79.459
X141.933Y-91.459
X141.933Y-96.459
X141.933Y-108.459
X146.147Y-115.348
X146.147Y-127.348
X154.633Y-62.359
X154.633Y-74.359
X154.633Y-79.459
X154.633Y-91.459
X154.633Y-96.459
X154.633Y-108.459
X158.847Y-127.348
X158.847Y-115.348
X158.933Y-63.109
X158.933Y-75.109
X158.933Y-80.209
X158.933Y-92.209
X158.933Y-97.209
X158.933Y-109.209
X167.761Y-130.52
X171.633Y-63.109
X171.633Y-75.109
X171.633Y-80.209
X171.633Y-92.209
X171.633Y-97.209
X171.633Y-109.209
X171.865Y-119.244
X179.695Y-134.864
X183.799Y-123.587
X184.041Y-136.881
X189.858Y-126.385
X192.125Y-121.962
X195.148Y-143.038
X197.942Y-111.467
X199.433Y-145.728
X200.966Y-132.542
X203.232Y-128.119
X206.315Y-135.898
X209.05Y-117.624
X209.836Y-153.012
X216.719Y-143.182
T5
X207.0Y-92.77
X209.54Y-92.77
X212.08Y-92.77
X214.62Y-92.77
T6
X204.46Y-92.77
T7
X182.384Y-60.146
X182.384Y-62.686
X182.384Y-65.226
X182.384Y-67.766
X182.384Y-70.306
X182.384Y-72.846
X182.384Y-75.386
X182.384Y-77.926
X182.384Y-80.466
X182.384Y-83.006
X182.384Y-85.546
X182.384Y-88.086
X197.624Y-60.146
X197.624Y-62.686
X197.624Y-65.226
X197.624Y-67.766
X197.624Y-70.306
X197.624Y-72.846
X197.624Y-75.386
X197.624Y-77.926
X197.624Y-80.466
X197.624Y-83.006
X197.624Y-85.546
X197.624Y-88.086
M30
