0
SECTION
2
HEADER
9
$INSUNITS
70
4
0
ENDSEC
0
SECTION
2
TABLES
0
TABLE
2
LTYPE
0
LTYPE
72
65
70
64
2
CONTINUOUS
3
______
73
0
40
0
0
ENDTAB
0
TABLE
2
LAYER
0
ENDTAB
0
ENDSEC
0
SECTION
2
ENTITIES
0
LINE
8
0
10
-9.0500403
20
8.4392992
11
8.4392992
21
9.0500404
0
LINE
8
0
10
8.4392992
20
9.0500404
11
7.8634575
21
25.539989
0
LINE
8
0
10
7.8634575
20
25.539989
11
-9.625882
21
24.9292478
0
LINE
8
0
10
-9.625882
20
24.9292478
11
-9.0500403
21
8.4392992
0
LINE
8
0
10
-9.6433318
20
25.4289432
11
7.8460077
21
26.0396844
0
LINE
8
0
10
7.8460077
20
26.0396844
11
7.270166
21
42.529633
0
LINE
8
0
10
7.270166
20
42.529633
11
-10.2191735
21
41.9188918
0
LINE
8
0
10
-10.2191735
20
41.9188918
11
-9.6433318
21
25.4289432
0
LINE
8
0
10
-10.2366232
20
42.4185873
11
7.2527163
21
43.0293285
0
LINE
8
0
10
7.2527163
20
43.0293285
11
6.6768746
21
59.5192771
0
LINE
8
0
10
6.6768746
20
59.5192771
11
-10.8124649
21
58.9085359
0
LINE
8
0
10
-10.8124649
20
58.9085359
11
-10.2366232
21
42.4185873
0
LINE
8
0
10
8.9215448
20
9.5671855
11
26.4108843
21
10.1779267
0
LINE
8
0
10
26.4108843
20
10.1779267
11
25.8350426
21
26.6678753
0
LINE
8
0
10
25.8350426
20
26.6678753
11
8.3457031
21
26.0571341
0
LINE
8
0
10
8.3457031
20
26.0571341
11
8.9215448
21
9.5671855
0
LINE
8
0
10
8.3282534
20
26.5568296
11
25.8175929
21
27.1675708
0
LINE
8
0
10
25.8175929
20
27.1675708
11
25.2417512
21
43.6575194
0
LINE
8
0
10
25.2417512
20
43.6575194
11
7.7524117
21
43.0467782
0
LINE
8
0
10
7.7524117
20
43.0467782
11
8.3282534
21
26.5568296
0
LINE
8
0
10
7.7349619
20
43.5464736
11
25.2243014
21
44.1572148
0
LINE
8
0
10
25.2243014
20
44.1572148
11
24.6484597
21
60.6471634
0
LINE
8
0
10
24.6484597
20
60.6471634
11
7.1591202
21
60.0364222
0
LINE
8
0
10
7.1591202
20
60.0364222
11
7.7349619
21
43.5464736
0
LINE
8
0
10
27.1059215
20
13.5042497
11
44.6059215
21
13.5042497
0
LINE
8
0
10
44.6059215
20
13.5042497
11
44.6059215
21
30.0042497
0
LINE
8
0
10
44.6059215
20
30.0042497
11
27.1059215
21
30.0042497
0
LINE
8
0
10
27.1059215
20
30.0042497
11
27.1059215
21
13.5042497
0
LINE
8
0
10
27.1059215
20
30.5042498
11
44.6059215
21
30.5042498
0
LINE
8
0
10
44.6059215
20
30.5042498
11
44.6059215
21
47.0042498
0
LINE
8
0
10
44.6059215
20
47.0042498
11
27.1059215
21
47.0042498
0
LINE
8
0
10
27.1059215
20
47.0042498
11
27.1059215
21
30.5042498
0
LINE
8
0
10
27.1059215
20
47.5042498
11
44.6059215
21
47.5042498
0
LINE
8
0
10
44.6059215
20
47.5042498
11
44.6059215
21
64.0042498
0
LINE
8
0
10
44.6059215
20
64.0042498
11
27.1059215
21
64.0042498
0
LINE
8
0
10
27.1059215
20
64.0042498
11
27.1059215
21
47.5042498
0
LINE
8
0
10
45.0196408
20
-3.8414043
11
62.5169755
21
-4.1468214
0
LINE
8
0
10
62.5169755
20
-4.1468214
11
62.8049402
21
12.3506655
0
LINE
8
0
10
62.8049402
20
12.3506655
11
45.3076055
21
12.6560826
0
LINE
8
0
10
45.3076055
20
12.6560826
11
45.0196408
21
-3.8414043
0
LINE
8
0
10
45.3599628
20
15.6556257
11
62.8572975
21
15.3502086
0
LINE
8
0
10
62.8572975
20
15.3502086
11
63.1452622
21
31.8476955
0
LINE
8
0
10
63.1452622
20
31.8476955
11
45.6479275
21
32.1531126
0
LINE
8
0
10
45.6479275
20
32.1531126
11
45.3599628
21
15.6556257
0
LINE
8
0
10
45.6566536
20
32.6530364
11
63.1539883
21
32.3476193
0
LINE
8
0
10
63.1539883
20
32.3476193
11
63.441953
21
48.8451062
0
LINE
8
0
10
63.441953
20
48.8451062
11
45.9446183
21
49.1505233
0
LINE
8
0
10
45.9446183
20
49.1505233
11
45.6566536
21
32.6530364
0
LINE
8
0
10
45.9533446
20
49.6504474
11
63.4506793
21
49.3450303
0
LINE
8
0
10
63.4506793
20
49.3450303
11
63.738644
21
65.8425172
0
LINE
8
0
10
63.738644
20
65.8425172
11
46.2413093
21
66.1479343
0
LINE
8
0
10
46.2413093
20
66.1479343
11
45.9533446
21
49.6504474
0
LINE
8
0
10
64.0787469
20
-4.3426901
11
80.8140802
21
-9.459195
0
LINE
8
0
10
80.8140802
20
-9.459195
11
85.6382133
21
6.3198335
0
LINE
8
0
10
85.6382133
20
6.3198335
11
68.90288
21
11.4363384
0
LINE
8
0
10
68.90288
20
11.4363384
11
64.0787469
21
-4.3426901
0
LINE
8
0
10
63.3223164
20
13.341787
11
80.8196511
21
13.0363699
0
LINE
8
0
10
80.8196511
20
13.0363699
11
81.1076158
21
29.5338568
0
LINE
8
0
10
81.1076158
20
29.5338568
11
63.6102811
21
29.8392739
0
LINE
8
0
10
63.6102811
20
29.8392739
11
63.3223164
21
13.341787
0
LINE
8
0
10
63.6190073
20
30.3391977
11
81.116342
21
30.0337806
0
LINE
8
0
10
81.116342
20
30.0337806
11
81.4043067
21
46.5312675
0
LINE
8
0
10
81.4043067
20
46.5312675
11
63.906972
21
46.8366846
0
LINE
8
0
10
63.906972
20
46.8366846
11
63.6190073
21
30.3391977
0
LINE
8
0
10
63.9156983
20
47.3366086
11
81.413033
21
47.0311915
0
LINE
8
0
10
81.413033
20
47.0311915
11
81.7009977
21
63.5286784
0
LINE
8
0
10
81.7009977
20
63.5286784
11
64.203663
21
63.8340955
0
LINE
8
0
10
64.203663
20
63.8340955
11
63.9156983
21
47.3366086
0
LINE
8
0
10
81.3021225
20
12.027796
11
98.7994572
21
11.7223789
0
LINE
8
0
10
98.7994572
20
11.7223789
11
99.0874219
21
28.2198658
0
LINE
8
0
10
99.0874219
20
28.2198658
11
81.5900872
21
28.5252829
0
LINE
8
0
10
81.5900872
20
28.5252829
11
81.3021225
21
12.027796
0
LINE
8
0
10
81.5988134
20
29.0252067
11
99.0961481
21
28.7197896
0
LINE
8
0
10
99.0961481
20
28.7197896
11
99.3841128
21
45.2172765
0
LINE
8
0
10
99.3841128
20
45.2172765
11
81.8867781
21
45.5226936
0
LINE
8
0
10
81.8867781
20
45.5226936
11
81.5988134
21
29.0252067
0
LINE
8
0
10
81.8955043
20
46.0226176
11
99.392839
21
45.7172005
0
LINE
8
0
10
99.392839
20
45.7172005
11
99.6808037
21
62.2146874
0
LINE
8
0
10
99.6808037
20
62.2146874
11
82.183469
21
62.5201045
0
LINE
8
0
10
82.183469
20
62.5201045
11
81.8955043
21
46.0226176
0
LINE
8
0
10
97.0500638
20
-24.8821871
11
112.642678
21
-32.8270208
0
LINE
8
0
10
112.642678
20
-32.8270208
11
120.1335212
21
-18.1254131
0
LINE
8
0
10
120.1335212
20
-18.1254131
11
104.540907
21
-10.1805794
0
LINE
8
0
10
104.540907
20
-10.1805794
11
97.0500638
21
-24.8821871
0
LINE
8
0
10
105.2218928
20
-8.8440696
11
120.814507
21
-16.7889033
0
LINE
8
0
10
120.814507
20
-16.7889033
11
128.3053502
21
-2.0872956
0
LINE
8
0
10
128.3053502
20
-2.0872956
11
112.712736
21
5.8575381
0
LINE
8
0
10
112.712736
20
5.8575381
11
105.2218928
21
-8.8440696
0
LINE
8
0
10
99.2644762
20
9.7139573
11
116.7618109
21
9.4085402
0
LINE
8
0
10
116.7618109
20
9.4085402
11
117.0497756
21
25.9060271
0
LINE
8
0
10
117.0497756
20
25.9060271
11
99.5524409
21
26.2114442
0
LINE
8
0
10
99.5524409
20
26.2114442
11
99.2644762
21
9.7139573
0
ENDSEC
0
EOF