0
SECTION
2
HEADER
9
$INSUNITS
70
4
0
ENDSEC
0
SECTION
2
TABLES
0
TABLE
2
LTYPE
0
LTYPE
72
65
70
64
2
CONTINUOUS
3
______
73
0
40
0
0
ENDTAB
0
TABLE
2
LAYER
0
ENDTAB
0
ENDSEC
0
SECTION
2
ENTITIES
0
LINE
8
0
10
-9.2911631
20
8.1807266
11
8.6978718
21
8.8089175
0
LINE
8
0
10
8.6978718
20
8.8089175
11
8.680422
21
9.3086129
0
LINE
8
0
10
-11.0710375
20
59.1496588
11
-9.2911631
21
8.1807266
0
LINE
8
0
10
6.9179974
20
59.7778497
11
-11.0710375
21
59.1496588
0
LINE
8
0
10
8.680422
20
9.3086129
11
26.6694569
21
9.9368038
0
LINE
8
0
10
24.8895825
20
60.905736
11
26.6694569
21
9.9368038
0
LINE
8
0
10
24.8895825
20
60.905736
11
6.9005476
21
60.2775451
0
LINE
8
0
10
6.9005476
20
60.2775451
11
6.9179974
21
59.7778497
0
LINE
8
0
10
26.8559215
20
13.2542497
11
44.8559215
21
13.2542497
0
LINE
8
0
10
44.8559215
20
13.2542497
11
44.8559215
21
30.2542497
0
LINE
8
0
10
26.8559215
20
30.2542497
11
44.8559215
21
30.2542497
0
LINE
8
0
10
26.8559215
20
30.2542497
11
26.8559215
21
13.2542497
0
LINE
8
0
10
44.8559215
20
30.2542498
11
44.8559215
21
64.2542498
0
LINE
8
0
10
26.8559215
20
30.2542498
11
26.8559215
21
64.2542498
0
LINE
8
0
10
44.8559215
20
64.2542498
11
26.8559215
21
64.2542498
0
LINE
8
0
10
44.7653158
20
-4.0870032
11
54.9335384
21
-4.2644902
0
LINE
8
0
10
62.0034379
20
12.6146939
11
60.2948028
21
12.6445183
0
LINE
8
0
10
48.6542481
20
12.8477049
11
45.0620067
21
12.9104077
0
LINE
8
0
10
45.0620067
20
12.9104077
11
44.9334469
21
5.5452214
0
LINE
8
0
10
44.851882
20
0.8723703
11
44.7653158
21
-4.0870032
0
LINE
8
0
10
45.1056378
20
15.4100268
11
49.9170249
21
15.3260437
0
LINE
8
0
10
55.2134552
20
15.2335942
11
63.1028963
21
15.0958835
0
LINE
8
0
10
45.1056378
20
15.4100268
11
45.6990195
21
49.4048484
0
LINE
8
0
10
63.6613732
20
47.0910097
11
63.696278
21
49.0907051
0
LINE
8
0
10
45.9957105
20
66.4022594
11
124.9836783
21
65.0235192
0
LINE
8
0
10
45.9957105
20
66.4022594
11
45.6990196
21
49.4048485
0
LINE
8
0
10
81.3444884
20
28.779608
11
81.3619408
21
29.7794557
0
LINE
8
0
10
81.3273354
20
27.7969127
11
81.3444884
21
28.779608
0
LINE
8
0
10
63.1028963
20
15.0958835
11
63.0970514
21
14.7610313
0
LINE
8
0
10
63.696278
20
49.0907051
11
63.6613733
21
47.0910097
0
LINE
8
0
10
124.3379393
20
28.0291545
11
124.1895938
21
19.5304491
0
LINE
8
0
10
124.1895938
20
19.5304491
11
123.8667243
21
1.0332667
0
LINE
8
0
10
123.8667243
20
1.0332667
11
123.8317195
21
1.0338777
0
LINE
8
0
10
81.3619408
20
29.7794557
11
81.3444884
21
28.7796078
0
LINE
8
0
10
124.6346302
20
45.0265652
11
124.4862847
21
36.5278598
0
LINE
8
0
10
124.4862847
20
36.5278598
11
124.3379393
21
28.0291544
0
LINE
8
0
10
124.9836783
20
65.0235192
11
124.7829756
21
53.5252707
0
LINE
8
0
10
124.7829756
20
53.5252707
11
124.6346302
21
45.0265653
0
LINE
8
0
10
62.0034379
20
12.6146939
11
63.0970514
21
14.7610313
0
LINE
8
0
10
123.8317195
20
1.0338777
11
129.7596012
21
-1.9865289
0
LINE
8
0
10
129.7596012
20
-1.9865289
11
126.1276772
21
-9.114581
0
LINE
8
0
10
54.9335384
20
-4.2644902
11
128.5630542
21
-41.7806022
0
LINE
8
0
10
44.851882
20
0.8723703
11
43.0264278
21
1.8024857
0
LINE
8
0
10
43.0264278
20
1.8024857
11
44.9334469
21
5.5452214
0
LINE
8
0
10
55.2134552
20
15.2335942
11
60.2948028
21
12.6445183
0
LINE
8
0
10
48.6542481
20
12.8477049
11
49.9170249
21
15.3260437
0
LINE
8
0
10
128.5630542
20
-41.7806022
11
141.2747882
21
-16.8324195
0
LINE
8
0
10
126.1276772
20
-9.114581
11
141.2747882
21
-16.8324195
0
ENDSEC
0
EOF